<svg width="1440" height="749" viewBox="0 0 1440 749" fill="none" xmlns="http://www.w3.org/2000/svg">
<path d="M101.983 9.94385L104.459 9.94385L104.459 6.21903L108.17 6.21903L108.17 3.73027L104.459 3.73027L104.459 -9.40878e-05L101.983 -9.38704e-05L101.983 3.73027L98.272 3.73027L98.272 6.21903L101.983 6.21903L101.983 9.94385Z" fill="#1B2550" fill-opacity="0.2"/>
<path d="M231.756 9.94385L234.232 9.94385L234.232 6.21903L237.943 6.21903L237.943 3.73027L234.232 3.73027L234.232 -9.40878e-05L231.756 -9.38704e-05L231.756 3.73027L228.045 3.73027L228.045 6.21903L231.756 6.21903L231.756 9.94385Z" fill="#1B2550" fill-opacity="0.2"/>
<path d="M361.528 9.94385L364.004 9.94385L364.004 6.21903L367.715 6.21903L367.715 3.73027L364.004 3.73027L364.004 -9.40878e-05L361.528 -9.38704e-05L361.528 3.73027L357.817 3.73027L357.817 6.21903L361.528 6.21903L361.528 9.94385Z" fill="#1B2550" fill-opacity="0.2"/>
<path d="M491.3 9.94385L493.776 9.94385L493.776 6.21903L497.487 6.21903L497.487 3.73027L493.776 3.73027L493.776 -9.40878e-05L491.3 -9.38704e-05L491.3 3.73027L487.589 3.73027L487.589 6.21903L491.3 6.21903L491.3 9.94385Z" fill="#1B2550" fill-opacity="0.2"/>
<path d="M621.073 9.94385L623.549 9.94385L623.549 6.21903L627.26 6.21903L627.26 3.73027L623.549 3.73027L623.549 -9.40878e-05L621.073 -9.38704e-05L621.073 3.73027L617.362 3.73027L617.362 6.21903L621.073 6.21903L621.073 9.94385Z" fill="#1B2550" fill-opacity="0.2"/>
<path d="M750.845 9.94385L753.321 9.94385L753.321 6.21903L757.032 6.21903L757.032 3.73027L753.321 3.73027L753.321 -9.40878e-05L750.845 -9.38704e-05L750.845 3.73027L747.134 3.73027L747.134 6.21903L750.845 6.21903L750.845 9.94385Z" fill="#1B2550" fill-opacity="0.2"/>
<path d="M880.618 9.94385L883.094 9.94385L883.094 6.21903L886.805 6.21903L886.805 3.73027L883.094 3.73027L883.094 -9.40878e-05L880.618 -9.38704e-05L880.618 3.73027L876.907 3.73027L876.907 6.21903L880.618 6.21903L880.618 9.94385Z" fill="#1B2550" fill-opacity="0.2"/>
<path d="M1010.39 9.94385L1012.87 9.94385L1012.87 6.21903L1016.58 6.21903L1016.58 3.73027L1012.87 3.73027L1012.87 -9.40878e-05L1010.39 -9.38704e-05L1010.39 3.73027L1006.68 3.73027L1006.68 6.21903L1010.39 6.21903L1010.39 9.94385Z" fill="#1B2550" fill-opacity="0.2"/>
<path d="M1140.16 9.94385L1142.64 9.94385L1142.64 6.21903L1146.35 6.21903L1146.35 3.73027L1142.64 3.73027L1142.64 -9.40878e-05L1140.16 -9.38704e-05L1140.16 3.73027L1136.45 3.73027L1136.45 6.21903L1140.16 6.21903L1140.16 9.94385Z" fill="#1B2550" fill-opacity="0.2"/>
<path d="M1269.94 9.94385L1272.41 9.94385L1272.41 6.21903L1276.12 6.21903L1276.12 3.73027L1272.41 3.73027L1272.41 -9.40878e-05L1269.94 -9.38704e-05L1269.94 3.73027L1266.23 3.73027L1266.23 6.21903L1269.94 6.21903L1269.94 9.94385Z" fill="#1B2550" fill-opacity="0.2"/>
<path d="M1399.71 9.94385L1402.18 9.94385L1402.18 6.21903L1405.89 6.21903L1405.89 3.73027L1402.18 3.73027L1402.18 -9.40878e-05L1399.71 -9.38704e-05L1399.71 3.73027L1396 3.73027L1396 6.21903L1399.71 6.21903L1399.71 9.94385Z" fill="#1B2550" fill-opacity="0.2"/>
<path d="M101.983 75.1323L104.459 75.1323L104.459 71.4075L108.17 71.4075L108.17 68.9187L104.459 68.9187L104.459 65.1884L101.983 65.1884L101.983 68.9187L98.272 68.9187L98.272 71.4075L101.983 71.4075L101.983 75.1323Z" fill="#1B2550" fill-opacity="0.2"/>
<path d="M231.756 75.1323L234.232 75.1323L234.232 71.4075L237.943 71.4075L237.943 68.9187L234.232 68.9187L234.232 65.1884L231.756 65.1884L231.756 68.9187L228.045 68.9187L228.045 71.4075L231.756 71.4075L231.756 75.1323Z" fill="#1B2550" fill-opacity="0.2"/>
<path d="M361.528 75.1323L364.004 75.1323L364.004 71.4075L367.715 71.4075L367.715 68.9187L364.004 68.9187L364.004 65.1884L361.528 65.1884L361.528 68.9187L357.817 68.9187L357.817 71.4075L361.528 71.4075L361.528 75.1323Z" fill="#1B2550" fill-opacity="0.2"/>
<path d="M491.3 75.1323L493.776 75.1323L493.776 71.4075L497.487 71.4075L497.487 68.9187L493.776 68.9187L493.776 65.1884L491.3 65.1884L491.3 68.9187L487.589 68.9187L487.589 71.4075L491.3 71.4075L491.3 75.1323Z" fill="#1B2550" fill-opacity="0.2"/>
<path d="M621.073 75.1323L623.549 75.1323L623.549 71.4075L627.26 71.4075L627.26 68.9187L623.549 68.9187L623.549 65.1884L621.073 65.1884L621.073 68.9187L617.362 68.9187L617.362 71.4075L621.073 71.4075L621.073 75.1323Z" fill="#1B2550" fill-opacity="0.2"/>
<path d="M750.845 75.1323L753.321 75.1323L753.321 71.4075L757.032 71.4075L757.032 68.9187L753.321 68.9187L753.321 65.1884L750.845 65.1884L750.845 68.9187L747.134 68.9187L747.134 71.4075L750.845 71.4075L750.845 75.1323Z" fill="#1B2550" fill-opacity="0.2"/>
<path d="M880.618 75.1323L883.094 75.1323L883.094 71.4075L886.805 71.4075L886.805 68.9187L883.094 68.9187L883.094 65.1884L880.618 65.1884L880.618 68.9187L876.907 68.9187L876.907 71.4075L880.618 71.4075L880.618 75.1323Z" fill="#1B2550" fill-opacity="0.2"/>
<path d="M1010.39 75.1323L1012.87 75.1323L1012.87 71.4075L1016.58 71.4075L1016.58 68.9187L1012.87 68.9187L1012.87 65.1884L1010.39 65.1884L1010.39 68.9187L1006.68 68.9187L1006.68 71.4075L1010.39 71.4075L1010.39 75.1323Z" fill="#1B2550" fill-opacity="0.2"/>
<path d="M1140.16 75.1323L1142.64 75.1323L1142.64 71.4075L1146.35 71.4075L1146.35 68.9187L1142.64 68.9187L1142.64 65.1884L1140.16 65.1884L1140.16 68.9187L1136.45 68.9187L1136.45 71.4075L1140.16 71.4075L1140.16 75.1323Z" fill="#1B2550" fill-opacity="0.2"/>
<path d="M1269.94 75.1323L1272.41 75.1323L1272.41 71.4075L1276.12 71.4075L1276.12 68.9187L1272.41 68.9187L1272.41 65.1884L1269.94 65.1884L1269.94 68.9187L1266.23 68.9187L1266.23 71.4075L1269.94 71.4075L1269.94 75.1323Z" fill="#1B2550" fill-opacity="0.2"/>
<path d="M1399.71 75.1323L1402.18 75.1323L1402.18 71.4075L1405.89 71.4075L1405.89 68.9187L1402.18 68.9187L1402.18 65.1884L1399.71 65.1884L1399.71 68.9187L1396 68.9187L1396 71.4075L1399.71 71.4075L1399.71 75.1323Z" fill="#1B2550" fill-opacity="0.2"/>
<path d="M101.983 140.319L104.459 140.319L104.459 136.595L108.17 136.595L108.17 134.106L104.459 134.106L104.459 130.375L101.983 130.375L101.983 134.106L98.272 134.106L98.272 136.595L101.983 136.595L101.983 140.319Z" fill="#1B2550" fill-opacity="0.2"/>
<path d="M231.756 140.319L234.232 140.319L234.232 136.595L237.943 136.595L237.943 134.106L234.232 134.106L234.232 130.375L231.756 130.375L231.756 134.106L228.045 134.106L228.045 136.595L231.756 136.595L231.756 140.319Z" fill="#1B2550" fill-opacity="0.2"/>
<path d="M361.528 140.319L364.004 140.319L364.004 136.595L367.715 136.595L367.715 134.106L364.004 134.106L364.004 130.375L361.528 130.375L361.528 134.106L357.817 134.106L357.817 136.595L361.528 136.595L361.528 140.319Z" fill="#1B2550" fill-opacity="0.2"/>
<path d="M491.3 140.319L493.776 140.319L493.776 136.595L497.487 136.595L497.487 134.106L493.776 134.106L493.776 130.375L491.3 130.375L491.3 134.106L487.589 134.106L487.589 136.595L491.3 136.595L491.3 140.319Z" fill="#1B2550" fill-opacity="0.2"/>
<path d="M621.073 140.319L623.549 140.319L623.549 136.595L627.26 136.595L627.26 134.106L623.549 134.106L623.549 130.375L621.073 130.375L621.073 134.106L617.362 134.106L617.362 136.595L621.073 136.595L621.073 140.319Z" fill="#1B2550" fill-opacity="0.2"/>
<path d="M750.845 140.32L753.321 140.32L753.321 136.595L757.032 136.595L757.032 134.107L753.321 134.107L753.321 130.376L750.845 130.376L750.845 134.107L747.134 134.107L747.134 136.595L750.845 136.595L750.845 140.32Z" fill="#1B2550" fill-opacity="0.2"/>
<path d="M880.618 140.32L883.094 140.32L883.094 136.595L886.805 136.595L886.805 134.107L883.094 134.107L883.094 130.376L880.618 130.376L880.618 134.107L876.907 134.107L876.907 136.595L880.618 136.595L880.618 140.32Z" fill="#1B2550" fill-opacity="0.2"/>
<path d="M1010.39 140.32L1012.87 140.32L1012.87 136.595L1016.58 136.595L1016.58 134.107L1012.87 134.107L1012.87 130.376L1010.39 130.376L1010.39 134.107L1006.68 134.107L1006.68 136.595L1010.39 136.595L1010.39 140.32Z" fill="#1B2550" fill-opacity="0.2"/>
<path d="M1140.16 140.32L1142.64 140.32L1142.64 136.595L1146.35 136.595L1146.35 134.107L1142.64 134.107L1142.64 130.376L1140.16 130.376L1140.16 134.107L1136.45 134.107L1136.45 136.595L1140.16 136.595L1140.16 140.32Z" fill="#1B2550" fill-opacity="0.2"/>
<path d="M1269.94 140.32L1272.41 140.32L1272.41 136.595L1276.12 136.595L1276.12 134.107L1272.41 134.107L1272.41 130.376L1269.94 130.376L1269.94 134.107L1266.23 134.107L1266.23 136.595L1269.94 136.595L1269.94 140.32Z" fill="#1B2550" fill-opacity="0.2"/>
<path d="M1399.71 140.32L1402.18 140.32L1402.18 136.595L1405.89 136.595L1405.89 134.107L1402.18 134.107L1402.18 130.376L1399.71 130.376L1399.71 134.107L1396 134.107L1396 136.595L1399.71 136.595L1399.71 140.32Z" fill="#1B2550" fill-opacity="0.2"/>
<path d="M101.983 205.508L104.459 205.508L104.459 201.783L108.17 201.783L108.17 199.294L104.459 199.294L104.459 195.564L101.983 195.564L101.983 199.294L98.272 199.294L98.272 201.783L101.983 201.783L101.983 205.508Z" fill="#1B2550" fill-opacity="0.2"/>
<path d="M231.756 205.508L234.232 205.508L234.232 201.783L237.943 201.783L237.943 199.294L234.232 199.294L234.232 195.564L231.756 195.564L231.756 199.294L228.045 199.294L228.045 201.783L231.756 201.783L231.756 205.508Z" fill="#1B2550" fill-opacity="0.2"/>
<path d="M361.528 205.508L364.004 205.508L364.004 201.783L367.715 201.783L367.715 199.294L364.004 199.294L364.004 195.564L361.528 195.564L361.528 199.294L357.817 199.294L357.817 201.783L361.528 201.783L361.528 205.508Z" fill="#1B2550" fill-opacity="0.2"/>
<path d="M491.3 205.508L493.776 205.508L493.776 201.783L497.487 201.783L497.487 199.294L493.776 199.294L493.776 195.564L491.3 195.564L491.3 199.294L487.589 199.294L487.589 201.783L491.3 201.783L491.3 205.508Z" fill="#1B2550" fill-opacity="0.2"/>
<path d="M621.073 205.508L623.549 205.508L623.549 201.783L627.26 201.783L627.26 199.294L623.549 199.294L623.549 195.564L621.073 195.564L621.073 199.294L617.362 199.294L617.362 201.783L621.073 201.783L621.073 205.508Z" fill="#1B2550" fill-opacity="0.2"/>
<path d="M750.845 205.508L753.321 205.508L753.321 201.783L757.032 201.783L757.032 199.294L753.321 199.294L753.321 195.564L750.845 195.564L750.845 199.294L747.134 199.294L747.134 201.783L750.845 201.783L750.845 205.508Z" fill="#1B2550" fill-opacity="0.2"/>
<path d="M880.618 205.508L883.094 205.508L883.094 201.783L886.805 201.783L886.805 199.294L883.094 199.294L883.094 195.564L880.618 195.564L880.618 199.294L876.907 199.294L876.907 201.783L880.618 201.783L880.618 205.508Z" fill="#1B2550" fill-opacity="0.2"/>
<path d="M1010.39 205.508L1012.87 205.508L1012.87 201.783L1016.58 201.783L1016.58 199.294L1012.87 199.294L1012.87 195.564L1010.39 195.564L1010.39 199.294L1006.68 199.294L1006.68 201.783L1010.39 201.783L1010.39 205.508Z" fill="#1B2550" fill-opacity="0.2"/>
<path d="M1140.16 205.508L1142.64 205.508L1142.64 201.783L1146.35 201.783L1146.35 199.294L1142.64 199.294L1142.64 195.564L1140.16 195.564L1140.16 199.294L1136.45 199.294L1136.45 201.783L1140.16 201.783L1140.16 205.508Z" fill="#1B2550" fill-opacity="0.2"/>
<path d="M1269.94 205.508L1272.41 205.508L1272.41 201.783L1276.12 201.783L1276.12 199.294L1272.41 199.294L1272.41 195.564L1269.94 195.564L1269.94 199.294L1266.23 199.294L1266.23 201.783L1269.94 201.783L1269.94 205.508Z" fill="#1B2550" fill-opacity="0.2"/>
<path d="M1399.71 205.508L1402.18 205.508L1402.18 201.783L1405.89 201.783L1405.89 199.294L1402.18 199.294L1402.18 195.564L1399.71 195.564L1399.71 199.294L1396 199.294L1396 201.783L1399.71 201.783L1399.71 205.508Z" fill="#1B2550" fill-opacity="0.2"/>
<path d="M101.983 270.695L104.459 270.695L104.459 266.97L108.17 266.97L108.17 264.482L104.459 264.482L104.459 260.751L101.983 260.751L101.983 264.482L98.272 264.482L98.272 266.97L101.983 266.97L101.983 270.695Z" fill="#1B2550" fill-opacity="0.2"/>
<path d="M231.756 270.695L234.232 270.695L234.232 266.97L237.943 266.97L237.943 264.482L234.232 264.482L234.232 260.751L231.756 260.751L231.756 264.482L228.045 264.482L228.045 266.97L231.756 266.97L231.756 270.695Z" fill="#1B2550" fill-opacity="0.2"/>
<path d="M361.528 270.695L364.004 270.695L364.004 266.97L367.715 266.97L367.715 264.482L364.004 264.482L364.004 260.751L361.528 260.751L361.528 264.482L357.817 264.482L357.817 266.97L361.528 266.97L361.528 270.695Z" fill="#1B2550" fill-opacity="0.2"/>
<path d="M491.3 270.695L493.776 270.695L493.776 266.97L497.487 266.97L497.487 264.482L493.776 264.482L493.776 260.751L491.3 260.751L491.3 264.482L487.589 264.482L487.589 266.97L491.3 266.97L491.3 270.695Z" fill="#1B2550" fill-opacity="0.2"/>
<path d="M621.073 270.695L623.549 270.695L623.549 266.97L627.26 266.97L627.26 264.482L623.549 264.482L623.549 260.751L621.073 260.751L621.073 264.482L617.362 264.482L617.362 266.97L621.073 266.97L621.073 270.695Z" fill="#1B2550" fill-opacity="0.2"/>
<path d="M750.845 270.696L753.321 270.696L753.321 266.971L757.032 266.971L757.032 264.483L753.321 264.483L753.321 260.752L750.845 260.752L750.845 264.483L747.134 264.483L747.134 266.971L750.845 266.971L750.845 270.696Z" fill="#1B2550" fill-opacity="0.2"/>
<path d="M880.618 270.696L883.094 270.696L883.094 266.971L886.805 266.971L886.805 264.483L883.094 264.483L883.094 260.752L880.618 260.752L880.618 264.483L876.907 264.483L876.907 266.971L880.618 266.971L880.618 270.696Z" fill="#1B2550" fill-opacity="0.2"/>
<path d="M1010.39 270.696L1012.87 270.696L1012.87 266.971L1016.58 266.971L1016.58 264.483L1012.87 264.483L1012.87 260.752L1010.39 260.752L1010.39 264.483L1006.68 264.483L1006.68 266.971L1010.39 266.971L1010.39 270.696Z" fill="#1B2550" fill-opacity="0.2"/>
<path d="M1140.16 270.696L1142.64 270.696L1142.64 266.971L1146.35 266.971L1146.35 264.483L1142.64 264.483L1142.64 260.752L1140.16 260.752L1140.16 264.483L1136.45 264.483L1136.45 266.971L1140.16 266.971L1140.16 270.696Z" fill="#1B2550" fill-opacity="0.2"/>
<path d="M1269.94 270.696L1272.41 270.696L1272.41 266.971L1276.12 266.971L1276.12 264.483L1272.41 264.483L1272.41 260.752L1269.94 260.752L1269.94 264.483L1266.23 264.483L1266.23 266.971L1269.94 266.971L1269.94 270.696Z" fill="#1B2550" fill-opacity="0.2"/>
<path d="M1399.71 270.696L1402.18 270.696L1402.18 266.971L1405.89 266.971L1405.89 264.483L1402.18 264.483L1402.18 260.752L1399.71 260.752L1399.71 264.483L1396 264.483L1396 266.971L1399.71 266.971L1399.71 270.696Z" fill="#1B2550" fill-opacity="0.2"/>
<path d="M101.983 335.884L104.459 335.884L104.459 332.159L108.17 332.159L108.17 329.67L104.459 329.67L104.459 325.94L101.983 325.94L101.983 329.67L98.272 329.67L98.272 332.159L101.983 332.159L101.983 335.884Z" fill="#1B2550" fill-opacity="0.2"/>
<path d="M231.756 335.884L234.232 335.884L234.232 332.159L237.943 332.159L237.943 329.67L234.232 329.67L234.232 325.94L231.756 325.94L231.756 329.67L228.045 329.67L228.045 332.159L231.756 332.159L231.756 335.884Z" fill="#1B2550" fill-opacity="0.2"/>
<path d="M361.528 335.884L364.004 335.884L364.004 332.159L367.715 332.159L367.715 329.67L364.004 329.67L364.004 325.94L361.528 325.94L361.528 329.67L357.817 329.67L357.817 332.159L361.528 332.159L361.528 335.884Z" fill="#1B2550" fill-opacity="0.2"/>
<path d="M491.3 335.884L493.776 335.884L493.776 332.159L497.487 332.159L497.487 329.67L493.776 329.67L493.776 325.94L491.3 325.94L491.3 329.67L487.589 329.67L487.589 332.159L491.3 332.159L491.3 335.884Z" fill="#1B2550" fill-opacity="0.2"/>
<path d="M621.073 335.884L623.549 335.884L623.549 332.159L627.26 332.159L627.26 329.67L623.549 329.67L623.549 325.94L621.073 325.94L621.073 329.67L617.362 329.67L617.362 332.159L621.073 332.159L621.073 335.884Z" fill="#1B2550" fill-opacity="0.2"/>
<path d="M750.845 335.884L753.321 335.884L753.321 332.159L757.032 332.159L757.032 329.67L753.321 329.67L753.321 325.94L750.845 325.94L750.845 329.67L747.134 329.67L747.134 332.159L750.845 332.159L750.845 335.884Z" fill="#1B2550" fill-opacity="0.2"/>
<path d="M880.618 335.884L883.094 335.884L883.094 332.159L886.805 332.159L886.805 329.67L883.094 329.67L883.094 325.94L880.618 325.94L880.618 329.67L876.907 329.67L876.907 332.159L880.618 332.159L880.618 335.884Z" fill="#1B2550" fill-opacity="0.2"/>
<path d="M1010.39 335.884L1012.87 335.884L1012.87 332.159L1016.58 332.159L1016.58 329.67L1012.87 329.67L1012.87 325.94L1010.39 325.94L1010.39 329.67L1006.68 329.67L1006.68 332.159L1010.39 332.159L1010.39 335.884Z" fill="#1B2550" fill-opacity="0.2"/>
<path d="M1140.16 335.884L1142.64 335.884L1142.64 332.159L1146.35 332.159L1146.35 329.67L1142.64 329.67L1142.64 325.94L1140.16 325.94L1140.16 329.67L1136.45 329.67L1136.45 332.159L1140.16 332.159L1140.16 335.884Z" fill="#1B2550" fill-opacity="0.2"/>
<path d="M1269.94 335.884L1272.41 335.884L1272.41 332.159L1276.12 332.159L1276.12 329.67L1272.41 329.67L1272.41 325.94L1269.94 325.94L1269.94 329.67L1266.23 329.67L1266.23 332.159L1269.94 332.159L1269.94 335.884Z" fill="#1B2550" fill-opacity="0.2"/>
<path d="M1399.71 335.884L1402.18 335.884L1402.18 332.159L1405.89 332.159L1405.89 329.67L1402.18 329.67L1402.18 325.94L1399.71 325.94L1399.71 329.67L1396 329.67L1396 332.159L1399.71 332.159L1399.71 335.884Z" fill="#1B2550" fill-opacity="0.2"/>
<path d="M101.983 401.072L104.459 401.072L104.459 397.347L108.17 397.347L108.17 394.858L104.459 394.858L104.459 391.128L101.983 391.128L101.983 394.858L98.272 394.858L98.272 397.347L101.983 397.347L101.983 401.072Z" fill="#1B2550" fill-opacity="0.2"/>
<path d="M231.756 401.072L234.232 401.072L234.232 397.347L237.943 397.347L237.943 394.858L234.232 394.858L234.232 391.128L231.756 391.128L231.756 394.858L228.045 394.858L228.045 397.347L231.756 397.347L231.756 401.072Z" fill="#1B2550" fill-opacity="0.2"/>
<path d="M361.528 401.072L364.004 401.072L364.004 397.347L367.715 397.347L367.715 394.858L364.004 394.858L364.004 391.128L361.528 391.128L361.528 394.858L357.817 394.858L357.817 397.347L361.528 397.347L361.528 401.072Z" fill="#1B2550" fill-opacity="0.2"/>
<path d="M491.3 401.072L493.776 401.072L493.776 397.347L497.487 397.347L497.487 394.858L493.776 394.858L493.776 391.128L491.3 391.128L491.3 394.858L487.589 394.858L487.589 397.347L491.3 397.347L491.3 401.072Z" fill="#1B2550" fill-opacity="0.2"/>
<path d="M621.073 401.072L623.549 401.072L623.549 397.347L627.26 397.347L627.26 394.858L623.549 394.858L623.549 391.128L621.073 391.128L621.073 394.858L617.362 394.858L617.362 397.347L621.073 397.347L621.073 401.072Z" fill="#1B2550" fill-opacity="0.2"/>
<path d="M750.845 401.072L753.321 401.072L753.321 397.347L757.032 397.347L757.032 394.858L753.321 394.858L753.321 391.128L750.845 391.128L750.845 394.858L747.134 394.858L747.134 397.347L750.845 397.347L750.845 401.072Z" fill="#1B2550" fill-opacity="0.2"/>
<path d="M880.618 401.072L883.094 401.072L883.094 397.347L886.805 397.347L886.805 394.858L883.094 394.858L883.094 391.128L880.618 391.128L880.618 394.858L876.907 394.858L876.907 397.347L880.618 397.347L880.618 401.072Z" fill="#1B2550" fill-opacity="0.2"/>
<path d="M1010.39 401.072L1012.87 401.072L1012.87 397.347L1016.58 397.347L1016.58 394.858L1012.87 394.858L1012.87 391.128L1010.39 391.128L1010.39 394.858L1006.68 394.858L1006.68 397.347L1010.39 397.347L1010.39 401.072Z" fill="#1B2550" fill-opacity="0.2"/>
<path d="M1140.16 401.072L1142.64 401.072L1142.64 397.347L1146.35 397.347L1146.35 394.858L1142.64 394.858L1142.64 391.128L1140.16 391.128L1140.16 394.858L1136.45 394.858L1136.45 397.347L1140.16 397.347L1140.16 401.072Z" fill="#1B2550" fill-opacity="0.2"/>
<path d="M1269.94 401.072L1272.41 401.072L1272.41 397.347L1276.12 397.347L1276.12 394.858L1272.41 394.858L1272.41 391.128L1269.94 391.128L1269.94 394.858L1266.23 394.858L1266.23 397.347L1269.94 397.347L1269.94 401.072Z" fill="#1B2550" fill-opacity="0.2"/>
<path d="M1399.71 401.072L1402.18 401.072L1402.18 397.347L1405.89 397.347L1405.89 394.858L1402.18 394.858L1402.18 391.128L1399.71 391.128L1399.71 394.858L1396 394.858L1396 397.347L1399.71 397.347L1399.71 401.072Z" fill="#1B2550" fill-opacity="0.2"/>
<path d="M101.983 466.26L104.459 466.26L104.459 462.535L108.17 462.535L108.17 460.047L104.459 460.047L104.459 456.316L101.983 456.316L101.983 460.047L98.272 460.047L98.272 462.535L101.983 462.535L101.983 466.26Z" fill="#1B2550" fill-opacity="0.2"/>
<path d="M231.756 466.26L234.232 466.26L234.232 462.535L237.943 462.535L237.943 460.047L234.232 460.047L234.232 456.316L231.756 456.316L231.756 460.047L228.045 460.047L228.045 462.535L231.756 462.535L231.756 466.26Z" fill="#1B2550" fill-opacity="0.2"/>
<path d="M361.528 466.26L364.004 466.26L364.004 462.535L367.715 462.535L367.715 460.047L364.004 460.047L364.004 456.316L361.528 456.316L361.528 460.047L357.817 460.047L357.817 462.535L361.528 462.535L361.528 466.26Z" fill="#1B2550" fill-opacity="0.2"/>
<path d="M491.3 466.26L493.776 466.26L493.776 462.535L497.487 462.535L497.487 460.047L493.776 460.047L493.776 456.316L491.3 456.316L491.3 460.047L487.589 460.047L487.589 462.535L491.3 462.535L491.3 466.26Z" fill="#1B2550" fill-opacity="0.2"/>
<path d="M621.073 466.26L623.549 466.26L623.549 462.535L627.26 462.535L627.26 460.047L623.549 460.047L623.549 456.316L621.073 456.316L621.073 460.047L617.362 460.047L617.362 462.535L621.073 462.535L621.073 466.26Z" fill="#1B2550" fill-opacity="0.2"/>
<path d="M750.845 466.26L753.321 466.26L753.321 462.535L757.032 462.535L757.032 460.047L753.321 460.047L753.321 456.316L750.845 456.316L750.845 460.047L747.134 460.047L747.134 462.535L750.845 462.535L750.845 466.26Z" fill="#1B2550" fill-opacity="0.2"/>
<path d="M880.618 466.26L883.094 466.26L883.094 462.535L886.805 462.535L886.805 460.047L883.094 460.047L883.094 456.316L880.618 456.316L880.618 460.047L876.907 460.047L876.907 462.535L880.618 462.535L880.618 466.26Z" fill="#1B2550" fill-opacity="0.2"/>
<path d="M1010.39 466.26L1012.87 466.26L1012.87 462.535L1016.58 462.535L1016.58 460.047L1012.87 460.047L1012.87 456.316L1010.39 456.316L1010.39 460.047L1006.68 460.047L1006.68 462.535L1010.39 462.535L1010.39 466.26Z" fill="#1B2550" fill-opacity="0.2"/>
<path d="M1140.16 466.26L1142.64 466.26L1142.64 462.535L1146.35 462.535L1146.35 460.047L1142.64 460.047L1142.64 456.316L1140.16 456.316L1140.16 460.047L1136.45 460.047L1136.45 462.535L1140.16 462.535L1140.16 466.26Z" fill="#1B2550" fill-opacity="0.2"/>
<path d="M1269.94 466.26L1272.41 466.26L1272.41 462.535L1276.12 462.535L1276.12 460.047L1272.41 460.047L1272.41 456.316L1269.94 456.316L1269.94 460.047L1266.23 460.047L1266.23 462.535L1269.94 462.535L1269.94 466.26Z" fill="#1B2550" fill-opacity="0.2"/>
<path d="M1399.71 466.26L1402.18 466.26L1402.18 462.535L1405.89 462.535L1405.89 460.047L1402.18 460.047L1402.18 456.316L1399.71 456.316L1399.71 460.047L1396 460.047L1396 462.535L1399.71 462.535L1399.71 466.26Z" fill="#1B2550" fill-opacity="0.2"/>
<path d="M101.983 531.448L104.459 531.448L104.459 527.723L108.17 527.723L108.17 525.235L104.459 525.235L104.459 521.504L101.983 521.504L101.983 525.235L98.272 525.235L98.272 527.723L101.983 527.723L101.983 531.448Z" fill="#1B2550" fill-opacity="0.2"/>
<path d="M231.756 531.448L234.232 531.448L234.232 527.723L237.943 527.723L237.943 525.235L234.232 525.235L234.232 521.504L231.756 521.504L231.756 525.235L228.045 525.235L228.045 527.723L231.756 527.723L231.756 531.448Z" fill="#1B2550" fill-opacity="0.2"/>
<path d="M361.528 531.448L364.004 531.448L364.004 527.723L367.715 527.723L367.715 525.235L364.004 525.235L364.004 521.504L361.528 521.504L361.528 525.235L357.817 525.235L357.817 527.723L361.528 527.723L361.528 531.448Z" fill="#1B2550" fill-opacity="0.2"/>
<path d="M491.3 531.448L493.776 531.448L493.776 527.723L497.487 527.723L497.487 525.235L493.776 525.235L493.776 521.504L491.3 521.504L491.3 525.235L487.589 525.235L487.589 527.723L491.3 527.723L491.3 531.448Z" fill="#1B2550" fill-opacity="0.2"/>
<path d="M621.073 531.448L623.549 531.448L623.549 527.723L627.26 527.723L627.26 525.235L623.549 525.235L623.549 521.504L621.073 521.504L621.073 525.235L617.362 525.235L617.362 527.723L621.073 527.723L621.073 531.448Z" fill="#1B2550" fill-opacity="0.2"/>
<path d="M750.845 531.448L753.321 531.448L753.321 527.723L757.032 527.723L757.032 525.235L753.321 525.235L753.321 521.504L750.845 521.504L750.845 525.235L747.134 525.235L747.134 527.723L750.845 527.723L750.845 531.448Z" fill="#1B2550" fill-opacity="0.2"/>
<path d="M880.618 531.448L883.094 531.448L883.094 527.723L886.805 527.723L886.805 525.235L883.094 525.235L883.094 521.504L880.618 521.504L880.618 525.235L876.907 525.235L876.907 527.723L880.618 527.723L880.618 531.448Z" fill="#1B2550" fill-opacity="0.2"/>
<path d="M1010.39 531.448L1012.87 531.448L1012.87 527.723L1016.58 527.723L1016.58 525.235L1012.87 525.235L1012.87 521.504L1010.39 521.504L1010.39 525.235L1006.68 525.235L1006.68 527.723L1010.39 527.723L1010.39 531.448Z" fill="#1B2550" fill-opacity="0.2"/>
<path d="M1140.16 531.448L1142.64 531.448L1142.64 527.723L1146.35 527.723L1146.35 525.235L1142.64 525.235L1142.64 521.504L1140.16 521.504L1140.16 525.235L1136.45 525.235L1136.45 527.723L1140.16 527.723L1140.16 531.448Z" fill="#1B2550" fill-opacity="0.2"/>
<path d="M1269.94 531.448L1272.41 531.448L1272.41 527.723L1276.12 527.723L1276.12 525.235L1272.41 525.235L1272.41 521.504L1269.94 521.504L1269.94 525.235L1266.23 525.235L1266.23 527.723L1269.94 527.723L1269.94 531.448Z" fill="#1B2550" fill-opacity="0.2"/>
<path d="M1399.71 531.448L1402.18 531.448L1402.18 527.723L1405.89 527.723L1405.89 525.235L1402.18 525.235L1402.18 521.504L1399.71 521.504L1399.71 525.235L1396 525.235L1396 527.723L1399.71 527.723L1399.71 531.448Z" fill="#1B2550" fill-opacity="0.2"/>
<path d="M101.983 596.637L104.459 596.637L104.459 592.912L108.17 592.912L108.17 590.423L104.459 590.423L104.459 586.693L101.983 586.693L101.983 590.423L98.272 590.423L98.272 592.912L101.983 592.912L101.983 596.637Z" fill="#1B2550" fill-opacity="0.2"/>
<path d="M231.756 596.637L234.232 596.637L234.232 592.912L237.943 592.912L237.943 590.423L234.232 590.423L234.232 586.693L231.756 586.693L231.756 590.423L228.045 590.423L228.045 592.912L231.756 592.912L231.756 596.637Z" fill="#1B2550" fill-opacity="0.2"/>
<path d="M361.528 596.637L364.004 596.637L364.004 592.912L367.715 592.912L367.715 590.423L364.004 590.423L364.004 586.693L361.528 586.693L361.528 590.423L357.817 590.423L357.817 592.912L361.528 592.912L361.528 596.637Z" fill="#1B2550" fill-opacity="0.2"/>
<path d="M491.3 596.637L493.776 596.637L493.776 592.912L497.487 592.912L497.487 590.423L493.776 590.423L493.776 586.693L491.3 586.693L491.3 590.423L487.589 590.423L487.589 592.912L491.3 592.912L491.3 596.637Z" fill="#1B2550" fill-opacity="0.2"/>
<path d="M621.073 596.637L623.549 596.637L623.549 592.912L627.26 592.912L627.26 590.423L623.549 590.423L623.549 586.693L621.073 586.693L621.073 590.423L617.362 590.423L617.362 592.912L621.073 592.912L621.073 596.637Z" fill="#1B2550" fill-opacity="0.2"/>
<path d="M750.845 596.637L753.321 596.637L753.321 592.912L757.032 592.912L757.032 590.423L753.321 590.423L753.321 586.693L750.845 586.693L750.845 590.423L747.134 590.423L747.134 592.912L750.845 592.912L750.845 596.637Z" fill="#1B2550" fill-opacity="0.2"/>
<path d="M880.618 596.637L883.094 596.637L883.094 592.912L886.805 592.912L886.805 590.423L883.094 590.423L883.094 586.693L880.618 586.693L880.618 590.423L876.907 590.423L876.907 592.912L880.618 592.912L880.618 596.637Z" fill="#1B2550" fill-opacity="0.2"/>
<path d="M1010.39 596.637L1012.87 596.637L1012.87 592.912L1016.58 592.912L1016.58 590.423L1012.87 590.423L1012.87 586.693L1010.39 586.693L1010.39 590.423L1006.68 590.423L1006.68 592.912L1010.39 592.912L1010.39 596.637Z" fill="#1B2550" fill-opacity="0.2"/>
<path d="M1140.16 596.637L1142.64 596.637L1142.64 592.912L1146.35 592.912L1146.35 590.423L1142.64 590.423L1142.64 586.693L1140.16 586.693L1140.16 590.423L1136.45 590.423L1136.45 592.912L1140.16 592.912L1140.16 596.637Z" fill="#1B2550" fill-opacity="0.2"/>
<path d="M1269.94 596.637L1272.41 596.637L1272.41 592.912L1276.12 592.912L1276.12 590.423L1272.41 590.423L1272.41 586.693L1269.94 586.693L1269.94 590.423L1266.23 590.423L1266.23 592.912L1269.94 592.912L1269.94 596.637Z" fill="#1B2550" fill-opacity="0.2"/>
<path d="M1399.71 596.637L1402.18 596.637L1402.18 592.912L1405.89 592.912L1405.89 590.423L1402.18 590.423L1402.18 586.693L1399.71 586.693L1399.71 590.423L1396 590.423L1396 592.912L1399.71 592.912L1399.71 596.637Z" fill="#1B2550" fill-opacity="0.2"/>
<path d="M101.983 661.824L104.459 661.824L104.459 658.099L108.17 658.099L108.17 655.611L104.459 655.611L104.459 651.88L101.983 651.88L101.983 655.611L98.272 655.611L98.272 658.099L101.983 658.099L101.983 661.824Z" fill="#1B2550" fill-opacity="0.2"/>
<path d="M231.756 661.824L234.232 661.824L234.232 658.099L237.943 658.099L237.943 655.611L234.232 655.611L234.232 651.88L231.756 651.88L231.756 655.611L228.045 655.611L228.045 658.099L231.756 658.099L231.756 661.824Z" fill="#1B2550" fill-opacity="0.2"/>
<path d="M361.528 661.824L364.004 661.824L364.004 658.099L367.715 658.099L367.715 655.611L364.004 655.611L364.004 651.88L361.528 651.88L361.528 655.611L357.817 655.611L357.817 658.099L361.528 658.099L361.528 661.824Z" fill="#1B2550" fill-opacity="0.2"/>
<path d="M491.3 661.824L493.776 661.824L493.776 658.099L497.487 658.099L497.487 655.611L493.776 655.611L493.776 651.88L491.3 651.88L491.3 655.611L487.589 655.611L487.589 658.099L491.3 658.099L491.3 661.824Z" fill="#1B2550" fill-opacity="0.2"/>
<path d="M621.073 661.824L623.549 661.824L623.549 658.099L627.26 658.099L627.26 655.611L623.549 655.611L623.549 651.88L621.073 651.88L621.073 655.611L617.362 655.611L617.362 658.099L621.073 658.099L621.073 661.824Z" fill="#1B2550" fill-opacity="0.2"/>
<path d="M750.845 661.824L753.321 661.824L753.321 658.099L757.032 658.099L757.032 655.611L753.321 655.611L753.321 651.88L750.845 651.88L750.845 655.611L747.134 655.611L747.134 658.099L750.845 658.099L750.845 661.824Z" fill="#1B2550" fill-opacity="0.2"/>
<path d="M880.618 661.824L883.094 661.824L883.094 658.099L886.805 658.099L886.805 655.611L883.094 655.611L883.094 651.88L880.618 651.88L880.618 655.611L876.907 655.611L876.907 658.099L880.618 658.099L880.618 661.824Z" fill="#1B2550" fill-opacity="0.2"/>
<path d="M1010.39 661.824L1012.87 661.824L1012.87 658.099L1016.58 658.099L1016.58 655.611L1012.87 655.611L1012.87 651.88L1010.39 651.88L1010.39 655.611L1006.68 655.611L1006.68 658.099L1010.39 658.099L1010.39 661.824Z" fill="#1B2550" fill-opacity="0.2"/>
<path d="M1140.16 661.824L1142.64 661.824L1142.64 658.099L1146.35 658.099L1146.35 655.611L1142.64 655.611L1142.64 651.88L1140.16 651.88L1140.16 655.611L1136.45 655.611L1136.45 658.099L1140.16 658.099L1140.16 661.824Z" fill="#1B2550" fill-opacity="0.2"/>
<path d="M1269.94 661.824L1272.41 661.824L1272.41 658.099L1276.12 658.099L1276.12 655.611L1272.41 655.611L1272.41 651.88L1269.94 651.88L1269.94 655.611L1266.23 655.611L1266.23 658.099L1269.94 658.099L1269.94 661.824Z" fill="#1B2550" fill-opacity="0.2"/>
<path d="M1399.71 661.824L1402.18 661.824L1402.18 658.099L1405.89 658.099L1405.89 655.611L1402.18 655.611L1402.18 651.88L1399.71 651.88L1399.71 655.611L1396 655.611L1396 658.099L1399.71 658.099L1399.71 661.824Z" fill="#1B2550" fill-opacity="0.2"/>
<path d="M101.983 727.012L104.459 727.012L104.459 723.287L108.17 723.287L108.17 720.798L104.459 720.798L104.459 717.068L101.983 717.068L101.983 720.798L98.272 720.798L98.272 723.287L101.983 723.287L101.983 727.012Z" fill="#1B2550" fill-opacity="0.2"/>
<path d="M231.756 727.012L234.232 727.012L234.232 723.287L237.943 723.287L237.943 720.798L234.232 720.798L234.232 717.068L231.756 717.068L231.756 720.798L228.045 720.798L228.045 723.287L231.756 723.287L231.756 727.012Z" fill="#1B2550" fill-opacity="0.2"/>
<path d="M361.528 727.012L364.004 727.012L364.004 723.287L367.715 723.287L367.715 720.798L364.004 720.798L364.004 717.068L361.528 717.068L361.528 720.798L357.817 720.798L357.817 723.287L361.528 723.287L361.528 727.012Z" fill="#1B2550" fill-opacity="0.2"/>
<path d="M491.3 727.012L493.776 727.012L493.776 723.287L497.487 723.287L497.487 720.798L493.776 720.798L493.776 717.068L491.3 717.068L491.3 720.798L487.589 720.798L487.589 723.287L491.3 723.287L491.3 727.012Z" fill="#1B2550" fill-opacity="0.2"/>
<path d="M621.073 727.012L623.549 727.012L623.549 723.287L627.26 723.287L627.26 720.798L623.549 720.798L623.549 717.068L621.073 717.068L621.073 720.798L617.362 720.798L617.362 723.287L621.073 723.287L621.073 727.012Z" fill="#1B2550" fill-opacity="0.2"/>
<path d="M750.845 727.013L753.321 727.013L753.321 723.288L757.032 723.288L757.032 720.799L753.321 720.799L753.321 717.069L750.845 717.069L750.845 720.799L747.134 720.799L747.134 723.288L750.845 723.288L750.845 727.013Z" fill="#1B2550" fill-opacity="0.2"/>
<path d="M880.618 727.013L883.094 727.013L883.094 723.288L886.805 723.288L886.805 720.799L883.094 720.799L883.094 717.069L880.618 717.069L880.618 720.799L876.907 720.799L876.907 723.288L880.618 723.288L880.618 727.013Z" fill="#1B2550" fill-opacity="0.2"/>
<path d="M1010.39 727.013L1012.87 727.013L1012.87 723.288L1016.58 723.288L1016.58 720.799L1012.87 720.799L1012.87 717.069L1010.39 717.069L1010.39 720.799L1006.68 720.799L1006.68 723.288L1010.39 723.288L1010.39 727.013Z" fill="#1B2550" fill-opacity="0.2"/>
<path d="M1140.16 727.013L1142.64 727.013L1142.64 723.288L1146.35 723.288L1146.35 720.799L1142.64 720.799L1142.64 717.069L1140.16 717.069L1140.16 720.799L1136.45 720.799L1136.45 723.288L1140.16 723.288L1140.16 727.013Z" fill="#1B2550" fill-opacity="0.2"/>
<path d="M1269.94 727.013L1272.41 727.013L1272.41 723.288L1276.12 723.288L1276.12 720.799L1272.41 720.799L1272.41 717.069L1269.94 717.069L1269.94 720.799L1266.23 720.799L1266.23 723.288L1269.94 723.288L1269.94 727.013Z" fill="#1B2550" fill-opacity="0.2"/>
<path d="M1399.71 727.013L1402.18 727.013L1402.18 723.288L1405.89 723.288L1405.89 720.799L1402.18 720.799L1402.18 717.069L1399.71 717.069L1399.71 720.799L1396 720.799L1396 723.288L1399.71 723.288L1399.71 727.013Z" fill="#1B2550" fill-opacity="0.2"/>
<path d="M37.0971 9.94385L39.5729 9.94385L39.5729 6.21903L43.2839 6.21903L43.2839 3.73027L39.5729 3.73027L39.5729 -9.40878e-05L37.0971 -9.38704e-05L37.0971 3.73027L33.386 3.73027L33.386 6.21903L37.0971 6.21903L37.0971 9.94385Z" fill="#1B2550" fill-opacity="0.2"/>
<path d="M166.87 9.94385L169.346 9.94385L169.346 6.21903L173.057 6.21903L173.057 3.73027L169.346 3.73027L169.346 -9.40878e-05L166.87 -9.38704e-05L166.87 3.73027L163.159 3.73027L163.159 6.21903L166.87 6.21903L166.87 9.94385Z" fill="#1B2550" fill-opacity="0.2"/>
<path d="M296.642 9.94385L299.118 9.94385L299.118 6.21903L302.829 6.21903L302.829 3.73027L299.118 3.73027L299.118 -9.40878e-05L296.642 -9.38704e-05L296.642 3.73027L292.931 3.73027L292.931 6.21903L296.642 6.21903L296.642 9.94385Z" fill="#1B2550" fill-opacity="0.2"/>
<path d="M426.414 9.94385L428.89 9.94385L428.89 6.21903L432.601 6.21903L432.601 3.73027L428.89 3.73027L428.89 -9.40878e-05L426.414 -9.38704e-05L426.414 3.73027L422.703 3.73027L422.703 6.21903L426.414 6.21903L426.414 9.94385Z" fill="#1B2550" fill-opacity="0.2"/>
<path d="M556.186 9.94385L558.662 9.94385L558.662 6.21903L562.373 6.21903L562.373 3.73027L558.662 3.73027L558.662 -9.40878e-05L556.186 -9.38704e-05L556.186 3.73027L552.475 3.73027L552.475 6.21903L556.186 6.21903L556.186 9.94385Z" fill="#1B2550" fill-opacity="0.2"/>
<path d="M685.959 9.94385L688.435 9.94385L688.435 6.21903L692.146 6.21903L692.146 3.73027L688.435 3.73027L688.435 -9.40878e-05L685.959 -9.38704e-05L685.959 3.73027L682.248 3.73027L682.248 6.21903L685.959 6.21903L685.959 9.94385Z" fill="#1B2550" fill-opacity="0.2"/>
<path d="M815.732 9.94385L818.208 9.94385L818.208 6.21903L821.919 6.21903L821.919 3.73027L818.208 3.73027L818.208 -9.40878e-05L815.732 -9.38704e-05L815.732 3.73027L812.021 3.73027L812.021 6.21903L815.732 6.21903L815.732 9.94385Z" fill="#1B2550" fill-opacity="0.2"/>
<path d="M945.504 9.94385L947.98 9.94385L947.98 6.21903L951.691 6.21903L951.691 3.73027L947.98 3.73027L947.98 -9.40878e-05L945.504 -9.38704e-05L945.504 3.73027L941.793 3.73027L941.793 6.21903L945.504 6.21903L945.504 9.94385Z" fill="#1B2550" fill-opacity="0.2"/>
<path d="M1075.28 9.94385L1077.75 9.94385L1077.75 6.21903L1081.46 6.21903L1081.46 3.73027L1077.75 3.73027L1077.75 -9.40878e-05L1075.28 -9.38704e-05L1075.28 3.73027L1071.57 3.73027L1071.57 6.21903L1075.28 6.21903L1075.28 9.94385Z" fill="#1B2550" fill-opacity="0.2"/>
<path d="M1205.05 9.94385L1207.53 9.94385L1207.53 6.21903L1211.24 6.21903L1211.24 3.73027L1207.53 3.73027L1207.53 -9.40878e-05L1205.05 -9.38704e-05L1205.05 3.73027L1201.34 3.73027L1201.34 6.21903L1205.05 6.21903L1205.05 9.94385Z" fill="#1B2550" fill-opacity="0.2"/>
<path d="M1334.82 9.94385L1337.3 9.94385L1337.3 6.21903L1341.01 6.21903L1341.01 3.73027L1337.3 3.73027L1337.3 -9.40878e-05L1334.82 -9.38704e-05L1334.82 3.73027L1331.11 3.73027L1331.11 6.21903L1334.82 6.21903L1334.82 9.94385Z" fill="#1B2550" fill-opacity="0.2"/>
<path d="M37.0971 75.1323L39.5729 75.1323L39.5729 71.4075L43.2839 71.4075L43.2839 68.9187L39.5729 68.9187L39.5729 65.1884L37.0971 65.1884L37.0971 68.9187L33.386 68.9187L33.386 71.4075L37.0971 71.4075L37.0971 75.1323Z" fill="#1B2550" fill-opacity="0.2"/>
<path d="M166.87 75.1323L169.346 75.1323L169.346 71.4075L173.057 71.4075L173.057 68.9187L169.346 68.9187L169.346 65.1884L166.87 65.1884L166.87 68.9187L163.159 68.9187L163.159 71.4075L166.87 71.4075L166.87 75.1323Z" fill="#1B2550" fill-opacity="0.2"/>
<path d="M296.642 75.1323L299.118 75.1323L299.118 71.4075L302.829 71.4075L302.829 68.9187L299.118 68.9187L299.118 65.1884L296.642 65.1884L296.642 68.9187L292.931 68.9187L292.931 71.4075L296.642 71.4075L296.642 75.1323Z" fill="#1B2550" fill-opacity="0.2"/>
<path d="M426.414 75.1323L428.89 75.1323L428.89 71.4075L432.601 71.4075L432.601 68.9187L428.89 68.9187L428.89 65.1884L426.414 65.1884L426.414 68.9187L422.703 68.9187L422.703 71.4075L426.414 71.4075L426.414 75.1323Z" fill="#1B2550" fill-opacity="0.2"/>
<path d="M556.186 75.1323L558.662 75.1323L558.662 71.4075L562.373 71.4075L562.373 68.9187L558.662 68.9187L558.662 65.1884L556.186 65.1884L556.186 68.9187L552.475 68.9187L552.475 71.4075L556.186 71.4075L556.186 75.1323Z" fill="#1B2550" fill-opacity="0.2"/>
<path d="M685.959 75.1323L688.435 75.1323L688.435 71.4075L692.146 71.4075L692.146 68.9187L688.435 68.9187L688.435 65.1884L685.959 65.1884L685.959 68.9187L682.248 68.9187L682.248 71.4075L685.959 71.4075L685.959 75.1323Z" fill="#1B2550" fill-opacity="0.2"/>
<path d="M815.732 75.1323L818.208 75.1323L818.208 71.4075L821.919 71.4075L821.919 68.9187L818.208 68.9187L818.208 65.1884L815.732 65.1884L815.732 68.9187L812.021 68.9187L812.021 71.4075L815.732 71.4075L815.732 75.1323Z" fill="#1B2550" fill-opacity="0.2"/>
<path d="M945.504 75.1323L947.98 75.1323L947.98 71.4075L951.691 71.4075L951.691 68.9187L947.98 68.9187L947.98 65.1884L945.504 65.1884L945.504 68.9187L941.793 68.9187L941.793 71.4075L945.504 71.4075L945.504 75.1323Z" fill="#1B2550" fill-opacity="0.2"/>
<path d="M1075.28 75.1323L1077.75 75.1323L1077.75 71.4075L1081.46 71.4075L1081.46 68.9187L1077.75 68.9187L1077.75 65.1884L1075.28 65.1884L1075.28 68.9187L1071.57 68.9187L1071.57 71.4075L1075.28 71.4075L1075.28 75.1323Z" fill="#1B2550" fill-opacity="0.2"/>
<path d="M1205.05 75.1323L1207.53 75.1323L1207.53 71.4075L1211.24 71.4075L1211.24 68.9187L1207.53 68.9187L1207.53 65.1884L1205.05 65.1884L1205.05 68.9187L1201.34 68.9187L1201.34 71.4075L1205.05 71.4075L1205.05 75.1323Z" fill="#1B2550" fill-opacity="0.2"/>
<path d="M1334.82 75.1323L1337.3 75.1323L1337.3 71.4075L1341.01 71.4075L1341.01 68.9187L1337.3 68.9187L1337.3 65.1884L1334.82 65.1884L1334.82 68.9187L1331.11 68.9187L1331.11 71.4075L1334.82 71.4075L1334.82 75.1323Z" fill="#1B2550" fill-opacity="0.2"/>
<path d="M37.0971 140.319L39.5729 140.319L39.5729 136.595L43.2839 136.595L43.2839 134.106L39.5729 134.106L39.5729 130.375L37.0971 130.375L37.0971 134.106L33.386 134.106L33.386 136.595L37.0971 136.595L37.0971 140.319Z" fill="#1B2550" fill-opacity="0.2"/>
<path d="M166.87 140.319L169.346 140.319L169.346 136.595L173.057 136.595L173.057 134.106L169.346 134.106L169.346 130.375L166.87 130.375L166.87 134.106L163.159 134.106L163.159 136.595L166.87 136.595L166.87 140.319Z" fill="#1B2550" fill-opacity="0.2"/>
<path d="M296.642 140.319L299.118 140.319L299.118 136.595L302.829 136.595L302.829 134.106L299.118 134.106L299.118 130.375L296.642 130.375L296.642 134.106L292.931 134.106L292.931 136.595L296.642 136.595L296.642 140.319Z" fill="#1B2550" fill-opacity="0.2"/>
<path d="M426.414 140.319L428.89 140.319L428.89 136.595L432.601 136.595L432.601 134.106L428.89 134.106L428.89 130.375L426.414 130.375L426.414 134.106L422.703 134.106L422.703 136.595L426.414 136.595L426.414 140.319Z" fill="#1B2550" fill-opacity="0.2"/>
<path d="M556.186 140.319L558.662 140.319L558.662 136.595L562.373 136.595L562.373 134.106L558.662 134.106L558.662 130.375L556.186 130.375L556.186 134.106L552.475 134.106L552.475 136.595L556.186 136.595L556.186 140.319Z" fill="#1B2550" fill-opacity="0.2"/>
<path d="M685.959 140.319L688.435 140.319L688.435 136.595L692.146 136.595L692.146 134.106L688.435 134.106L688.435 130.375L685.959 130.375L685.959 134.106L682.248 134.106L682.248 136.595L685.959 136.595L685.959 140.319Z" fill="#1B2550" fill-opacity="0.2"/>
<path d="M815.732 140.32L818.208 140.32L818.208 136.595L821.919 136.595L821.919 134.107L818.208 134.107L818.208 130.376L815.732 130.376L815.732 134.107L812.021 134.107L812.021 136.595L815.732 136.595L815.732 140.32Z" fill="#1B2550" fill-opacity="0.2"/>
<path d="M945.504 140.32L947.98 140.32L947.98 136.595L951.691 136.595L951.691 134.107L947.98 134.107L947.98 130.376L945.504 130.376L945.504 134.107L941.793 134.107L941.793 136.595L945.504 136.595L945.504 140.32Z" fill="#1B2550" fill-opacity="0.2"/>
<path d="M1075.28 140.32L1077.75 140.32L1077.75 136.595L1081.46 136.595L1081.46 134.107L1077.75 134.107L1077.75 130.376L1075.28 130.376L1075.28 134.107L1071.57 134.107L1071.57 136.595L1075.28 136.595L1075.28 140.32Z" fill="#1B2550" fill-opacity="0.2"/>
<path d="M1205.05 140.32L1207.53 140.32L1207.53 136.595L1211.24 136.595L1211.24 134.107L1207.53 134.107L1207.53 130.376L1205.05 130.376L1205.05 134.107L1201.34 134.107L1201.34 136.595L1205.05 136.595L1205.05 140.32Z" fill="#1B2550" fill-opacity="0.2"/>
<path d="M1334.82 140.32L1337.3 140.32L1337.3 136.595L1341.01 136.595L1341.01 134.107L1337.3 134.107L1337.3 130.376L1334.82 130.376L1334.82 134.107L1331.11 134.107L1331.11 136.595L1334.82 136.595L1334.82 140.32Z" fill="#1B2550" fill-opacity="0.2"/>
<path d="M37.0971 205.508L39.5729 205.508L39.5729 201.783L43.2839 201.783L43.2839 199.294L39.5729 199.294L39.5729 195.564L37.0971 195.564L37.0971 199.294L33.386 199.294L33.386 201.783L37.0971 201.783L37.0971 205.508Z" fill="#1B2550" fill-opacity="0.2"/>
<path d="M166.87 205.508L169.346 205.508L169.346 201.783L173.057 201.783L173.057 199.294L169.346 199.294L169.346 195.564L166.87 195.564L166.87 199.294L163.159 199.294L163.159 201.783L166.87 201.783L166.87 205.508Z" fill="#1B2550" fill-opacity="0.2"/>
<path d="M296.642 205.508L299.118 205.508L299.118 201.783L302.829 201.783L302.829 199.294L299.118 199.294L299.118 195.564L296.642 195.564L296.642 199.294L292.931 199.294L292.931 201.783L296.642 201.783L296.642 205.508Z" fill="#1B2550" fill-opacity="0.2"/>
<path d="M426.414 205.508L428.89 205.508L428.89 201.783L432.601 201.783L432.601 199.294L428.89 199.294L428.89 195.564L426.414 195.564L426.414 199.294L422.703 199.294L422.703 201.783L426.414 201.783L426.414 205.508Z" fill="#1B2550" fill-opacity="0.2"/>
<path d="M556.186 205.508L558.662 205.508L558.662 201.783L562.373 201.783L562.373 199.294L558.662 199.294L558.662 195.564L556.186 195.564L556.186 199.294L552.475 199.294L552.475 201.783L556.186 201.783L556.186 205.508Z" fill="#1B2550" fill-opacity="0.2"/>
<path d="M685.959 205.508L688.435 205.508L688.435 201.783L692.146 201.783L692.146 199.294L688.435 199.294L688.435 195.564L685.959 195.564L685.959 199.294L682.248 199.294L682.248 201.783L685.959 201.783L685.959 205.508Z" fill="#1B2550" fill-opacity="0.2"/>
<path d="M815.732 205.508L818.208 205.508L818.208 201.783L821.919 201.783L821.919 199.294L818.208 199.294L818.208 195.564L815.732 195.564L815.732 199.294L812.021 199.294L812.021 201.783L815.732 201.783L815.732 205.508Z" fill="#1B2550" fill-opacity="0.2"/>
<path d="M945.504 205.508L947.98 205.508L947.98 201.783L951.691 201.783L951.691 199.294L947.98 199.294L947.98 195.564L945.504 195.564L945.504 199.294L941.793 199.294L941.793 201.783L945.504 201.783L945.504 205.508Z" fill="#1B2550" fill-opacity="0.2"/>
<path d="M1075.28 205.508L1077.75 205.508L1077.75 201.783L1081.46 201.783L1081.46 199.294L1077.75 199.294L1077.75 195.564L1075.28 195.564L1075.28 199.294L1071.57 199.294L1071.57 201.783L1075.28 201.783L1075.28 205.508Z" fill="#1B2550" fill-opacity="0.2"/>
<path d="M1205.05 205.508L1207.53 205.508L1207.53 201.783L1211.24 201.783L1211.24 199.294L1207.53 199.294L1207.53 195.564L1205.05 195.564L1205.05 199.294L1201.34 199.294L1201.34 201.783L1205.05 201.783L1205.05 205.508Z" fill="#1B2550" fill-opacity="0.2"/>
<path d="M1334.82 205.508L1337.3 205.508L1337.3 201.783L1341.01 201.783L1341.01 199.294L1337.3 199.294L1337.3 195.564L1334.82 195.564L1334.82 199.294L1331.11 199.294L1331.11 201.783L1334.82 201.783L1334.82 205.508Z" fill="#1B2550" fill-opacity="0.2"/>
<path d="M37.0971 270.695L39.5729 270.695L39.5729 266.97L43.2839 266.97L43.2839 264.482L39.5729 264.482L39.5729 260.751L37.0971 260.751L37.0971 264.482L33.386 264.482L33.386 266.97L37.0971 266.97L37.0971 270.695Z" fill="#1B2550" fill-opacity="0.2"/>
<path d="M166.87 270.695L169.346 270.695L169.346 266.97L173.057 266.97L173.057 264.482L169.346 264.482L169.346 260.751L166.87 260.751L166.87 264.482L163.159 264.482L163.159 266.97L166.87 266.97L166.87 270.695Z" fill="#1B2550" fill-opacity="0.2"/>
<path d="M296.642 270.695L299.118 270.695L299.118 266.97L302.829 266.97L302.829 264.482L299.118 264.482L299.118 260.751L296.642 260.751L296.642 264.482L292.931 264.482L292.931 266.97L296.642 266.97L296.642 270.695Z" fill="#1B2550" fill-opacity="0.2"/>
<path d="M426.414 270.695L428.89 270.695L428.89 266.97L432.601 266.97L432.601 264.482L428.89 264.482L428.89 260.751L426.414 260.751L426.414 264.482L422.703 264.482L422.703 266.97L426.414 266.97L426.414 270.695Z" fill="#1B2550" fill-opacity="0.2"/>
<path d="M556.186 270.695L558.662 270.695L558.662 266.97L562.373 266.97L562.373 264.482L558.662 264.482L558.662 260.751L556.186 260.751L556.186 264.482L552.475 264.482L552.475 266.97L556.186 266.97L556.186 270.695Z" fill="#1B2550" fill-opacity="0.2"/>
<path d="M685.959 270.695L688.435 270.695L688.435 266.97L692.146 266.97L692.146 264.482L688.435 264.482L688.435 260.751L685.959 260.751L685.959 264.482L682.248 264.482L682.248 266.97L685.959 266.97L685.959 270.695Z" fill="#1B2550" fill-opacity="0.2"/>
<path d="M815.732 270.696L818.208 270.696L818.208 266.971L821.919 266.971L821.919 264.483L818.208 264.483L818.208 260.752L815.732 260.752L815.732 264.483L812.021 264.483L812.021 266.971L815.732 266.971L815.732 270.696Z" fill="#1B2550" fill-opacity="0.2"/>
<path d="M945.504 270.696L947.98 270.696L947.98 266.971L951.691 266.971L951.691 264.483L947.98 264.483L947.98 260.752L945.504 260.752L945.504 264.483L941.793 264.483L941.793 266.971L945.504 266.971L945.504 270.696Z" fill="#1B2550" fill-opacity="0.2"/>
<path d="M1075.28 270.696L1077.75 270.696L1077.75 266.971L1081.46 266.971L1081.46 264.483L1077.75 264.483L1077.75 260.752L1075.28 260.752L1075.28 264.483L1071.57 264.483L1071.57 266.971L1075.28 266.971L1075.28 270.696Z" fill="#1B2550" fill-opacity="0.2"/>
<path d="M1205.05 270.696L1207.53 270.696L1207.53 266.971L1211.24 266.971L1211.24 264.483L1207.53 264.483L1207.53 260.752L1205.05 260.752L1205.05 264.483L1201.34 264.483L1201.34 266.971L1205.05 266.971L1205.05 270.696Z" fill="#1B2550" fill-opacity="0.2"/>
<path d="M1334.82 270.696L1337.3 270.696L1337.3 266.971L1341.01 266.971L1341.01 264.483L1337.3 264.483L1337.3 260.752L1334.82 260.752L1334.82 264.483L1331.11 264.483L1331.11 266.971L1334.82 266.971L1334.82 270.696Z" fill="#1B2550" fill-opacity="0.2"/>
<path d="M37.0971 335.884L39.5729 335.884L39.5729 332.159L43.2839 332.159L43.2839 329.67L39.5729 329.67L39.5729 325.94L37.0971 325.94L37.0971 329.67L33.386 329.67L33.386 332.159L37.0971 332.159L37.0971 335.884Z" fill="#1B2550" fill-opacity="0.2"/>
<path d="M166.87 335.884L169.346 335.884L169.346 332.159L173.057 332.159L173.057 329.67L169.346 329.67L169.346 325.94L166.87 325.94L166.87 329.67L163.159 329.67L163.159 332.159L166.87 332.159L166.87 335.884Z" fill="#1B2550" fill-opacity="0.2"/>
<path d="M296.642 335.884L299.118 335.884L299.118 332.159L302.829 332.159L302.829 329.67L299.118 329.67L299.118 325.94L296.642 325.94L296.642 329.67L292.931 329.67L292.931 332.159L296.642 332.159L296.642 335.884Z" fill="#1B2550" fill-opacity="0.2"/>
<path d="M426.414 335.884L428.89 335.884L428.89 332.159L432.601 332.159L432.601 329.67L428.89 329.67L428.89 325.94L426.414 325.94L426.414 329.67L422.703 329.67L422.703 332.159L426.414 332.159L426.414 335.884Z" fill="#1B2550" fill-opacity="0.2"/>
<path d="M556.186 335.884L558.662 335.884L558.662 332.159L562.373 332.159L562.373 329.67L558.662 329.67L558.662 325.94L556.186 325.94L556.186 329.67L552.475 329.67L552.475 332.159L556.186 332.159L556.186 335.884Z" fill="#1B2550" fill-opacity="0.2"/>
<path d="M685.959 335.884L688.435 335.884L688.435 332.159L692.146 332.159L692.146 329.67L688.435 329.67L688.435 325.94L685.959 325.94L685.959 329.67L682.248 329.67L682.248 332.159L685.959 332.159L685.959 335.884Z" fill="#1B2550" fill-opacity="0.2"/>
<path d="M815.732 335.884L818.208 335.884L818.208 332.159L821.919 332.159L821.919 329.67L818.208 329.67L818.208 325.94L815.732 325.94L815.732 329.67L812.021 329.67L812.021 332.159L815.732 332.159L815.732 335.884Z" fill="#1B2550" fill-opacity="0.2"/>
<path d="M945.504 335.884L947.98 335.884L947.98 332.159L951.691 332.159L951.691 329.67L947.98 329.67L947.98 325.94L945.504 325.94L945.504 329.67L941.793 329.67L941.793 332.159L945.504 332.159L945.504 335.884Z" fill="#1B2550" fill-opacity="0.2"/>
<path d="M1075.28 335.884L1077.75 335.884L1077.75 332.159L1081.46 332.159L1081.46 329.67L1077.75 329.67L1077.75 325.94L1075.28 325.94L1075.28 329.67L1071.57 329.67L1071.57 332.159L1075.28 332.159L1075.28 335.884Z" fill="#1B2550" fill-opacity="0.2"/>
<path d="M1205.05 335.884L1207.53 335.884L1207.53 332.159L1211.24 332.159L1211.24 329.67L1207.53 329.67L1207.53 325.94L1205.05 325.94L1205.05 329.67L1201.34 329.67L1201.34 332.159L1205.05 332.159L1205.05 335.884Z" fill="#1B2550" fill-opacity="0.2"/>
<path d="M1334.82 335.884L1337.3 335.884L1337.3 332.159L1341.01 332.159L1341.01 329.67L1337.3 329.67L1337.3 325.94L1334.82 325.94L1334.82 329.67L1331.11 329.67L1331.11 332.159L1334.82 332.159L1334.82 335.884Z" fill="#1B2550" fill-opacity="0.2"/>
<path d="M37.0971 401.072L39.5729 401.072L39.5729 397.347L43.2839 397.347L43.2839 394.858L39.5729 394.858L39.5729 391.128L37.0971 391.128L37.0971 394.858L33.386 394.858L33.386 397.347L37.0971 397.347L37.0971 401.072Z" fill="#1B2550" fill-opacity="0.2"/>
<path d="M166.87 401.072L169.346 401.072L169.346 397.347L173.057 397.347L173.057 394.858L169.346 394.858L169.346 391.128L166.87 391.128L166.87 394.858L163.159 394.858L163.159 397.347L166.87 397.347L166.87 401.072Z" fill="#1B2550" fill-opacity="0.2"/>
<path d="M296.642 401.072L299.118 401.072L299.118 397.347L302.829 397.347L302.829 394.858L299.118 394.858L299.118 391.128L296.642 391.128L296.642 394.858L292.931 394.858L292.931 397.347L296.642 397.347L296.642 401.072Z" fill="#1B2550" fill-opacity="0.2"/>
<path d="M426.414 401.072L428.89 401.072L428.89 397.347L432.601 397.347L432.601 394.858L428.89 394.858L428.89 391.128L426.414 391.128L426.414 394.858L422.703 394.858L422.703 397.347L426.414 397.347L426.414 401.072Z" fill="#1B2550" fill-opacity="0.2"/>
<path d="M556.186 401.072L558.662 401.072L558.662 397.347L562.373 397.347L562.373 394.858L558.662 394.858L558.662 391.128L556.186 391.128L556.186 394.858L552.475 394.858L552.475 397.347L556.186 397.347L556.186 401.072Z" fill="#1B2550" fill-opacity="0.2"/>
<path d="M685.959 401.072L688.435 401.072L688.435 397.347L692.146 397.347L692.146 394.858L688.435 394.858L688.435 391.128L685.959 391.128L685.959 394.858L682.248 394.858L682.248 397.347L685.959 397.347L685.959 401.072Z" fill="#1B2550" fill-opacity="0.2"/>
<path d="M815.732 401.072L818.208 401.072L818.208 397.347L821.919 397.347L821.919 394.858L818.208 394.858L818.208 391.128L815.732 391.128L815.732 394.858L812.021 394.858L812.021 397.347L815.732 397.347L815.732 401.072Z" fill="#1B2550" fill-opacity="0.2"/>
<path d="M945.504 401.072L947.98 401.072L947.98 397.347L951.691 397.347L951.691 394.858L947.98 394.858L947.98 391.128L945.504 391.128L945.504 394.858L941.793 394.858L941.793 397.347L945.504 397.347L945.504 401.072Z" fill="#1B2550" fill-opacity="0.2"/>
<path d="M1075.28 401.072L1077.75 401.072L1077.75 397.347L1081.46 397.347L1081.46 394.858L1077.75 394.858L1077.75 391.128L1075.28 391.128L1075.28 394.858L1071.57 394.858L1071.57 397.347L1075.28 397.347L1075.28 401.072Z" fill="#1B2550" fill-opacity="0.2"/>
<path d="M1205.05 401.072L1207.53 401.072L1207.53 397.347L1211.24 397.347L1211.24 394.858L1207.53 394.858L1207.53 391.128L1205.05 391.128L1205.05 394.858L1201.34 394.858L1201.34 397.347L1205.05 397.347L1205.05 401.072Z" fill="#1B2550" fill-opacity="0.2"/>
<path d="M1334.82 401.072L1337.3 401.072L1337.3 397.347L1341.01 397.347L1341.01 394.858L1337.3 394.858L1337.3 391.128L1334.82 391.128L1334.82 394.858L1331.11 394.858L1331.11 397.347L1334.82 397.347L1334.82 401.072Z" fill="#1B2550" fill-opacity="0.2"/>
<path d="M37.0971 466.26L39.5729 466.26L39.5729 462.535L43.2839 462.535L43.2839 460.047L39.5729 460.047L39.5729 456.316L37.0971 456.316L37.0971 460.047L33.386 460.047L33.386 462.535L37.0971 462.535L37.0971 466.26Z" fill="#1B2550" fill-opacity="0.2"/>
<path d="M166.87 466.26L169.346 466.26L169.346 462.535L173.057 462.535L173.057 460.047L169.346 460.047L169.346 456.316L166.87 456.316L166.87 460.047L163.159 460.047L163.159 462.535L166.87 462.535L166.87 466.26Z" fill="#1B2550" fill-opacity="0.2"/>
<path d="M296.642 466.26L299.118 466.26L299.118 462.535L302.829 462.535L302.829 460.047L299.118 460.047L299.118 456.316L296.642 456.316L296.642 460.047L292.931 460.047L292.931 462.535L296.642 462.535L296.642 466.26Z" fill="#1B2550" fill-opacity="0.2"/>
<path d="M426.414 466.26L428.89 466.26L428.89 462.535L432.601 462.535L432.601 460.047L428.89 460.047L428.89 456.316L426.414 456.316L426.414 460.047L422.703 460.047L422.703 462.535L426.414 462.535L426.414 466.26Z" fill="#1B2550" fill-opacity="0.2"/>
<path d="M556.186 466.26L558.662 466.26L558.662 462.535L562.373 462.535L562.373 460.047L558.662 460.047L558.662 456.316L556.186 456.316L556.186 460.047L552.475 460.047L552.475 462.535L556.186 462.535L556.186 466.26Z" fill="#1B2550" fill-opacity="0.2"/>
<path d="M685.959 466.26L688.435 466.26L688.435 462.535L692.146 462.535L692.146 460.047L688.435 460.047L688.435 456.316L685.959 456.316L685.959 460.047L682.248 460.047L682.248 462.535L685.959 462.535L685.959 466.26Z" fill="#1B2550" fill-opacity="0.2"/>
<path d="M815.732 466.26L818.208 466.26L818.208 462.535L821.919 462.535L821.919 460.047L818.208 460.047L818.208 456.316L815.732 456.316L815.732 460.047L812.021 460.047L812.021 462.535L815.732 462.535L815.732 466.26Z" fill="#1B2550" fill-opacity="0.2"/>
<path d="M945.504 466.26L947.98 466.26L947.98 462.535L951.691 462.535L951.691 460.047L947.98 460.047L947.98 456.316L945.504 456.316L945.504 460.047L941.793 460.047L941.793 462.535L945.504 462.535L945.504 466.26Z" fill="#1B2550" fill-opacity="0.2"/>
<path d="M1075.28 466.26L1077.75 466.26L1077.75 462.535L1081.46 462.535L1081.46 460.047L1077.75 460.047L1077.75 456.316L1075.28 456.316L1075.28 460.047L1071.57 460.047L1071.57 462.535L1075.28 462.535L1075.28 466.26Z" fill="#1B2550" fill-opacity="0.2"/>
<path d="M1205.05 466.26L1207.53 466.26L1207.53 462.535L1211.24 462.535L1211.24 460.047L1207.53 460.047L1207.53 456.316L1205.05 456.316L1205.05 460.047L1201.34 460.047L1201.34 462.535L1205.05 462.535L1205.05 466.26Z" fill="#1B2550" fill-opacity="0.2"/>
<path d="M1334.82 466.26L1337.3 466.26L1337.3 462.535L1341.01 462.535L1341.01 460.047L1337.3 460.047L1337.3 456.316L1334.82 456.316L1334.82 460.047L1331.11 460.047L1331.11 462.535L1334.82 462.535L1334.82 466.26Z" fill="#1B2550" fill-opacity="0.2"/>
<path d="M37.0971 531.448L39.5729 531.448L39.5729 527.723L43.2839 527.723L43.2839 525.235L39.5729 525.235L39.5729 521.504L37.0971 521.504L37.0971 525.235L33.386 525.235L33.386 527.723L37.0971 527.723L37.0971 531.448Z" fill="#1B2550" fill-opacity="0.2"/>
<path d="M166.87 531.448L169.346 531.448L169.346 527.723L173.057 527.723L173.057 525.235L169.346 525.235L169.346 521.504L166.87 521.504L166.87 525.235L163.159 525.235L163.159 527.723L166.87 527.723L166.87 531.448Z" fill="#1B2550" fill-opacity="0.2"/>
<path d="M296.642 531.448L299.118 531.448L299.118 527.723L302.829 527.723L302.829 525.235L299.118 525.235L299.118 521.504L296.642 521.504L296.642 525.235L292.931 525.235L292.931 527.723L296.642 527.723L296.642 531.448Z" fill="#1B2550" fill-opacity="0.2"/>
<path d="M426.414 531.448L428.89 531.448L428.89 527.723L432.601 527.723L432.601 525.235L428.89 525.235L428.89 521.504L426.414 521.504L426.414 525.235L422.703 525.235L422.703 527.723L426.414 527.723L426.414 531.448Z" fill="#1B2550" fill-opacity="0.2"/>
<path d="M556.186 531.448L558.662 531.448L558.662 527.723L562.373 527.723L562.373 525.235L558.662 525.235L558.662 521.504L556.186 521.504L556.186 525.235L552.475 525.235L552.475 527.723L556.186 527.723L556.186 531.448Z" fill="#1B2550" fill-opacity="0.2"/>
<path d="M685.959 531.448L688.435 531.448L688.435 527.723L692.146 527.723L692.146 525.235L688.435 525.235L688.435 521.504L685.959 521.504L685.959 525.235L682.248 525.235L682.248 527.723L685.959 527.723L685.959 531.448Z" fill="#1B2550" fill-opacity="0.2"/>
<path d="M815.732 531.448L818.208 531.448L818.208 527.723L821.919 527.723L821.919 525.235L818.208 525.235L818.208 521.504L815.732 521.504L815.732 525.235L812.021 525.235L812.021 527.723L815.732 527.723L815.732 531.448Z" fill="#1B2550" fill-opacity="0.2"/>
<path d="M945.504 531.448L947.98 531.448L947.98 527.723L951.691 527.723L951.691 525.235L947.98 525.235L947.98 521.504L945.504 521.504L945.504 525.235L941.793 525.235L941.793 527.723L945.504 527.723L945.504 531.448Z" fill="#1B2550" fill-opacity="0.2"/>
<path d="M1075.28 531.448L1077.75 531.448L1077.75 527.723L1081.46 527.723L1081.46 525.235L1077.75 525.235L1077.75 521.504L1075.28 521.504L1075.28 525.235L1071.57 525.235L1071.57 527.723L1075.28 527.723L1075.28 531.448Z" fill="#1B2550" fill-opacity="0.2"/>
<path d="M1205.05 531.448L1207.53 531.448L1207.53 527.723L1211.24 527.723L1211.24 525.235L1207.53 525.235L1207.53 521.504L1205.05 521.504L1205.05 525.235L1201.34 525.235L1201.34 527.723L1205.05 527.723L1205.05 531.448Z" fill="#1B2550" fill-opacity="0.2"/>
<path d="M1334.82 531.448L1337.3 531.448L1337.3 527.723L1341.01 527.723L1341.01 525.235L1337.3 525.235L1337.3 521.504L1334.82 521.504L1334.82 525.235L1331.11 525.235L1331.11 527.723L1334.82 527.723L1334.82 531.448Z" fill="#1B2550" fill-opacity="0.2"/>
<path d="M37.0971 596.637L39.5729 596.637L39.5729 592.912L43.2839 592.912L43.2839 590.423L39.5729 590.423L39.5729 586.693L37.0971 586.693L37.0971 590.423L33.386 590.423L33.386 592.912L37.0971 592.912L37.0971 596.637Z" fill="#1B2550" fill-opacity="0.2"/>
<path d="M166.87 596.637L169.346 596.637L169.346 592.912L173.057 592.912L173.057 590.423L169.346 590.423L169.346 586.693L166.87 586.693L166.87 590.423L163.159 590.423L163.159 592.912L166.87 592.912L166.87 596.637Z" fill="#1B2550" fill-opacity="0.2"/>
<path d="M296.642 596.637L299.118 596.637L299.118 592.912L302.829 592.912L302.829 590.423L299.118 590.423L299.118 586.693L296.642 586.693L296.642 590.423L292.931 590.423L292.931 592.912L296.642 592.912L296.642 596.637Z" fill="#1B2550" fill-opacity="0.2"/>
<path d="M426.414 596.637L428.89 596.637L428.89 592.912L432.601 592.912L432.601 590.423L428.89 590.423L428.89 586.693L426.414 586.693L426.414 590.423L422.703 590.423L422.703 592.912L426.414 592.912L426.414 596.637Z" fill="#1B2550" fill-opacity="0.2"/>
<path d="M556.186 596.637L558.662 596.637L558.662 592.912L562.373 592.912L562.373 590.423L558.662 590.423L558.662 586.693L556.186 586.693L556.186 590.423L552.475 590.423L552.475 592.912L556.186 592.912L556.186 596.637Z" fill="#1B2550" fill-opacity="0.2"/>
<path d="M685.959 596.637L688.435 596.637L688.435 592.912L692.146 592.912L692.146 590.423L688.435 590.423L688.435 586.693L685.959 586.693L685.959 590.423L682.248 590.423L682.248 592.912L685.959 592.912L685.959 596.637Z" fill="#1B2550" fill-opacity="0.2"/>
<path d="M815.732 596.637L818.208 596.637L818.208 592.912L821.919 592.912L821.919 590.423L818.208 590.423L818.208 586.693L815.732 586.693L815.732 590.423L812.021 590.423L812.021 592.912L815.732 592.912L815.732 596.637Z" fill="#1B2550" fill-opacity="0.2"/>
<path d="M945.504 596.637L947.98 596.637L947.98 592.912L951.691 592.912L951.691 590.423L947.98 590.423L947.98 586.693L945.504 586.693L945.504 590.423L941.793 590.423L941.793 592.912L945.504 592.912L945.504 596.637Z" fill="#1B2550" fill-opacity="0.2"/>
<path d="M1075.28 596.637L1077.75 596.637L1077.75 592.912L1081.46 592.912L1081.46 590.423L1077.75 590.423L1077.75 586.693L1075.28 586.693L1075.28 590.423L1071.57 590.423L1071.57 592.912L1075.28 592.912L1075.28 596.637Z" fill="#1B2550" fill-opacity="0.2"/>
<path d="M1205.05 596.637L1207.53 596.637L1207.53 592.912L1211.24 592.912L1211.24 590.423L1207.53 590.423L1207.53 586.693L1205.05 586.693L1205.05 590.423L1201.34 590.423L1201.34 592.912L1205.05 592.912L1205.05 596.637Z" fill="#1B2550" fill-opacity="0.2"/>
<path d="M1334.82 596.637L1337.3 596.637L1337.3 592.912L1341.01 592.912L1341.01 590.423L1337.3 590.423L1337.3 586.693L1334.82 586.693L1334.82 590.423L1331.11 590.423L1331.11 592.912L1334.82 592.912L1334.82 596.637Z" fill="#1B2550" fill-opacity="0.2"/>
<path d="M37.0971 661.824L39.5729 661.824L39.5729 658.099L43.2839 658.099L43.2839 655.611L39.5729 655.611L39.5729 651.88L37.0971 651.88L37.0971 655.611L33.386 655.611L33.386 658.099L37.0971 658.099L37.0971 661.824Z" fill="#1B2550" fill-opacity="0.2"/>
<path d="M166.87 661.824L169.346 661.824L169.346 658.099L173.057 658.099L173.057 655.611L169.346 655.611L169.346 651.88L166.87 651.88L166.87 655.611L163.159 655.611L163.159 658.099L166.87 658.099L166.87 661.824Z" fill="#1B2550" fill-opacity="0.2"/>
<path d="M296.642 661.824L299.118 661.824L299.118 658.099L302.829 658.099L302.829 655.611L299.118 655.611L299.118 651.88L296.642 651.88L296.642 655.611L292.931 655.611L292.931 658.099L296.642 658.099L296.642 661.824Z" fill="#1B2550" fill-opacity="0.2"/>
<path d="M426.414 661.824L428.89 661.824L428.89 658.099L432.601 658.099L432.601 655.611L428.89 655.611L428.89 651.88L426.414 651.88L426.414 655.611L422.703 655.611L422.703 658.099L426.414 658.099L426.414 661.824Z" fill="#1B2550" fill-opacity="0.2"/>
<path d="M556.186 661.824L558.662 661.824L558.662 658.099L562.373 658.099L562.373 655.611L558.662 655.611L558.662 651.88L556.186 651.88L556.186 655.611L552.475 655.611L552.475 658.099L556.186 658.099L556.186 661.824Z" fill="#1B2550" fill-opacity="0.2"/>
<path d="M685.959 661.824L688.435 661.824L688.435 658.099L692.146 658.099L692.146 655.611L688.435 655.611L688.435 651.88L685.959 651.88L685.959 655.611L682.248 655.611L682.248 658.099L685.959 658.099L685.959 661.824Z" fill="#1B2550" fill-opacity="0.2"/>
<path d="M815.732 661.824L818.208 661.824L818.208 658.099L821.919 658.099L821.919 655.611L818.208 655.611L818.208 651.88L815.732 651.88L815.732 655.611L812.021 655.611L812.021 658.099L815.732 658.099L815.732 661.824Z" fill="#1B2550" fill-opacity="0.2"/>
<path d="M945.504 661.824L947.98 661.824L947.98 658.099L951.691 658.099L951.691 655.611L947.98 655.611L947.98 651.88L945.504 651.88L945.504 655.611L941.793 655.611L941.793 658.099L945.504 658.099L945.504 661.824Z" fill="#1B2550" fill-opacity="0.2"/>
<path d="M1075.28 661.824L1077.75 661.824L1077.75 658.099L1081.46 658.099L1081.46 655.611L1077.75 655.611L1077.75 651.88L1075.28 651.88L1075.28 655.611L1071.57 655.611L1071.57 658.099L1075.28 658.099L1075.28 661.824Z" fill="#1B2550" fill-opacity="0.2"/>
<path d="M1205.05 661.824L1207.53 661.824L1207.53 658.099L1211.24 658.099L1211.24 655.611L1207.53 655.611L1207.53 651.88L1205.05 651.88L1205.05 655.611L1201.34 655.611L1201.34 658.099L1205.05 658.099L1205.05 661.824Z" fill="#1B2550" fill-opacity="0.2"/>
<path d="M1334.82 661.824L1337.3 661.824L1337.3 658.099L1341.01 658.099L1341.01 655.611L1337.3 655.611L1337.3 651.88L1334.82 651.88L1334.82 655.611L1331.11 655.611L1331.11 658.099L1334.82 658.099L1334.82 661.824Z" fill="#1B2550" fill-opacity="0.2"/>
<path d="M37.0971 727.012L39.5729 727.012L39.5729 723.287L43.2839 723.287L43.2839 720.798L39.5729 720.798L39.5729 717.068L37.0971 717.068L37.0971 720.798L33.386 720.798L33.386 723.287L37.0971 723.287L37.0971 727.012Z" fill="#1B2550" fill-opacity="0.2"/>
<path d="M166.87 727.012L169.346 727.012L169.346 723.287L173.057 723.287L173.057 720.798L169.346 720.798L169.346 717.068L166.87 717.068L166.87 720.798L163.159 720.798L163.159 723.287L166.87 723.287L166.87 727.012Z" fill="#1B2550" fill-opacity="0.2"/>
<path d="M296.642 727.012L299.118 727.012L299.118 723.287L302.829 723.287L302.829 720.798L299.118 720.798L299.118 717.068L296.642 717.068L296.642 720.798L292.931 720.798L292.931 723.287L296.642 723.287L296.642 727.012Z" fill="#1B2550" fill-opacity="0.2"/>
<path d="M426.414 727.012L428.89 727.012L428.89 723.287L432.601 723.287L432.601 720.798L428.89 720.798L428.89 717.068L426.414 717.068L426.414 720.798L422.703 720.798L422.703 723.287L426.414 723.287L426.414 727.012Z" fill="#1B2550" fill-opacity="0.2"/>
<path d="M556.186 727.012L558.662 727.012L558.662 723.287L562.373 723.287L562.373 720.798L558.662 720.798L558.662 717.068L556.186 717.068L556.186 720.798L552.475 720.798L552.475 723.287L556.186 723.287L556.186 727.012Z" fill="#1B2550" fill-opacity="0.2"/>
<path d="M685.959 727.012L688.435 727.012L688.435 723.287L692.146 723.287L692.146 720.798L688.435 720.798L688.435 717.068L685.959 717.068L685.959 720.798L682.248 720.798L682.248 723.287L685.959 723.287L685.959 727.012Z" fill="#1B2550" fill-opacity="0.2"/>
<path d="M815.732 727.013L818.208 727.013L818.208 723.288L821.919 723.288L821.919 720.799L818.208 720.799L818.208 717.069L815.732 717.069L815.732 720.799L812.021 720.799L812.021 723.288L815.732 723.288L815.732 727.013Z" fill="#1B2550" fill-opacity="0.2"/>
<path d="M945.504 727.013L947.98 727.013L947.98 723.288L951.691 723.288L951.691 720.799L947.98 720.799L947.98 717.069L945.504 717.069L945.504 720.799L941.793 720.799L941.793 723.288L945.504 723.288L945.504 727.013Z" fill="#1B2550" fill-opacity="0.2"/>
<path d="M1075.28 727.013L1077.75 727.013L1077.75 723.288L1081.46 723.288L1081.46 720.799L1077.75 720.799L1077.75 717.069L1075.28 717.069L1075.28 720.799L1071.57 720.799L1071.57 723.288L1075.28 723.288L1075.28 727.013Z" fill="#1B2550" fill-opacity="0.2"/>
<path d="M1205.05 727.013L1207.53 727.013L1207.53 723.288L1211.24 723.288L1211.24 720.799L1207.53 720.799L1207.53 717.069L1205.05 717.069L1205.05 720.799L1201.34 720.799L1201.34 723.288L1205.05 723.288L1205.05 727.013Z" fill="#1B2550" fill-opacity="0.2"/>
<path d="M1334.82 727.013L1337.3 727.013L1337.3 723.288L1341.01 723.288L1341.01 720.799L1337.3 720.799L1337.3 717.069L1334.82 717.069L1334.82 720.799L1331.11 720.799L1331.11 723.288L1334.82 723.288L1334.82 727.013Z" fill="#1B2550" fill-opacity="0.2"/>
</svg>
