<svg width="30" height="30" viewBox="0 0 30 30" fill="none" xmlns="http://www.w3.org/2000/svg">
                                                    <g clip-path="url(#a)">
                                                        <path d="M27.188.703H2.813a2.09 2.09 0 0 0-2.11 2.063v24.473a2.09 2.09 0 0 0 2.11 2.058h24.375a2.093 2.093 0 0 0 2.109-2.065V2.76a2.093 2.093 0 0 0-2.11-2.056" fill="#0076B2"></path>
                                                        <path d="M4.936 11.421H9.18v13.657H4.936zm2.123-6.796a2.46 2.46 0 1 1 0 4.921 2.46 2.46 0 0 1 0-4.921m4.784 6.796h4.068v1.875h.057c.567-1.073 1.95-2.205 4.015-2.205 4.298-.01 5.095 2.82 5.095 6.487v7.5h-4.245v-6.644c0-1.582-.028-3.619-2.205-3.619s-2.548 1.725-2.548 3.516v6.747h-4.237z" fill="#fff"></path>
                                                    </g>
                                                    <defs>
                                                        <clipPath id="a">
                                                            <path fill="#fff" d="M0 0h30v30H0z"></path>
                                                        </clipPath>
                                                    </defs>
                                                </svg>