<svg width="20" height="20" viewBox="0 0 20 20" fill="none" xmlns="http://www.w3.org/2000/svg">
<path fill-rule="evenodd" clip-rule="evenodd" d="M2.43749 10.1482C2.43749 11.3136 2.69617 12.4187 3.15925 13.4091C2.19758 12.1721 1.625 10.6181 1.625 8.93043C1.625 4.89493 4.89891 1.62354 8.9375 1.62354C10.6265 1.62354 12.1817 2.19568 13.4196 3.15661C12.4284 2.69384 11.3225 2.4354 10.1562 2.4354C5.89329 2.4354 2.43749 5.88856 2.43749 10.1482ZM17.875 10.5542C17.875 14.5897 14.6011 17.8611 10.5625 17.8611C6.52388 17.8611 3.24997 14.5897 3.24997 10.5542C3.24997 6.51866 6.52388 3.24726 10.5625 3.24726C14.6011 3.24726 17.875 6.51866 17.875 10.5542ZM4.85823 10.5542C4.85823 13.7021 7.41212 16.254 10.5625 16.254C13.7129 16.254 16.2667 13.7021 16.2667 10.5542C16.2667 7.40618 13.7129 4.85429 10.5625 4.85429C7.41208 4.85429 4.85823 7.40622 4.85823 10.5542ZM13.5744 8.6925L12.4255 7.54452L10.5625 9.40614L8.69939 7.54452L7.55052 8.6925L9.41357 10.5542L7.55052 12.4158L8.69939 13.5638L10.5625 11.7021L12.4255 13.5638L13.5744 12.4158L11.7113 10.5542L13.5744 8.6925Z" fill="white"/>
</svg>
