<svg width="55" height="57" viewBox="0 0 55 57" fill="none" xmlns="http://www.w3.org/2000/svg">
<g clip-path="url(#clip0_1259_6462)">
<path d="M30.22 1.92969H28.395V6.49219H30.22V1.92969Z" fill="white" fill-opacity="0.5"/>
<path d="M9.89593 8.60212L8.60547 9.89258L12.2833 13.5704L13.5737 12.2799L9.89593 8.60212Z" fill="white" fill-opacity="0.5"/>
<path d="M19.1879 3.37575L17.5557 4.19189L19.392 7.86452L21.0243 7.04838L19.1879 3.37575Z" fill="white" fill-opacity="0.5"/>
<path d="M4.0131 17.4776L3.43604 19.209L8.88988 21.0267L9.46694 19.2954L4.0131 17.4776Z" fill="white" fill-opacity="0.5"/>
<path d="M11.0576 25.6545V27.2057C11.0576 32.8632 13.6126 38.247 17.9926 41.897L19.0876 42.8095C21.0039 44.3607 22.0076 46.642 22.0076 49.1057V53.942C22.0076 55.4932 23.1939 56.6795 24.7451 56.6795H33.8701C35.4214 56.6795 36.6076 55.4932 36.6076 53.942V49.1057C36.6076 46.642 37.7026 44.3607 39.5276 42.8095L40.6226 41.897C45.0026 38.247 47.5576 32.8632 47.5576 27.2057V25.6545C47.5576 18.7195 43.3601 12.332 36.9726 9.68574L36.7901 9.59449C32.0451 7.58699 26.6614 7.58699 21.9164 9.59449L21.7339 9.68574C15.2551 12.332 11.0576 18.6282 11.0576 25.6545ZM23.7414 47.5545H34.9651C34.8739 48.102 34.8739 48.5582 34.8739 49.1057V50.292H23.8326V49.1057C23.8326 48.5582 23.7414 48.102 23.7414 47.5545ZM33.8701 54.8545H24.7451C24.1976 54.8545 23.8326 54.4895 23.8326 53.942V52.117H34.7826V53.942C34.7826 54.4895 34.4176 54.8545 33.8701 54.8545ZM22.3726 11.3282L22.5551 11.237C26.8439 9.41199 31.6801 9.41199 35.9689 11.237L36.1514 11.3282C41.9914 13.7007 45.7326 19.3582 45.7326 25.6545V27.2057C45.7326 32.3157 43.4514 37.2432 39.5276 40.5282L38.4326 41.4407C37.0639 42.627 35.9689 44.087 35.4214 45.8207H30.2201V39.0682L21.4601 30.217H23.4676L25.6576 25.837L29.2164 32.9545L32.8664 27.4795L34.2351 30.217H37.1551L31.4064 35.9657L32.6839 37.2432L39.7101 30.217H43.9076V28.392H41.1701C42.8126 25.5632 42.2651 21.9132 39.9839 19.632C38.5239 18.172 36.6989 17.442 34.7826 17.442C32.8664 17.442 30.9501 18.172 29.5814 19.632L29.3076 19.8145L29.0339 19.5407C26.2051 16.712 21.5514 16.712 18.7226 19.5407C16.3501 21.822 15.8939 25.472 17.5364 28.3007H14.7989V30.1257H18.9964L28.3951 39.707V45.7295H23.2851C22.6464 43.9957 21.6426 42.5357 20.2739 41.3495L19.1789 40.437C15.2551 37.152 12.9739 32.2245 12.9739 27.1145V25.6545C12.8826 19.3582 16.6239 13.7007 22.3726 11.3282ZM18.5401 26.3845C17.9926 24.4682 18.5401 22.3695 19.9089 20.9095C22.0076 18.7195 25.5664 18.7195 27.6651 20.9095L29.2164 22.4607L30.7676 20.9095C32.8664 18.7195 36.4251 18.7195 38.5239 20.9095C40.5314 23.0082 40.6226 26.202 38.7976 28.392H35.2389L32.9576 23.8295L29.3076 29.3045L25.6576 21.822L22.3726 28.392H19.7264C19.1789 27.8445 18.8139 27.1145 18.5401 26.3845Z" fill="white" fill-opacity="0.5"/>
<path d="M7.40762 28.3921H1.93262V30.2171H7.40762V28.3921Z" fill="white" fill-opacity="0.5"/>
<path d="M9.54548 36.8256L5.86768 40.5034L7.15813 41.7939L10.8359 38.1161L9.54548 36.8256Z" fill="white" fill-opacity="0.5"/>
<path d="M48.7828 8.53802L45.105 12.2158L46.3954 13.5063L50.0732 9.82847L48.7828 8.53802Z" fill="white" fill-opacity="0.5"/>
<path d="M39.4667 3.29514L37.6304 6.96777L39.2627 7.78391L41.099 4.11128L39.4667 3.29514Z" fill="white" fill-opacity="0.5"/>
<path d="M54.5154 17.5084L49.0615 19.3262L49.6386 21.0575L55.0924 19.2398L54.5154 17.5084Z" fill="white" fill-opacity="0.5"/>
<path d="M56.6825 28.3921H51.2075V30.2171H56.6825V28.3921Z" fill="white" fill-opacity="0.5"/>
<path d="M49.1332 36.8902L47.8428 38.1807L51.5206 41.8585L52.811 40.568L49.1332 36.8902Z" fill="white" fill-opacity="0.5"/>
</g>
<defs>
<clipPath id="clip0_1259_6462">
<rect width="55" height="57" fill="white"/>
</clipPath>
</defs>
</svg>
