<?xml version="1.0" encoding="UTF-8"?>
<svg xmlns="http://www.w3.org/2000/svg" width="77" height="77" viewBox="0 0 77 77" fill="none">
  <path d="M30.7061 15.5C34.1702 9.50016 42.8298 9.50016 46.2939 15.5L62.3154 43.25C65.7795 49.25 61.4497 56.75 54.5215 56.75H22.4785C15.5503 56.75 11.2205 49.25 14.6846 43.25L30.7061 15.5Z" stroke="#1B2550" stroke-width="2"></path>
  <path d="M36.6232 39.3433L35.3382 24H41.7633L40.5121 39.3433H36.6232ZM38.5845 49C36.5556 49 35 47.319 35 45.2446C35 43.3133 36.5556 41.6323 38.5845 41.6323C40.4444 41.6323 42 43.3133 42 45.2446C42 47.319 40.4444 49 38.5845 49Z" fill="#1B2550"></path>
</svg>
