<?xml version="1.0" encoding="UTF-8"?>
<svg xmlns="http://www.w3.org/2000/svg" width="17" height="17" viewBox="0 0 17 17" fill="none">
  <path d="M13.1842 2.42676H3.27985C2.8054 2.42676 2.42175 2.8021 2.42175 3.26617V13.2321C2.42175 13.6962 2.8054 14.0738 3.27985 14.0738H13.1842C13.6587 14.0738 14.0446 13.6962 14.0446 13.2344V3.26617C14.0446 2.8021 13.6587 2.42676 13.1842 2.42676ZM5.87001 12.3518H4.14475V6.79213H5.87001V12.3518ZM5.00738 6.03462C4.45348 6.03462 4.00627 5.58648 4.00627 5.0337C4.00627 4.48092 4.45348 4.03278 5.00738 4.03278C5.55901 4.03278 6.00622 4.48092 6.00622 5.0337C6.00622 5.5842 5.55901 6.03462 5.00738 6.03462ZM12.3261 12.3518H10.6031V9.6493C10.6031 9.00553 10.5918 8.17522 9.70646 8.17522C8.80978 8.17522 8.67357 8.87814 8.67357 9.6038V12.3518H6.95285V6.79213H8.60547V7.55192H8.62817C8.85745 7.11515 9.42043 6.65337 10.2581 6.65337C12.0038 6.65337 12.3261 7.80442 12.3261 9.30125V12.3518Z" fill="white"></path>
</svg>
