<?xml version="1.0" encoding="UTF-8"?>
<svg xmlns="http://www.w3.org/2000/svg" width="91" height="54" viewBox="0 0 91 54" fill="none">
  <path d="M22.0023 29.2787H34.7265C35.124 36.6359 37.4691 43.7554 41.5218 49.9086C36.445 49.1117 31.7755 46.6548 28.2434 42.9222C24.7112 39.1896 22.518 34.3916 22.0023 29.2787ZM22 24.6323C22.5151 19.5192 24.7101 14.721 28.2418 10.9879C31.7735 7.25489 36.4428 4.79748 41.5195 4C37.4668 10.1532 35.1217 17.2727 34.7241 24.63L22 24.6323ZM68.2315 24.6323H55.5074C55.1103 17.2743 52.7652 10.1539 48.7121 4C53.7888 4.7969 58.4584 7.25377 61.9905 10.9864C65.5226 14.719 67.7182 19.517 68.2339 24.63M68.2339 29.2763C67.7183 34.389 65.5231 39.1867 61.9914 42.9193C58.4597 46.6518 53.7907 49.1089 48.7144 49.9063C52.7667 43.7537 55.1118 36.6351 55.5097 29.2787L68.2339 29.2763ZM39.3798 29.2787H50.8564C50.4748 35.5502 48.4998 41.6208 45.1181 46.9163C41.7364 41.6208 39.7614 35.5502 39.3798 29.2787ZM39.3798 24.6323C39.7614 18.3607 41.7364 12.2901 45.1181 6.9946C48.4998 12.2901 50.4748 18.3607 50.8564 24.6323H39.3798Z" fill="#1B2550"></path>
</svg>
