<?xml version="1.0" encoding="UTF-8"?>
<svg xmlns="http://www.w3.org/2000/svg" width="91" height="54" viewBox="0 0 91 54" fill="none">
  <path d="M34.9083 20.1982H40.0713V25.3612C40.0713 25.7035 40.2072 26.0318 40.4493 26.2739C40.6914 26.516 41.0197 26.6519 41.362 26.6519H46.525C46.8673 26.6519 47.1956 26.516 47.4377 26.2739C47.6797 26.0318 47.8157 25.7035 47.8157 25.3612V20.1982H52.9787C53.3211 20.1982 53.6494 20.0622 53.8914 19.8202C54.1335 19.5781 54.2695 19.2498 54.2695 18.9075V13.7445C54.2695 13.4022 54.1335 13.0738 53.8914 12.8318C53.6494 12.5897 53.3211 12.4537 52.9787 12.4537H47.8157V7.29075C47.8157 6.94842 47.6797 6.62011 47.4377 6.37805C47.1956 6.13599 46.8673 6 46.525 6H41.362C41.0197 6 40.6914 6.13599 40.4493 6.37805C40.2072 6.62011 40.0713 6.94842 40.0713 7.29075V12.4537H34.9083C34.5659 12.4537 34.2376 12.5897 33.9956 12.8318C33.7535 13.0738 33.6175 13.4022 33.6175 13.7445V18.9075C33.6175 19.2498 33.7535 19.5781 33.9956 19.8202C34.2376 20.0622 34.5659 20.1982 34.9083 20.1982ZM67.8376 33.1307C67.5869 32.7888 67.271 32.4998 66.9082 32.2803C66.5454 32.0608 66.1429 31.9151 65.7236 31.8516C65.3044 31.7881 64.8767 31.8081 64.4652 31.9103C64.0537 32.0126 63.6664 32.1951 63.3257 32.4474L53.6717 39.561H43.9419C43.5996 39.561 43.2713 39.425 43.0292 39.183C42.7871 38.9409 42.6511 38.6126 42.6511 38.2703C42.6511 37.9279 42.7871 37.5996 43.0292 37.3576C43.2713 37.1155 43.5996 36.9795 43.9419 36.9795H50.2536C51.5444 36.9795 52.7343 36.1026 52.9456 34.8329C53.008 34.4621 52.9888 34.0822 52.8894 33.7196C52.7899 33.357 52.6126 33.0204 52.3698 32.7333C52.127 32.4463 51.8245 32.2156 51.4834 32.0574C51.1423 31.8992 50.7708 31.8173 50.3948 31.8174H37.4873C35.3104 31.8169 33.1994 32.5645 31.508 33.935L27.7567 36.9795H23.2907C22.9491 36.9819 22.6222 37.1186 22.3806 37.3602C22.1391 37.6017 22.0023 37.9287 22 38.2703V46.0148C22.0023 46.3564 22.1391 46.6833 22.3806 46.9249C22.6222 47.1664 22.9491 47.3032 23.2907 47.3055H51.2838C53.0743 47.3012 54.8171 46.7287 56.2613 45.6703L67.1543 37.6378C67.8419 37.1302 68.2999 36.3705 68.428 35.5255C68.5561 34.6806 68.3438 33.8193 67.8376 33.1307Z" fill="#1B2550"></path>
</svg>
