<svg width="40" height="40" viewBox="0 0 40 40" fill="none" xmlns="http://www.w3.org/2000/svg">
<path d="M15.2113 5.02337C17.0965 5.02337 18.9348 5.5376 20.539 6.51928C22.1432 7.50097 23.4547 8.90338 24.3095 10.5629C25.1642 12.2341 25.5507 14.104 25.4102 15.9739C25.2697 17.8438 24.6138 19.6435 23.525 21.1628C23.197 21.642 23.197 22.051 23.6303 22.3665C25.8433 23.9443 27.471 22.5068 29.848 24.8792L35 30.0448L30.0353 35L24.8363 29.7993C22.4477 27.4153 23.9465 25.8375 22.3775 23.617C22.0495 23.1963 21.6515 23.173 21.1713 23.5118C19.86 24.4468 18.3495 25.0545 16.757 25.3C15.1645 25.5453 13.5369 25.4052 12.0147 24.9027C10.4808 24.4 9.09911 23.5353 7.96331 22.4017C6.82753 21.2563 5.98446 19.8657 5.49266 18.3347C5.00088 16.8037 4.87208 15.1792 5.12968 13.5898C5.38728 12.0004 6.00788 10.5045 6.95633 9.19557C7.90478 7.89832 9.14595 6.83483 10.5862 6.11025C12.0264 5.38567 13.6072 5 15.2231 5L15.2113 5.02337ZM15.2113 23.1262C16.7803 23.1262 18.3027 22.6587 19.614 21.794C20.9138 20.9292 21.9325 19.6903 22.5297 18.2528C23.1268 16.8153 23.2907 15.2259 22.9747 13.695C22.6702 12.164 21.9208 10.7616 20.8083 9.65135C19.696 8.55278 18.2908 7.79315 16.757 7.48928C15.2231 7.18543 13.6306 7.33737 12.1786 7.94507C10.7384 8.5411 9.49723 9.55785 8.63075 10.8551C7.76426 12.1523 7.2959 13.6833 7.2959 15.2376C7.2959 17.3295 8.12725 19.3397 9.61433 20.8122C11.1014 22.2848 13.1154 23.1262 15.2113 23.1262Z" fill="#1B2550"></path>
</svg>