<?xml version="1.0" encoding="UTF-8"?>
<svg xmlns="http://www.w3.org/2000/svg" width="37" height="47" viewBox="0 0 37 47" fill="none">
  <path fill-rule="evenodd" clip-rule="evenodd" d="M26.5564 0.0172409C32.0724 -0.232339 36.7454 4.03842 36.991 9.55337C37.236 15.0686 32.9598 19.7376 27.4431 19.9782C21.9337 20.218 17.2721 15.9494 17.0271 10.4411C16.7822 4.93253 21.0472 0.266865 26.5564 0.0172409ZM35.1424 9.26431C34.7364 4.76661 30.7572 1.45141 26.2596 1.8649C21.7734 2.27749 18.4683 6.24476 18.8728 10.7311C19.2775 15.2174 23.2388 18.5288 27.7263 18.1325C32.2254 17.735 35.5478 13.7621 35.1424 9.26431Z" fill="#1B2550"></path>
  <path d="M26.6991 3.3457L27.7899 3.34915L27.7904 4.82882C29.5681 5.13848 30.3121 6.26516 30.3621 8.0105L28.3965 8.01088L28.3937 7.97298C28.3588 7.45245 28.3064 6.99063 27.865 6.62664C27.6082 6.4178 27.2787 6.32024 26.9497 6.35578C25.7932 6.48647 25.5312 8.23289 26.8539 8.80058C28.2068 9.38124 30.1544 10.0605 30.3361 11.7458C30.5429 13.6696 29.5054 14.7468 27.6498 14.9786L27.6512 16.3524L27.1961 16.344L26.5659 16.3466L26.5645 15.0013C24.5753 14.664 23.7252 13.7804 23.6143 11.7511L25.5794 11.751C25.5841 11.8141 25.5893 11.8772 25.5954 11.9401C25.6445 12.4288 25.7781 12.849 26.176 13.1498C26.7543 13.5871 27.738 13.5832 28.1709 12.9456C28.3602 12.6667 28.448 12.239 28.3536 11.9143C27.9972 10.6872 26.1586 10.6489 25.2664 9.92547C24.6334 9.52232 24.1897 8.92688 24.049 8.18315C23.9083 7.44018 23.9943 6.66846 24.4337 6.0355C25.0054 5.21173 25.7583 4.968 26.6962 4.78983L26.6991 3.3457Z" fill="#1B2550"></path>
  <path d="M13.6442 13.9296C13.807 13.9202 13.966 13.9099 14.1249 13.9541C14.3595 14.0194 14.5447 14.165 14.6564 14.3821C14.7537 14.5712 14.7905 14.7957 14.7971 15.0064C14.8426 16.474 14.7834 17.9677 14.7837 19.4381C14.784 20.7368 14.8728 31.242 14.7228 31.6371C14.6372 31.8627 14.4347 32.0675 14.2103 32.1548C13.9659 32.2497 13.6771 32.2252 13.4496 32.0958C12.9475 31.8108 12.4466 31.1708 12.0341 30.7569L8.64107 27.3606C8.18645 26.907 7.42372 26.0924 6.95663 25.7162C6.70192 25.5086 6.41662 25.342 6.11087 25.2216C5.32875 24.9195 4.45834 24.9427 3.6933 25.2853C2.9327 25.6284 2.33746 26.2566 2.03596 27.0344C1.56604 28.2479 1.86225 29.4939 2.75904 30.4142C3.58072 31.2576 4.41119 32.0878 5.24364 32.9199L9.84922 37.5244L13.7623 41.437C14.5801 42.2554 15.8461 43.7483 16.9025 44.1277C17.7038 44.4133 18.5864 44.3609 19.3486 43.9838C20.0899 43.6199 21.5562 42.0152 22.2109 41.3611L26.5325 37.0336L30.8455 32.7226C31.6433 31.9255 32.4359 31.1297 33.2246 30.3241C34.1631 29.3655 34.3467 27.8915 33.7245 26.705C33.3266 25.9532 32.6445 25.3915 31.8298 25.1451C31.057 24.9148 30.2253 24.9875 29.504 25.3486C28.8176 25.6945 27.4785 27.142 26.8842 27.7367L23.7503 30.8834C23.4854 31.15 22.7127 31.9717 22.4134 32.118C22.1949 32.2247 21.9423 32.2393 21.7129 32.1572C21.2437 31.9901 21.1191 31.5705 21.1167 31.1118C21.1082 29.4311 21.1233 27.7495 21.1233 26.0683L21.12 23.1251C21.1158 22.1606 20.8011 19.7354 22.5697 20.5757C22.717 20.7144 22.9058 20.9449 22.9171 21.1529C22.9629 21.9895 22.944 22.8505 22.9435 23.6889L22.9388 29.1064L25.8589 26.1811C26.5296 25.5105 27.5526 24.4051 28.3069 23.9336C29.0084 23.4958 29.8094 23.2429 30.635 23.1986C31.9657 23.1201 33.2723 23.5783 34.2627 24.4707C35.253 25.3637 35.844 26.6163 35.9039 27.9482C35.97 29.2758 35.4961 30.5737 34.5898 31.5465C33.6509 32.5612 32.4883 33.6661 31.4937 34.66L25.756 40.3973L22.7207 43.4349C22.2138 43.9413 21.3509 44.8522 20.8106 45.2298C20.0282 45.7834 19.0998 46.0935 18.1418 46.1218C16.6936 46.1728 15.445 45.6734 14.4273 44.6634C13.4066 43.6501 12.3876 42.6325 11.3707 41.6159L5.51166 35.7583L2.67516 32.9204C2.15534 32.4003 1.25171 31.5517 0.862087 30.9839C0.317256 30.1844 0.0179319 29.2428 0.00103277 28.2757C-0.0262513 26.9334 0.488039 25.6369 1.42788 24.6784C2.35634 23.7313 3.62594 23.1961 4.95234 23.1926C5.82656 23.18 6.68794 23.4042 7.44505 23.8415C8.30757 24.3371 9.39233 25.5317 10.1312 26.2722L12.9706 29.1031L12.972 19.1782C12.9722 17.7415 12.9545 16.2952 12.9748 14.8589C12.9821 14.3485 13.2087 14.1452 13.6442 13.9296Z" fill="#1B2550"></path>
  <path d="M13.7827 4.21289C13.9158 4.2228 14.0542 4.2397 14.1799 4.28713C14.4005 4.37039 14.5668 4.52802 14.666 4.74055C14.815 5.05965 14.8377 11.6257 14.6747 11.9924C14.5328 12.3113 14.2579 12.4328 13.9486 12.5416C12.9868 12.4555 12.9261 11.9403 12.9288 11.1166C12.9355 9.11613 12.902 7.11139 12.946 5.11185C12.9578 4.57432 13.2866 4.31484 13.7827 4.21289Z" fill="#1B2550"></path>
  <path d="M13.7037 0.00039542C14.6276 -0.0198521 14.8361 0.740819 14.7948 1.51353C14.76 2.16385 14.6585 2.56375 14.0057 2.78317C13.1012 2.80795 12.8751 2.17372 12.8925 1.37439C12.9075 0.684749 13.002 0.240392 13.7037 0.00039542Z" fill="#1B2550"></path>
</svg>
