<?xml version="1.0" encoding="UTF-8"?>
<svg xmlns="http://www.w3.org/2000/svg" width="91" height="54" viewBox="0 0 91 54" fill="none">
  <path fill-rule="evenodd" clip-rule="evenodd" d="M57.9062 3.75781C57.5584 3.75789 57.2185 3.86113 56.9295 4.05446C56.6404 4.2478 56.4152 4.52255 56.2824 4.84393C56.1495 5.16531 56.115 5.51888 56.1832 5.85988C56.2514 6.20088 56.4192 6.51399 56.6654 6.75958L59.3578 9.45203L50.7884 16.7631L38.1346 7.27276C37.7908 7.01749 37.3804 6.86735 36.9531 6.84052C36.5258 6.8137 36.0998 6.91134 35.7269 7.12162L23.4245 14.1515C22.9183 14.4405 22.5477 14.9187 22.3941 15.481C22.2405 16.0433 22.3166 16.6436 22.6055 17.1498C22.8945 17.656 23.3728 18.0266 23.9351 18.1802C24.4973 18.3338 25.0976 18.2577 25.6038 17.9687L36.6548 11.6524L49.5582 21.3326C49.9569 21.6316 50.4456 21.7862 50.9438 21.7708C51.442 21.7555 51.9202 21.5712 52.2998 21.2482L62.4756 12.5663L65.4528 15.5469C65.6988 15.7922 66.0119 15.959 66.3526 16.0264C66.6933 16.0938 67.0464 16.0587 67.3672 15.9255C67.688 15.7924 67.9622 15.5672 68.1551 15.2783C68.348 14.9895 68.4509 14.65 68.451 14.3027V5.51529C68.451 5.04918 68.2659 4.60215 67.9363 4.27256C67.6067 3.94297 67.1597 3.75781 66.6935 3.75781H57.9062ZM68.8904 21.3326C68.8903 20.9212 68.7747 20.5182 68.5569 20.1693C68.339 19.8204 68.0275 19.5397 67.658 19.3591C67.2884 19.1786 66.8756 19.1054 66.4664 19.1479C66.0573 19.1904 65.6683 19.347 65.3438 19.5997L50.8517 30.8721L38.1346 21.3326C37.7908 21.0773 37.3804 20.9271 36.9531 20.9003C36.5258 20.8735 36.0998 20.9711 35.7269 21.1814L23.4245 28.2113C23.0892 28.4049 22.8105 28.683 22.6163 29.0179C22.422 29.3528 22.3189 29.7328 22.3173 30.1199V47.6947C22.3173 48.9073 23.3015 49.8915 24.5142 49.8915H66.6935C67.9062 49.8915 68.8904 48.9073 68.8904 47.6947V21.3326ZM52.226 35.3677L64.4967 25.8247V45.4978H50.8763V35.8317C51.3655 35.8329 51.8409 35.6695 52.226 35.3677ZM36.8165 25.8352L36.6548 25.7122L26.711 31.3958V45.4978H36.8165V25.8352Z" fill="#1B2550"></path>
</svg>
