<?xml version="1.0" encoding="UTF-8"?>
<svg xmlns="http://www.w3.org/2000/svg" width="22" height="22" viewBox="0 0 22 22" fill="none">
  <path d="M16.3125 14.2574H17.6719V17.6521H16.3125V14.2574ZM13.5938 10.8628H14.9531V17.6521H13.5938V10.8628ZM7.47656 17.6521C6.57557 17.651 5.71179 17.293 5.0747 16.6566C4.4376 16.0202 4.0792 15.1574 4.07812 14.2574H5.4375C5.4375 14.6603 5.55709 15.0541 5.78114 15.389C6.0052 15.724 6.32366 15.985 6.69625 16.1392C7.06884 16.2933 7.47882 16.3337 7.87436 16.2551C8.2699 16.1765 8.63323 15.9825 8.9184 15.6977C9.20357 15.4128 9.39777 15.0499 9.47645 14.6548C9.55512 14.2597 9.51474 13.8502 9.36041 13.478C9.20608 13.1058 8.94473 12.7877 8.60941 12.5639C8.27408 12.3401 7.87985 12.2207 7.47656 12.2207V10.8628C8.37788 10.8628 9.24229 11.2204 9.87962 11.8571C10.517 12.4937 10.875 13.3571 10.875 14.2574C10.875 15.1578 10.517 16.0212 9.87962 16.6578C9.24229 17.2944 8.37788 17.6521 7.47656 17.6521Z" fill="white"></path>
  <path d="M19.0312 1.35791H2.71875C2.35833 1.35827 2.01278 1.50144 1.75792 1.75602C1.50307 2.01059 1.35973 2.35575 1.35938 2.71577V19.0101C1.35973 19.3701 1.50307 19.7153 1.75792 19.9698C2.01278 20.2244 2.35833 20.3676 2.71875 20.3679H19.0312C19.3916 20.3674 19.7371 20.2242 19.9919 19.9696C20.2467 19.7151 20.3901 19.37 20.3906 19.0101V2.71577C20.3903 2.35575 20.2469 2.01059 19.9921 1.75602C19.7372 1.50144 19.3917 1.35827 19.0312 1.35791ZM19.0312 7.46828H9.51562V2.71577H19.0312V7.46828ZM8.15625 2.71577V7.46828H2.71875V2.71577H8.15625ZM2.71875 19.0101V8.82614H19.0312L19.0326 19.0101H2.71875Z" fill="white"></path>
</svg>
