<?xml version="1.0" encoding="UTF-8"?>
<svg xmlns="http://www.w3.org/2000/svg" width="22" height="22" viewBox="0 0 22 22" fill="none">
  <g clip-path="url(#clip0_1355_2112)">
    <path d="M10.1953 4.07358C11.0378 4.07358 11.8308 4.2327 12.5742 4.55095C13.3176 4.8692 13.9655 5.30767 14.5177 5.86638C15.0699 6.42508 15.5054 7.07219 15.824 7.80769C16.1426 8.5432 16.3054 9.33528 16.3125 10.1839C16.3125 10.6295 16.2842 11.0468 16.2275 11.4357C16.1709 11.8247 16.0824 12.196 15.962 12.5496C15.8417 12.9032 15.6859 13.2533 15.4948 13.5998C15.3036 13.9463 15.077 14.3 14.8151 14.6606C14.6097 14.9435 14.4292 15.1981 14.2734 15.4244C14.1177 15.6507 13.9902 15.8771 13.8911 16.1034C13.792 16.3297 13.7177 16.5772 13.6681 16.8459C13.6185 17.1147 13.5938 17.4294 13.5938 17.7901V19.689C13.5938 19.9718 13.5406 20.2371 13.4344 20.4846C13.3282 20.7321 13.1831 20.9478 12.999 21.1317C12.8149 21.3156 12.599 21.4605 12.3512 21.5666C12.1034 21.6727 11.8379 21.7258 11.5547 21.7258H8.83594C8.55273 21.7258 8.28723 21.6727 8.03943 21.5666C7.79163 21.4605 7.57568 21.3156 7.3916 21.1317C7.20752 20.9478 7.06238 20.7321 6.95618 20.4846C6.84998 20.2371 6.79688 19.9718 6.79688 19.689V17.7795C6.79688 17.4188 6.77209 17.1076 6.72253 16.8459C6.67297 16.5843 6.59863 16.3403 6.49951 16.114C6.40039 15.8877 6.27295 15.6578 6.11719 15.4244C5.96143 15.1911 5.78088 14.9365 5.57556 14.6606C5.3136 14.3 5.09058 13.9499 4.90649 13.6104C4.72241 13.271 4.56665 12.9209 4.43921 12.5602C4.31177 12.1995 4.21973 11.8247 4.16309 11.4357C4.10645 11.0468 4.07812 10.6295 4.07812 10.1839C4.07812 9.34236 4.23743 8.55027 4.55603 7.80769C4.87463 7.06511 5.3136 6.41801 5.87292 5.86638C6.43225 5.31475 7.08008 4.87981 7.81641 4.56156C8.55273 4.24331 9.3457 4.08065 10.1953 4.07358ZM12.2344 19.689V19.01H8.15625V19.689C8.15625 19.8728 8.22351 20.032 8.35803 20.1663C8.49255 20.3007 8.65186 20.3679 8.83594 20.3679H11.5547C11.7388 20.3679 11.8981 20.3007 12.0326 20.1663C12.1671 20.032 12.2344 19.8728 12.2344 19.689ZM14.9531 10.1839C14.9531 9.52623 14.8292 8.91095 14.5814 8.33811C14.3336 7.76526 13.9938 7.2596 13.5619 6.82112C13.13 6.38265 12.6273 6.04318 12.0538 5.80273C11.4803 5.56227 10.8608 5.43851 10.1953 5.43144C9.53687 5.43144 8.9209 5.5552 8.34741 5.80273C7.77393 6.05025 7.2677 6.38972 6.82874 6.82112C6.38977 7.25253 6.04993 7.75465 5.8092 8.3275C5.56848 8.90034 5.44458 9.51916 5.4375 10.1839C5.4375 10.8134 5.50122 11.3544 5.62866 11.807C5.7561 12.2596 5.92249 12.6627 6.12781 13.0164C6.33313 13.37 6.54907 13.7024 6.77563 14.0135C7.0022 14.3247 7.21814 14.65 7.42346 14.9895C7.62878 15.329 7.79871 15.7109 7.93323 16.1352C8.06775 16.5595 8.14209 17.0652 8.15625 17.6522H12.2344C12.2415 17.0652 12.3123 16.5631 12.4468 16.1458C12.5813 15.7285 12.7512 15.3466 12.9565 15.0001C13.1619 14.6536 13.3778 14.3282 13.6044 14.0241C13.8309 13.72 14.0469 13.3876 14.2522 13.027C14.4575 12.6663 14.6239 12.2596 14.7513 11.807C14.8788 11.3544 14.946 10.8134 14.9531 10.1839ZM10.1953 2.71572C10.0112 2.71572 9.85193 2.64853 9.71741 2.51416C9.58289 2.37979 9.51562 2.22067 9.51562 2.03679V0.67893C9.51562 0.495053 9.58289 0.335929 9.71741 0.201557C9.85193 0.0671858 10.0112 0 10.1953 0C10.3794 0 10.5387 0.0671858 10.6732 0.201557C10.8077 0.335929 10.875 0.495053 10.875 0.67893V2.03679C10.875 2.22067 10.8077 2.37979 10.6732 2.51416C10.5387 2.64853 10.3794 2.71572 10.1953 2.71572ZM2.03906 9.84448H0.679688C0.495605 9.84448 0.336304 9.7773 0.201782 9.64292C0.0672607 9.50855 0 9.34943 0 9.16555C0 8.98168 0.0672607 8.82255 0.201782 8.68818C0.336304 8.55381 0.495605 8.48662 0.679688 8.48662H2.03906C2.22314 8.48662 2.38245 8.55381 2.51697 8.68818C2.65149 8.82255 2.71875 8.98168 2.71875 9.16555C2.71875 9.34943 2.65149 9.50855 2.51697 9.64292C2.38245 9.7773 2.22314 9.84448 2.03906 9.84448ZM2.60193 12.6132C2.78601 12.6132 2.94531 12.6804 3.07983 12.8148C3.21436 12.9492 3.28162 13.1118 3.28162 13.3028C3.28162 13.4442 3.24268 13.568 3.16479 13.6741C3.08691 13.7802 2.98071 13.865 2.84619 13.9287C2.76831 13.964 2.66211 14.01 2.52759 14.0666C2.39307 14.1232 2.24792 14.1833 2.09216 14.2469C1.9364 14.3106 1.7948 14.3636 1.66736 14.406C1.53992 14.4485 1.42664 14.4732 1.32751 14.4803C1.14343 14.4803 0.984131 14.4131 0.849609 14.2787C0.715088 14.1444 0.647827 13.9817 0.647827 13.7908C0.647827 13.6493 0.686768 13.5256 0.764648 13.4195C0.842529 13.3134 0.94873 13.2285 1.08325 13.1649C1.16113 13.1366 1.26733 13.0906 1.40186 13.027C1.53638 12.9633 1.68152 12.9032 1.83728 12.8466C1.99304 12.79 2.13464 12.737 2.26208 12.6875C2.38953 12.638 2.50281 12.6132 2.60193 12.6132ZM4.21619 5.7709C4.21619 5.95478 4.14893 6.1139 4.0144 6.24828C3.87988 6.38265 3.72058 6.44983 3.5365 6.44983C3.40906 6.44983 3.29224 6.41801 3.18604 6.35436L2.02844 5.6436C1.92932 5.57995 1.85144 5.49862 1.7948 5.39961C1.73816 5.3006 1.7063 5.18745 1.69922 5.06015C1.69922 4.87627 1.76648 4.71715 1.901 4.58278C2.03552 4.4484 2.19482 4.38122 2.37891 4.38122C2.49219 4.38122 2.60901 4.41658 2.72937 4.4873L3.89758 5.18745C3.9967 5.24403 4.07458 5.32536 4.13123 5.43144C4.18787 5.53752 4.21619 5.65068 4.21619 5.7709ZM5.09766 1.86706C5.09766 1.68318 5.16492 1.52406 5.29944 1.38968C5.43396 1.25531 5.59326 1.18813 5.77734 1.18813C5.89771 1.18813 6.01099 1.21995 6.11719 1.2836C6.22339 1.34725 6.30835 1.43212 6.37207 1.5382L7.03052 2.72633C7.08716 2.82534 7.11548 2.93142 7.11548 3.04458C7.11548 3.23552 7.04822 3.39818 6.9137 3.53256C6.77917 3.66693 6.61987 3.73411 6.43579 3.73411C6.31543 3.73411 6.20215 3.70229 6.09595 3.63864C5.98975 3.57499 5.90479 3.49012 5.84106 3.38404L5.18262 2.19591C5.12598 2.0969 5.09766 1.98728 5.09766 1.86706ZM19.7109 8.48662C19.895 8.48662 20.0543 8.55381 20.1888 8.68818C20.3234 8.82255 20.3906 8.98168 20.3906 9.16555C20.3906 9.34943 20.3234 9.50855 20.1888 9.64292C20.0543 9.7773 19.895 9.84448 19.7109 9.84448H18.3516C18.1675 9.84448 18.0082 9.7773 17.8737 9.64292C17.7391 9.50855 17.6719 9.34943 17.6719 9.16555C17.6719 8.98168 17.7391 8.82255 17.8737 8.68818C18.0082 8.55381 18.1675 8.48662 18.3516 8.48662H19.7109ZM19.7322 13.8014C19.7322 13.9852 19.6649 14.1444 19.5304 14.2787C19.3959 14.4131 19.2366 14.4803 19.0525 14.4803C18.9746 14.4803 18.8684 14.4591 18.7339 14.4166C18.5994 14.3742 18.4542 14.3176 18.2985 14.2469C18.1427 14.1762 18.0011 14.1161 17.8737 14.0666C17.7462 14.0171 17.6365 13.9676 17.5444 13.9181C17.417 13.8615 17.3143 13.7766 17.2365 13.6635C17.1586 13.5503 17.1161 13.423 17.109 13.2816C17.109 13.0906 17.1763 12.9315 17.3108 12.8042C17.4453 12.6769 17.6082 12.6097 17.7993 12.6026C17.8843 12.6026 17.994 12.6274 18.1285 12.6769C18.2631 12.7264 18.4047 12.783 18.5533 12.8466C18.702 12.9103 18.8436 12.9739 18.9781 13.0376C19.1127 13.1012 19.2224 13.1472 19.3074 13.1755C19.4348 13.2321 19.5375 13.3134 19.6154 13.4195C19.6932 13.5256 19.7322 13.6529 19.7322 13.8014ZM16.8541 6.44983C16.67 6.44983 16.5107 6.38265 16.3762 6.24828C16.2417 6.1139 16.1744 5.95478 16.1744 5.7709C16.1744 5.65068 16.2028 5.53752 16.2594 5.43144C16.316 5.32536 16.3939 5.24403 16.493 5.18745L17.6613 4.4873C17.7816 4.41658 17.8984 4.38122 18.0117 4.38122C18.1958 4.38122 18.3551 4.4484 18.4896 4.58278C18.6241 4.71715 18.6914 4.87627 18.6914 5.06015C18.6914 5.18038 18.6631 5.28999 18.6064 5.389C18.5498 5.48802 18.4684 5.57288 18.3622 5.6436L17.2046 6.35436C17.0984 6.41801 16.9816 6.44983 16.8541 6.44983ZM13.2751 3.04458C13.2751 2.93142 13.3035 2.82534 13.3601 2.72633L14.0186 1.5382C14.0752 1.43212 14.1566 1.34725 14.2628 1.2836C14.369 1.21995 14.4858 1.18813 14.6133 1.18813C14.7974 1.18813 14.9567 1.25531 15.0912 1.38968C15.2257 1.52406 15.293 1.68318 15.293 1.86706C15.293 1.98728 15.2646 2.0969 15.208 2.19591L14.5496 3.38404C14.4929 3.49012 14.4115 3.57499 14.3053 3.63864C14.1991 3.70229 14.0823 3.73411 13.9548 3.73411C13.7708 3.73411 13.6115 3.66693 13.4769 3.53256C13.3424 3.39818 13.2751 3.23552 13.2751 3.04458Z" fill="white"></path>
  </g>
  <defs>
    <clipPath id="clip0_1355_2112">
      <rect width="21.75" height="21.7258" fill="white"></rect>
    </clipPath>
  </defs>
</svg>
