<?xml version="1.0" encoding="UTF-8"?>
<svg xmlns="http://www.w3.org/2000/svg" width="55" height="55" viewBox="0 0 55 55" fill="none">
  <path fill-rule="evenodd" clip-rule="evenodd" d="M50.6459 18.2488C50.4986 17.9015 50.6591 17.4992 51.0086 17.3497C51.3559 17.2024 51.7582 17.3629 51.9077 17.7124C56.0995 27.5268 53.897 38.8561 46.3816 46.374C37.2132 55.5424 22.7231 56.5491 12.3921 48.8206L11.1502 50.0625C10.1501 51.0626 8.43112 50.6164 8.05961 49.2338L6.93417 45.0354C6.56488 43.6615 7.82 42.4064 9.19602 42.7735L13.3944 43.8989C14.7287 44.2572 15.2562 45.9542 14.2231 46.9895L13.3725 47.8402C23.1588 55.0436 36.7845 54.0279 45.4104 45.4025C51.1716 39.6413 53.8293 31.2731 52.1344 22.9949C51.7959 21.3507 51.2943 19.7633 50.6459 18.2488ZM20.1554 24.7791C18.8585 24.7791 17.7991 25.8386 17.7991 27.1355V28.7929C17.7991 30.0898 18.8585 31.1493 20.1554 31.1493H24.7847V35.7786C24.7847 37.0755 25.8442 38.135 27.1411 38.135H28.7985C30.0954 38.135 31.1549 37.0755 31.1549 35.7786V31.1493H35.7842C37.0811 31.1493 38.1406 30.0898 38.1406 28.7929V27.1355C38.1406 25.8386 37.0811 24.7791 35.7842 24.7791H31.1549V20.1499C31.1549 18.853 30.0954 17.7935 28.7985 17.7935H27.1411C25.8442 17.7935 24.7847 18.853 24.7847 20.1499V24.7791H20.1554ZM25.4727 26.153H20.1576C19.6191 26.153 19.1751 26.597 19.1751 27.1355V28.7929C19.1751 29.3315 19.6191 29.7755 20.1576 29.7755H25.4727C25.853 29.7755 26.1586 30.0832 26.1586 30.4613V35.7764C26.1586 36.3149 26.6026 36.759 27.1411 36.759H28.7985C29.337 36.759 29.7811 36.3149 29.7811 35.7764V30.4613C29.7811 30.0811 30.0888 29.7755 30.4669 29.7755H35.782C36.3205 29.7755 36.7645 29.3315 36.7645 28.7929V27.1355C36.7645 26.597 36.3205 26.153 35.782 26.153H30.4669C30.0866 26.153 29.7811 25.8452 29.7811 25.4671V20.1521C29.7811 19.6135 29.337 19.1695 28.7985 19.1695H27.1411C26.6026 19.1695 26.1586 19.6135 26.1586 20.1521V25.4671C26.1586 25.8452 25.8508 26.153 25.4727 26.153ZM28.2424 9.43397C28.0731 9.36143 27.8775 9.35484 27.695 9.43397L13.5128 15.6149C13.2424 15.7072 13.0512 15.9622 13.0512 16.2633V27.4693C13.0512 31.9799 14.5899 36.1476 17.1661 39.4801C19.7972 42.8806 23.5141 45.4061 27.7852 46.5231C27.8973 46.556 28.0204 46.5582 28.1435 46.5275C36.7205 44.2964 42.8929 36.4621 42.8929 27.4698L42.8907 16.266C42.8907 15.9935 42.7281 15.7473 42.4775 15.6395L28.2424 9.43397ZM41.5169 16.7122L27.97 10.8104L14.4231 16.7122V27.4697C14.4231 31.6681 15.8519 35.5459 18.25 38.6426C20.6658 41.7683 24.064 44.0983 27.9699 45.1577C31.876 44.0961 35.274 41.7682 37.692 38.6448C40.088 35.5476 41.519 31.6699 41.519 27.472L41.5169 16.7122ZM13.0382 45.2241L8.8398 44.0987C8.48371 44.002 8.16279 44.3251 8.25727 44.6812L9.38272 48.8796C9.47504 49.2269 9.91027 49.3588 10.1763 49.0907L13.2492 46.0177C13.4009 45.866 13.3899 45.3187 13.0382 45.2241ZM46.7463 13.1558C48.1201 13.5251 49.3753 12.27 49.0082 10.8939L47.8827 6.69554C47.5112 5.31294 45.7923 4.8667 44.7922 5.86682L43.5502 7.10875C33.2215 -0.61966 18.7292 0.387048 9.56076 9.55529C2.04337 17.0727 -0.159117 28.3997 4.03467 38.2147C4.18195 38.562 4.5842 38.7246 4.93373 38.5774C5.28104 38.4301 5.4437 38.0278 5.29642 37.6783C1.32221 28.3782 3.4148 17.6443 10.5324 10.527C19.1578 1.90163 32.7863 0.885917 42.5726 8.08931L41.7197 8.94217C40.6866 9.97527 41.2141 11.6745 42.5484 12.0327L46.7463 13.1558ZM42.9018 10.7049C42.5523 10.6126 42.4204 10.1795 42.6886 9.91132L45.7615 6.83836C46.0297 6.57019 46.4628 6.70208 46.5551 7.05158L47.6805 11.25C47.7773 11.6061 47.4541 11.927 47.098 11.8325L42.9018 10.7049Z" fill="#1B2550" fill-opacity="0.5"></path>
</svg>
