<svg width="590" height="291" viewBox="0 0 590 291" fill="none" xmlns="http://www.w3.org/2000/svg">
<g style="mix-blend-mode:soft-light" opacity="0.2">
<path d="M58.5532 265.337V136.847H40.8479V279.75H132.869V265.337H58.5532Z" fill="white" stroke="white" stroke-width="22.5"/>
<path d="M182.823 265.337V213.308H263.6V199.129H182.823V151.26H269.992V136.847H165.157V279.75H270.631V265.337H182.823Z" fill="white" stroke="white" stroke-width="22.5"/>
<path d="M339.723 228.835L369.502 149.737L399.282 228.835H339.665H339.723ZM418.497 279.75H436.376L382.738 136.847H356.557L302.919 279.75H320.566L334.382 243.248H404.623L418.439 279.75H418.497Z" fill="white" stroke="white" stroke-width="22.5"/>
<path d="M532.099 202.352H486.196V151.202H532.33C550.726 151.202 558.972 159.346 558.972 175.927C558.972 192.508 551.764 202.352 532.099 202.352ZM572.928 241.9C572.928 220.866 563.413 214.421 550.092 210.554C565.719 206.922 577.368 193.563 577.368 174.462C577.368 151.495 563.182 136.847 534.233 136.847H468.665V279.75H486.196V215.71H525.756C545.19 215.71 555.974 224.089 555.974 244.478V257.603C555.974 267.915 557.012 275.004 558.511 279.75H575.638C574.37 274.36 572.87 267.505 572.87 256.958V241.9H572.928Z" fill="white" stroke="white" stroke-width="22.5"/>
<path d="M58.3589 11.25H39.5388V39.3368H11.25V58.0613H39.5388V86.2066H58.3589V58.0613H86.5889V39.3368H58.3589V11.25Z" fill="white" stroke="white" stroke-width="22.5"/>
</g>
</svg>
