<svg width="261" height="231" viewBox="0 0 261 231" fill="none" xmlns="http://www.w3.org/2000/svg">
<g clip-path="url(#clip0_1259_6382)">
<path d="M84.5576 163.272H96.1445V180.662H113.551V192.237H96.1445V209.626H84.5576V192.237H67.1513V180.662H84.5576V163.272Z" fill="#FCBA17" fill-opacity="0.2"/>
<path d="M223.213 126.272H234.826V143.635H252.232V155.237H234.826V172.626H223.213V155.237H205.807V143.635H223.213V126.272Z" fill="#FCBA17" fill-opacity="0.2"/>
<path d="M206.712 202.935H213.98V213.864H224.92V221.125H213.98V232.054H206.712V221.125H195.772V213.864H206.712V202.935Z" fill="#FCBA17" fill-opacity="0.2"/>
<path d="M190.728 73.5874H196.574V82.3466H205.341V88.1861H196.574V96.9194H190.728V88.1861H181.961V82.3466H190.728V73.5874Z" fill="#FCBA17" fill-opacity="0.2"/>
<path d="M233.765 46.5864H239.611V55.3456H248.378V61.1592H239.611V69.9184H233.765V61.1592H224.998V55.3456H233.765V46.5864Z" fill="#FCBA17" fill-opacity="0.2"/>
<path d="M155.554 114.516H159.718V120.743H165.977V124.903H159.718V131.156H155.554V124.903H149.294V120.743H155.554V114.516Z" fill="#FCBA17" fill-opacity="0.2"/>
<path d="M26.3386 87.437H30.5027V93.6641H36.7617V97.824H30.5027V104.077H26.3386V97.824H20.0796V93.6641H26.3386V87.437Z" fill="#FCBA17" fill-opacity="0.2"/>
<path d="M141.639 171.515H144.51V175.804H148.803V178.672H144.51V182.961H141.639V178.672H137.346V175.804H141.639V171.515Z" fill="#FCBA17" fill-opacity="0.2"/>
<path d="M45.4518 150.354H47.5468V153.454H50.6504V155.547H47.5468V158.648H45.4518V155.547H42.3482V153.454H45.4518V150.354Z" fill="#FCBA17" fill-opacity="0.2"/>
<path d="M246.568 0H248.663V3.1006H251.767V5.19351H248.663V8.29411H246.568V5.19351H243.464V3.1006H246.568V0Z" fill="#FCBA17" fill-opacity="0.2"/>
<path d="M159.46 34.4424H161.529V37.5688H164.658V39.6359H161.529V42.7623H159.46V39.6359H156.33V37.5688H159.46V34.4424Z" fill="#FCBA17" fill-opacity="0.2"/>
<path d="M69.4537 62.6318H71.1866V65.1898H73.7471V66.921H71.1866V69.479H69.4537V66.921H66.8932V65.1898H69.4537V62.6318Z" fill="#FCBA17" fill-opacity="0.2"/>
<path d="M106.361 92.7339H110.241V98.5475H116.06V102.397H110.241V108.211H106.361V102.397H100.568V98.5475H106.361V92.7339Z" fill="#FCBA17" fill-opacity="0.2"/>
</g>
<defs>
<clipPath id="clip0_1259_6382">
<rect width="261" height="231" fill="white" transform="matrix(-1 0 0 1 261 0)"/>
</clipPath>
</defs>
</svg>
