<svg width="55" height="59" viewBox="0 0 55 59" fill="none" xmlns="http://www.w3.org/2000/svg">
<path fill-rule="evenodd" clip-rule="evenodd" d="M13.5002 53.3324L13.7635 50.945C13.7815 50.837 13.8445 50.7403 13.9367 50.6795C14.0807 50.5828 14.254 50.54 14.4273 50.558L22.4242 51.2331C22.4557 51.2353 22.4242 51.2331 22.4444 51.2331H22.4422C22.5974 51.2443 22.7437 51.3118 22.8517 51.4221C22.9192 51.4873 22.9552 51.5818 22.9507 51.6763L22.6807 54.1087L13.5002 53.3324ZM13.7275 49.0707C13.6037 48.6657 13.3877 48.2944 13.0974 47.9839C13.0479 47.9232 13.0007 47.8624 12.9039 47.7387L8.10673 41.5286C7.87497 41.2383 7.69946 40.9098 7.58471 40.5588C7.4677 40.192 7.4362 39.8027 7.49245 39.4224L8.89875 29.2746H8.8965C8.97976 28.6986 9.28577 28.1789 9.74931 27.8278C10.2083 27.4791 10.7776 27.3036 11.3559 27.3373C11.9364 27.3598 12.4877 27.5983 12.9017 28.0056C13.3202 28.4151 13.5475 28.9822 13.5272 29.5672L13.2347 37.5393C13.3562 37.3503 13.507 37.1793 13.6825 37.0376C14.2247 36.6033 14.9178 36.403 15.6063 36.4818C16.306 36.5493 16.9631 36.8486 17.4761 37.3279L22.5906 42.1453C24.4559 43.9026 23.9811 46.4317 23.5514 48.7316C23.4771 49.1298 23.4029 49.5191 23.3466 49.8836C23.5896 50.0006 23.8079 50.1581 23.9924 50.3539C24.3659 50.7409 24.5549 51.2697 24.5122 51.8052L24.5054 51.8547L24.1566 55.0431C24.1094 55.4661 23.7359 55.7744 23.3129 55.7384L12.5666 54.8293C12.1346 54.7956 11.8128 54.4153 11.8488 53.9833C11.8488 53.963 11.8533 53.9428 11.8556 53.9225L12.2043 50.7747C12.2696 50.2234 12.5688 49.7261 13.0234 49.4111C13.2371 49.2581 13.4734 49.1433 13.7254 49.0736L13.7275 49.0707ZM18.7114 43.216C19.0242 43.5153 19.0377 44.0103 18.7384 44.3231C18.4391 44.6381 17.9441 44.6493 17.6313 44.3523L13.7657 40.6622C13.723 40.6217 13.6825 40.5789 13.6397 40.5339L12.3076 39.1726C12.0961 38.9589 11.9296 38.7091 11.8149 38.4301C11.7046 38.1533 11.6529 37.8563 11.6664 37.557L11.9611 29.5106C11.9656 29.3621 11.9049 29.2181 11.7969 29.1146C11.6574 28.9818 11.4729 28.9053 11.2794 28.9008C11.0746 28.8873 10.8743 28.9458 10.7101 29.0673C10.5728 29.1686 10.4806 29.3193 10.4536 29.4881L9.04502 39.6359C9.02252 39.7889 9.03377 39.9442 9.08102 40.0904C9.13952 40.2659 9.22953 40.4279 9.34653 40.5719L14.1415 46.782C14.1685 46.8158 14.245 46.9125 14.3237 47.0093C14.8683 47.5673 15.2193 48.2851 15.3273 49.0569L21.8075 49.6059C21.866 49.2256 21.9381 48.8386 22.0123 48.4449C22.3678 46.5435 22.7616 44.4555 21.5173 43.2877L16.4028 38.4702C16.1463 38.2272 15.8156 38.0765 15.4645 38.0427C15.1878 38.0022 14.9065 38.0742 14.6837 38.2407C14.6702 38.252 14.6522 38.27 14.6297 38.2925H14.6275C14.5105 38.4185 14.4497 38.5872 14.4587 38.7582C14.4767 38.999 14.5712 39.2262 14.731 39.404L14.7535 39.431L14.8525 39.5323L18.7114 43.2179V43.216ZM32.3154 54.1086L32.0454 51.6763C32.0409 51.5817 32.0746 51.4895 32.1421 51.422C32.2524 51.314 32.3964 51.2465 32.5516 51.2352H32.5719L40.5688 50.5579C40.7421 50.5399 40.9153 50.5827 41.0571 50.6817C41.1493 50.7424 41.2123 50.8392 41.2303 50.9472L41.4936 53.3345L32.3154 54.1086ZM31.6448 49.883C31.5863 49.5185 31.5143 49.1269 31.4401 48.7309C31.0103 46.4313 30.5355 43.9022 32.4009 42.1447L37.5198 37.3272C38.0328 36.8479 38.6921 36.5509 39.3919 36.4834C40.0804 36.4047 40.7734 36.6049 41.3157 37.0392C41.489 37.181 41.642 37.352 41.7635 37.541L41.471 29.5642V29.5665C41.4507 28.9814 41.678 28.4144 42.0965 28.0049C42.5105 27.5976 43.0618 27.3591 43.6423 27.3366C44.2183 27.3029 44.7898 27.4784 45.2489 27.8271C45.7101 28.1781 46.0184 28.6979 46.1017 29.2739L47.508 39.4217H47.5057C47.562 39.802 47.5305 40.1912 47.4135 40.5581C47.2987 40.9091 47.1209 41.2376 46.8914 41.5279L42.0943 47.738C41.9975 47.8617 41.948 47.9225 41.9007 47.9832C41.6105 48.2937 41.3945 48.665 41.2707 49.0723C41.5227 49.142 41.759 49.2568 41.9727 49.4098C42.4273 49.7248 42.7265 50.2221 42.7918 50.7733L43.1406 53.9212C43.1406 53.9414 43.1473 53.9617 43.1473 53.9819C43.1833 54.414 42.8616 54.7943 42.4295 54.828L31.6832 55.737C31.2602 55.773 30.8845 55.4648 30.8395 55.0418L30.4862 51.8534L30.4795 51.8039C30.439 51.2683 30.628 50.7418 31.0015 50.3548C31.186 50.1591 31.4042 49.9993 31.6473 49.8823L31.6448 49.883ZM37.3646 44.3522V44.3545C37.0518 44.6515 36.5546 44.6402 36.2575 44.3275C35.9582 44.0125 35.9717 43.5175 36.2845 43.2182L40.1434 39.5325L40.2424 39.4313L40.2649 39.4043V39.4065C40.4247 39.2265 40.5192 38.9993 40.5372 38.7607C40.5462 38.5875 40.4854 38.421 40.3662 38.295C40.3504 38.277 40.3324 38.259 40.3122 38.241C40.0871 38.0745 39.8059 38.0047 39.5291 38.043C39.1781 38.079 38.8496 38.2275 38.5931 38.4705L33.4786 43.288C32.2366 44.458 32.6281 46.5461 32.9836 48.4451C33.0578 48.8389 33.1299 49.2259 33.1884 49.6062L39.6686 49.0572C39.7744 48.2854 40.1276 47.5676 40.6722 47.0096C40.7509 46.9128 40.8274 46.8161 40.8544 46.7823L45.6494 40.5722C45.7664 40.4282 45.8541 40.2662 45.9149 40.0907C45.9621 39.9444 45.9734 39.7892 45.9509 39.6384L44.5491 29.4883C44.5198 29.3195 44.4276 29.1688 44.2903 29.0675C44.1283 28.946 43.9258 28.8875 43.721 28.901C43.5275 28.9055 43.343 28.982 43.2013 29.1148C43.0933 29.2183 43.0325 29.3623 43.037 29.5108L43.3318 37.5573C43.343 37.8565 43.2935 38.1536 43.1833 38.4303C43.0685 38.7093 42.902 38.9591 42.6905 39.1728L41.3562 40.5364C41.3157 40.5814 41.2729 40.6242 41.2302 40.6647L37.3668 44.3571L37.3646 44.3522ZM29.2553 6.43372L27.498 5.5607L25.7699 6.418C25.6281 6.49675 25.4684 6.52825 25.3086 6.51025L23.4231 6.2965L22.2057 7.62855L22.208 7.6263C22.0977 7.76581 21.9425 7.86481 21.7692 7.90306L19.9781 8.31258L19.2874 9.97314L19.2851 9.97539C19.2266 10.1374 19.1164 10.2747 18.9701 10.3669L17.4153 11.3524L17.3118 13.202C17.3028 13.3595 17.2488 13.508 17.1543 13.6318L16.0067 15.1438L16.549 17.0159L16.5468 17.0181C16.5918 17.1621 16.5918 17.3174 16.5468 17.4614L16.0022 19.3425L17.1183 20.814V20.8118C17.233 20.9445 17.3005 21.1111 17.3118 21.2843L17.4153 23.1339L18.9701 24.1194C19.1051 24.2071 19.2109 24.3331 19.2739 24.4816L19.9782 26.1737L21.7693 26.5832H21.767C21.9223 26.6192 22.064 26.7002 22.172 26.8172L23.4253 28.1898L25.3086 27.9783C25.4571 27.9603 25.6079 27.9873 25.7407 28.0548L27.498 28.9278L29.2261 28.0683C29.3656 27.9918 29.5276 27.9603 29.6873 27.9783L31.5729 28.192L32.7902 26.86H32.788C32.9005 26.7205 33.0535 26.6237 33.2267 26.5832L35.0178 26.1737L35.7086 24.5131H35.7108C35.7693 24.3511 35.8796 24.2116 36.0258 24.1194L37.5807 23.1338L37.6842 21.2843C37.6932 21.129 37.7472 20.9783 37.8417 20.8545L38.9892 19.3425L38.4469 17.4681H38.4492C38.4042 17.3241 38.4042 17.1711 38.4492 17.0249L38.9937 15.1438L37.8777 13.6722V13.6745C37.7629 13.544 37.6954 13.3775 37.6842 13.202L37.5807 11.3524L36.0258 10.3669C35.8908 10.2814 35.7851 10.1554 35.7221 10.0046L35.0178 8.31255L33.2289 7.90304C33.0737 7.86703 32.9342 7.78603 32.8262 7.66903L31.5729 6.29423L29.6873 6.51024C29.5388 6.52599 29.388 6.50122 29.2553 6.43372ZM24.6628 29.6302L23.2025 29.7967V29.799C22.9325 29.8282 22.6647 29.7157 22.4982 29.5019L21.1819 28.0619L19.8701 27.7626L17.6897 32.9423L20.3741 31.617C20.5789 31.5068 20.8219 31.491 21.0379 31.5788C21.2539 31.6643 21.4204 31.842 21.4946 32.0625L22.4284 34.9337L24.6628 29.6302ZM35.1257 27.7604L33.8139 28.0596L32.4571 29.5447V29.5469C32.2884 29.7292 32.0431 29.8237 31.7956 29.7944L30.3353 29.6279L32.5674 34.9336L33.5034 32.058C33.5754 31.8352 33.7419 31.6575 33.9579 31.572C34.1739 31.4865 34.417 31.5 34.6217 31.6102L37.3061 32.9356L35.1257 27.7558L35.1257 27.7604ZM27.8442 3.98384C27.6259 3.87583 27.3694 3.87583 27.1512 3.98384L25.2521 4.92661L23.2023 4.6926H23.2C22.9525 4.6656 22.7072 4.75786 22.5385 4.94236L21.1817 6.42741L19.2556 6.86842H19.2533C18.9968 6.91793 18.7808 7.09343 18.6818 7.33644L17.919 9.17252L16.2337 10.2436C16.0199 10.3786 15.8849 10.6081 15.8714 10.8623L15.7567 12.8784L14.5394 14.4828V14.4805C14.3706 14.6808 14.3144 14.9508 14.3864 15.2005L14.9781 17.2392L14.3864 19.2778V19.28C14.3189 19.5185 14.3661 19.775 14.5146 19.9708L15.7544 21.6043L15.8646 23.5799H15.8669C15.8646 23.8477 16.0042 24.0997 16.2314 24.2437L17.9167 25.3125L18.5535 26.8448L15.4439 34.2294L15.4417 34.2272C15.2977 34.5287 15.3584 34.8887 15.5969 35.125C15.8332 35.3612 16.1932 35.4197 16.4947 35.2735L20.2794 33.4014L21.5844 37.4156C21.6857 37.7261 21.9692 37.9421 22.2955 37.9556C22.6217 37.9691 22.9232 37.7779 23.0492 37.4764L26.1859 30.0261C26.5054 30.1858 26.8249 30.3433 27.1444 30.5008V30.5031C27.3627 30.6088 27.6192 30.6088 27.8374 30.5031L28.796 30.0283L31.9326 37.4786V37.4764C32.0586 37.7779 32.3601 37.9691 32.6864 37.9556C33.0127 37.9421 33.2962 37.7261 33.3975 37.4156L34.7025 33.4014L38.4871 35.2735C38.7864 35.4197 39.1486 35.3612 39.3849 35.125C39.6234 34.8887 39.6842 34.5287 39.5379 34.2272L36.4283 26.8426L37.0651 25.3102L38.7505 24.2414V24.2437C38.9642 24.1064 39.0992 23.8769 39.1127 23.6249L39.2275 21.6088L40.4448 20.0045C40.6135 19.8042 40.6698 19.5342 40.5978 19.2844L40.006 17.2458L40.5978 15.2072V15.205C40.6675 14.9687 40.618 14.7122 40.4695 14.5142L39.2365 12.8807L39.1262 10.9051C39.1262 10.6373 38.989 10.3876 38.7617 10.2436L37.0764 9.17476L36.3114 7.33869C36.2124 7.10468 36.0076 6.93367 35.7624 6.87742L33.8115 6.4319L32.4952 4.99184C32.3287 4.77808 32.0632 4.66557 31.7909 4.69483L29.7433 4.92659L27.8442 3.98384ZM31.5704 13.1754C33.5122 15.1195 33.8092 18.1639 32.2814 20.4477C30.7536 22.7316 27.824 23.6181 25.2856 22.5651C22.7473 21.5121 21.3075 18.812 21.8452 16.1165C22.383 13.4231 24.7501 11.4836 27.4974 11.4836C29.0252 11.4836 30.4926 12.0909 31.5704 13.1754ZM27.4977 9.91279C30.9944 9.91504 34.0051 12.3857 34.6865 15.8147C35.3683 19.2439 33.5322 22.6775 30.3011 24.0162C27.0699 25.3527 23.3438 24.2232 21.4021 21.316C19.458 18.4067 19.8405 14.5322 22.3133 12.0593C23.6859 10.6845 25.5536 9.91054 27.4977 9.91279ZM24.1766 19.2236C23.8098 18.9986 23.6906 18.5239 23.9088 18.1548C24.1271 17.7858 24.6019 17.6598 24.9732 17.8736L26.3615 18.6994L29.8266 14.7054L29.8289 14.7032C29.9594 14.5344 30.1551 14.4264 30.3689 14.4062C30.5804 14.3859 30.7942 14.4534 30.9562 14.5929C31.1181 14.7324 31.2149 14.9327 31.2262 15.1465C31.2374 15.3602 31.1587 15.5695 31.0124 15.7247L27.1422 20.1867C26.8992 20.4972 26.4649 20.5782 26.1252 20.3779L24.1766 19.2236Z" fill="white" fill-opacity="0.5"/>
</svg>
