<svg width="13" height="26" viewBox="0 0 13 26" fill="none" xmlns="http://www.w3.org/2000/svg">
<path d="M10.7782 12.9078L0.2699 1.64966C0.183383 1.55893 0.114985 1.45122 0.0686617 1.33275C0.0223398 1.21428 -0.000988007 1.08742 3.14713e-05 0.95949C0.00105095 0.831563 0.0263958 0.705117 0.0746002 0.58747C0.122805 0.469822 0.19291 0.363309 0.280861 0.274093C0.368812 0.184877 0.472861 0.114731 0.586987 0.0677132C0.701115 0.0206956 0.823054 -0.0022599 0.945747 0.000175318C1.06844 0.00261053 1.18945 0.0303881 1.30178 0.0819004C1.41411 0.133413 1.51552 0.207637 1.60015 0.300278L12.7371 12.2331C12.9057 12.4137 13 12.6558 13 12.9078C13 13.1598 12.9057 13.4019 12.7371 13.5825L1.60015 25.5153C1.51552 25.608 1.41411 25.6822 1.30178 25.7337C1.18945 25.7852 1.06844 25.813 0.945747 25.8154C0.823054 25.8179 0.701115 25.7949 0.586987 25.7479C0.472861 25.7009 0.368812 25.6307 0.280861 25.5415C0.19291 25.4523 0.122805 25.3458 0.0746002 25.2281C0.0263958 25.1105 0.00105095 24.984 3.14713e-05 24.8561C-0.000988007 24.7282 0.0223398 24.6013 0.0686617 24.4829C0.114985 24.3644 0.183383 24.2567 0.2699 24.1659L10.7782 12.9078Z" fill="#1B2550"></path>
</svg>