<?xml version="1.0" encoding="UTF-8"?>
<svg xmlns="http://www.w3.org/2000/svg" width="91" height="54" viewBox="0 0 91 54" fill="none">
  <path fill-rule="evenodd" clip-rule="evenodd" d="M61.962 1.99607C60.9113 0.0742249 58.1505 0.0742249 57.0998 1.99607L54.8864 6.04482C54.4292 6.88203 53.7414 7.57055 52.9047 8.02873L48.8571 10.2432C46.9363 11.2939 46.9363 14.0536 48.8571 15.1043L52.9047 17.3199C53.7413 17.7778 54.429 18.4659 54.8864 19.3027L57.0998 23.3514C58.1505 25.2733 60.9124 25.2733 61.962 23.3514L64.1754 19.3027C64.6326 18.4655 65.3204 17.777 66.1571 17.3188L70.2047 15.1043C72.1254 14.0536 72.1254 11.295 70.2047 10.2432L66.1571 8.02873C65.3204 7.57055 64.6326 6.88203 64.1754 6.04482L61.962 1.99607ZM30.206 45.1036C29.6129 44.7921 29.0878 44.3656 28.6613 43.849C28.2349 43.3323 27.9157 42.7359 27.7223 42.0945C27.4009 41.0513 27.1016 40.0015 26.8245 38.9457C24.5432 37.0174 22.7105 34.6142 21.4545 31.904C20.1985 29.1939 19.5494 26.2421 19.5527 23.255C19.5527 11.9046 28.7486 2.70098 40.0957 2.70098C41.357 2.70098 42.595 2.81513 43.7964 3.03348C44.3749 3.13886 44.8879 3.46972 45.2224 3.95329C45.5569 4.43686 45.6857 5.03352 45.5803 5.61201C45.4749 6.1905 45.144 6.70344 44.6605 7.03798C44.1769 7.37252 43.5802 7.50126 43.0018 7.39587C42.0429 7.22135 41.0703 7.13381 40.0957 7.13431C31.2002 7.13431 23.9861 14.3496 23.9861 23.255C23.9836 25.7008 24.5385 28.1149 25.6088 30.3141C26.6791 32.5132 28.2365 34.4395 30.1628 35.9465C30.5514 36.2518 30.8268 36.6782 30.9453 37.158C31.2509 38.3787 31.5894 39.5909 31.9605 40.7933C32.0481 41.0792 32.2398 41.1967 32.415 41.2145C33.8292 41.363 36.2841 41.5325 40.0957 41.5325C43.9073 41.5325 46.3622 41.363 47.7765 41.2145C47.9516 41.1967 48.1433 41.0781 48.2309 40.7933C48.6025 39.591 48.941 38.3788 49.2461 37.158C49.3646 36.6782 49.64 36.2518 50.0286 35.9465C51.9313 34.4543 53.4753 32.5546 54.5473 30.3871C54.8132 29.8698 55.2719 29.4777 55.8243 29.2955C56.3768 29.1133 56.9787 29.1555 57.5002 29.4131C58.0218 29.6707 58.4212 30.123 58.6123 30.6724C58.8034 31.2218 58.7709 31.8243 58.5218 32.35C57.2722 34.8777 55.5174 37.1221 53.3658 38.9446C53.0891 40.0004 52.7901 41.0502 52.4691 42.0934C52.0828 43.3711 51.2066 44.4441 50.0319 45.0781L49.7803 47.4023C49.5199 49.804 47.7986 51.983 45.163 52.3288C43.4655 52.5437 41.7558 52.6493 40.0447 52.6447C37.858 52.6447 36.1622 52.4873 34.9165 52.2989C32.6222 51.952 31.1138 50.1288 30.7303 48.085C30.5439 47.0933 30.3695 46.0995 30.2072 45.1036" fill="#1B2550"></path>
</svg>
