<svg width="54" height="58" viewBox="0 0 54 58" fill="none" xmlns="http://www.w3.org/2000/svg">
<path d="M54.6116 40.2277L48.4639 25.5359C48.0354 24.6816 46.9469 24.3104 45.9904 24.694C45.9829 24.694 45.9779 24.7015 45.9704 24.7015L39.728 27.4241C38.7715 27.8077 38.2484 28.8788 38.5797 29.8652L39.16 31.2353C37.2146 32.0822 35.7025 32.6003 33.6575 31.579C31.5352 30.5129 29.2186 30.7047 27.3628 32.0374C25.4945 30.7122 23.2103 30.5203 21.0356 31.5715C21.0282 31.5715 21.0232 31.579 21.0157 31.579C18.9756 32.6501 17.3689 32.122 15.4285 31.2851L16.0537 29.7481C16.3651 28.8115 15.8619 27.8151 14.8879 27.4216L8.56081 24.8907C8.03771 24.6814 7.43242 24.6939 6.93419 24.928C6.50574 25.1248 6.19434 25.4636 6.06731 25.8472L0.158716 40.5218C-0.0380689 40.9178 -0.0505231 41.3762 0.113879 41.8171C0.305684 42.3202 0.714208 42.7288 1.22238 42.933L7.5669 45.4713C7.82845 45.566 8.09499 45.6108 8.35158 45.6108C8.6505 45.6108 8.94444 45.5461 9.20596 45.419C9.61448 45.2223 9.91341 44.8835 10.0404 44.5073L10.6408 43.0277L12.8154 43.9344C12.6934 44.1511 12.5863 44.3803 12.5215 44.6294C12.3421 45.3567 12.4517 46.0966 12.8279 46.7268C13.2688 47.4667 14.0086 47.92 14.7982 48.0396C14.7733 48.1218 14.7484 48.2065 14.721 48.2887C14.5417 49.016 14.6513 49.7559 15.0025 50.3413C15.3338 50.9989 15.9018 51.4771 16.6166 51.6814C16.9803 51.791 17.3639 51.816 17.7326 51.7637C17.6504 52.364 17.7575 52.9942 18.0838 53.5671C18.4276 54.1724 19.0403 54.6258 19.7478 54.8101C20.3033 54.9571 20.8638 54.9322 21.367 54.7453C21.3296 55.3058 21.4616 55.8538 21.7431 56.2898C22.1118 56.9524 22.7246 57.4256 23.4519 57.6149C23.6886 57.6797 23.9227 57.7096 24.1668 57.7096C24.6526 57.7096 25.1358 57.5751 25.5643 57.321L27.0813 56.3969C27.9432 55.951 40.8611 49.1131 40.8611 47.2524C40.8611 45.9571 41.1476 44.2806 42.4628 43.6429L44.1343 42.9554L44.7645 44.4475C45.0584 45.0976 45.6961 45.4738 46.416 45.4738C46.69 45.4738 46.9765 45.4165 47.2629 45.3069L53.5053 42.5843C54.021 42.38 54.4245 41.9715 54.6138 41.4683C54.8032 41.0374 54.7885 40.579 54.6116 40.2277ZM8.8496 44.0663C8.81722 44.156 8.75495 44.2257 8.6578 44.2706C8.48592 44.3528 8.2443 44.3528 8.02758 44.278L1.70047 41.7447C1.51614 41.6749 1.36917 41.528 1.30441 41.3611C1.26704 41.2589 1.26704 41.1643 1.31686 41.0422L7.26034 26.2854C7.2977 26.1758 7.40731 26.1135 7.4646 26.0886C7.55926 26.0438 7.66886 26.0239 7.77597 26.0239C7.8781 26.0239 7.98521 26.0438 8.08236 26.0811L14.4095 28.612C14.7482 28.7465 14.9376 29.0654 14.8554 29.3145L14.0582 31.2774C14.0333 31.3098 14.0084 31.3421 13.9885 31.3795L11.769 36.902L8.8496 44.0663ZM13.1366 36.9248L14.9551 32.4684C17.035 33.3677 19.0627 34.0502 21.6062 32.7175C23.6588 31.7236 25.8458 32.1247 27.4924 33.826C29.9161 35.9433 31.899 37.3906 33.7223 38.3596C34.1757 38.6212 34.2952 38.9724 34.086 39.4058C33.6725 40.2677 32.0459 41.1396 29.8712 40.2802C29.3805 40.0883 28.9919 39.8268 28.5834 39.5528C28.0678 39.2016 27.5323 38.8453 26.765 38.6037C24.4683 37.8888 22.0271 38.1753 19.6681 39.4581C19.6681 39.4581 19.6606 39.4581 19.6606 39.4656L13.8118 42.9231C13.8043 42.9231 13.8043 42.9305 13.7993 42.9305C13.7919 42.938 13.7794 42.943 13.7744 42.9505L11.1589 41.8669L13.1366 36.9248ZM41.9526 42.4971C40.4356 43.2295 39.6185 44.8436 39.5937 47.1652C38.7468 48.4207 29.0966 54.0651 26.5012 55.283C26.4813 55.2955 26.4639 55.303 26.4439 55.3154L24.9145 56.247C24.5757 56.4513 24.1822 56.5011 23.7911 56.399C23.395 56.2968 23.0712 56.0428 22.847 55.6467C22.6552 55.3528 22.5979 54.9642 22.6875 54.5805C22.7772 54.1969 23.0064 53.8656 23.3178 53.6614L25.0266 52.6724C25.333 52.4931 25.4351 52.1045 25.2632 51.7981C25.0839 51.4917 24.6953 51.3896 24.3889 51.5615L22.6602 52.5554C22.4235 52.6899 22.1695 52.8418 21.9129 52.9963C21.6712 53.1432 21.4221 53.2902 21.1855 53.4297C20.8667 53.6215 20.4706 53.6713 20.082 53.5692C19.6984 53.4671 19.3745 53.2304 19.2027 52.9315C18.7742 52.1792 18.9984 51.2875 19.7058 50.859L26.2294 46.9955C26.5284 46.8161 26.6305 46.4275 26.4536 46.1212C26.2743 45.8222 25.8857 45.7201 25.5793 45.897L19.0602 49.7804L18.1235 50.3159C17.7798 50.5202 17.3638 50.5775 16.9826 50.4629C16.6189 50.3533 16.325 50.1117 16.1357 49.7356C15.9314 49.3968 15.8742 48.9957 15.9763 48.5997C16.0709 48.2036 16.3151 47.8798 16.6513 47.6756L22.5052 44.2828C22.8116 44.1035 22.9137 43.7149 22.7343 43.4085C22.555 43.1021 22.1664 43 21.86 43.1793L15.9987 46.577H15.9912H15.9838C15.2888 46.9905 14.3447 46.7613 13.9312 46.0614C13.7269 45.7226 13.6696 45.3215 13.7717 44.9255C13.8365 44.664 13.9685 44.4348 14.1479 44.2505C14.2301 44.2181 14.2998 44.1733 14.3646 44.116C14.4742 44.0711 14.5689 43.9939 14.6386 43.8918C15.092 43.6227 15.5503 43.3637 16.0086 43.0947C17.4185 42.2776 18.8708 41.4307 20.2483 40.5763L20.2931 40.5514C22.3158 39.4478 24.4182 39.1938 26.3836 39.8041C26.9714 39.9884 27.4099 40.2823 27.8682 40.5937C28.3141 40.8926 28.7799 41.2115 29.3976 41.4481C32.0754 42.5143 34.4667 41.5178 35.2265 39.9435C35.7297 38.8973 35.3859 37.8386 34.3347 37.2259C32.5811 36.2892 30.6755 34.8993 28.3663 32.8841L28.3539 32.8716C29.7812 31.9649 31.4726 31.8952 33.0868 32.6998C35.6301 33.9677 37.6154 33.2802 39.6607 32.3884L43.6463 41.7816L41.9526 42.4971ZM53.4438 41.025C53.3791 41.1919 53.2346 41.3363 53.0353 41.421L46.7929 44.1437C46.4815 44.2707 46.078 44.2383 45.9509 43.9518L45.0966 41.9441C45.0891 41.9317 45.0966 41.9118 45.0891 41.8993C45.0816 41.8794 45.0692 41.8744 45.0567 41.8545L40.6701 31.5245C40.6701 31.4473 40.6502 31.3651 40.6203 31.2879C40.5879 31.2231 40.543 31.1658 40.4982 31.116L39.7709 29.4121C39.6812 29.1506 39.8406 28.7545 40.2242 28.6026L46.4741 25.8725C46.8378 25.733 47.2139 25.88 47.3086 26.0643L53.4563 40.7561C53.4837 40.8283 53.4837 40.9228 53.4438 41.025Z" fill="#1B2550" fill-opacity="0.5"/>
<path d="M27.3754 22.723C32.5018 22.723 36.6716 18.5531 36.6716 13.4267C36.6716 8.29779 32.5017 4.12793 27.3754 4.12793C22.249 4.12793 18.0791 8.29786 18.0791 13.4242C18.0791 18.5507 22.249 22.723 27.3754 22.723ZM27.3754 5.40331C31.8018 5.40331 35.3963 9.00028 35.3963 13.4242C35.3963 17.8507 31.8018 21.4476 27.3754 21.4476C22.949 21.4476 19.3545 17.8507 19.3545 13.4267C19.3545 9.00028 22.949 5.40331 27.3754 5.40331Z" fill="#1B2550" fill-opacity="0.5"/>
<path d="M25.9849 16.3394C26.1069 16.4614 26.2664 16.5312 26.4382 16.5312H26.4457C26.6126 16.5312 26.777 16.4614 26.8991 16.3468L31.8287 11.4172C32.0778 11.1681 32.0778 10.767 31.8287 10.5179C31.5797 10.2687 31.1786 10.2688 30.9295 10.5179L26.4532 14.9942L23.9099 12.3936C23.6608 12.1445 23.2598 12.1395 23.0106 12.3811C22.7615 12.6302 22.7565 13.0313 22.9982 13.2804L25.9849 16.3394Z" fill="#1B2550" fill-opacity="0.5"/>
<path d="M21.5262 25.5029L27.0562 28.6988C27.1584 28.7561 27.2655 28.781 27.3751 28.781C27.4847 28.781 27.5993 28.7561 27.6939 28.6988L33.2239 25.4979C37.912 22.7678 40.602 18.0994 40.602 12.6943L40.5995 3.17105C40.5995 2.86466 40.3828 2.60311 40.0889 2.54582L27.5021 0.0149459C27.4199 -0.00498197 27.3352 -0.00498197 27.253 0.0149459L14.6586 2.54582C14.3597 2.60311 14.1479 2.86466 14.1479 3.17105V12.6988C14.1504 18.1043 16.8334 22.7729 21.5262 25.5029ZM15.4258 3.69447L27.3749 1.29069L39.3239 3.69447V12.6993C39.3239 17.6414 36.8678 21.9082 32.5835 24.4022L27.3749 27.4088L22.1637 24.3997C17.8792 21.9062 15.4182 17.6389 15.4182 12.6923V3.69511L15.4258 3.69447Z" fill="#1B2550" fill-opacity="0.5"/>
</svg>
