<?xml version="1.0" encoding="UTF-8"?>
<svg xmlns="http://www.w3.org/2000/svg" width="18" height="18" viewBox="0 0 18 18" fill="none">
  <g clip-path="url(#clip0_1355_2098)">
    <path fill-rule="evenodd" clip-rule="evenodd" d="M13.5 5.13713C13.5123 5.04818 13.503 4.95759 13.473 4.87295L13.4584 4.80213C13.417 4.62989 13.3486 4.46524 13.2559 4.31426C13.1524 4.14564 13.0062 3.9995 12.7137 3.70722L9.79991 0.794582C9.50853 0.502306 9.36228 0.356168 9.19241 0.251623C9.02084 0.146645 8.83186 0.0731694 8.63441 0.0346644C8.5497 0.00470068 8.45905 -0.00455058 8.37003 0.00768511C8.24516 0.0043127 8.09328 0.0043127 7.89191 0.0043127H5.40566C3.51566 0.0043127 2.57066 0.00431269 1.85066 0.371906C1.21714 0.696375 0.701626 1.21149 0.376908 1.84453C0.00903324 2.56622 0.0090332 3.50713 0.0090332 5.39568V12.5902C0.0090332 14.4787 0.00903324 15.423 0.376908 16.1424C0.701626 16.7755 1.21714 17.2906 1.85066 17.6151C2.57291 17.9826 3.51566 17.9826 5.40566 17.9826H8.13153C8.58266 17.9826 8.80878 17.3947 8.52191 17.0474C8.47515 16.9892 8.4161 16.9422 8.349 16.9095C8.2819 16.8769 8.20841 16.8595 8.13378 16.8585H5.40003C4.43591 16.8585 3.78003 16.8574 3.27378 16.8158C2.78103 16.7753 2.52791 16.7034 2.35241 16.6134C1.92906 16.3979 1.58487 16.054 1.36916 15.631C1.27916 15.4556 1.20603 15.2038 1.16666 14.7103C1.12616 14.2044 1.12503 13.5524 1.12503 12.5857V5.39118C1.12503 4.42779 1.12503 3.77242 1.16666 3.26656C1.20716 2.77419 1.28028 2.52126 1.36916 2.34589C1.58516 1.92322 1.92941 1.57923 2.35241 1.3634C2.52791 1.27346 2.78103 1.2004 3.27491 1.16105C3.78003 1.12058 4.43253 1.12058 5.40003 1.12058H7.87503V5.05506C7.87503 5.20413 7.9343 5.3471 8.03979 5.45251C8.14528 5.55792 8.28835 5.61713 8.43753 5.61713H12.375V6.23204C12.375 6.51307 12.6079 6.7379 12.888 6.76375C13.2087 6.79186 13.4989 6.55242 13.4989 6.23091V5.60926C13.4989 5.40917 13.4989 5.25741 13.4933 5.13151L13.5 5.13713ZM9.00003 1.58485L11.9138 4.49637H9.00003V1.58485Z" fill="white"></path>
    <path fill-rule="evenodd" clip-rule="evenodd" d="M12.3749 16.8619C13.3131 16.8619 14.1861 16.5752 14.9061 16.0851L16.5599 17.7376C16.718 17.8956 16.9325 17.9844 17.1561 17.9844C17.3797 17.9844 17.5942 17.8956 17.7524 17.7376C17.9105 17.5796 17.9993 17.3653 17.9993 17.1418C17.9993 16.9183 17.9105 16.704 17.7524 16.546L16.0986 14.8935C16.5891 14.173 16.876 13.3085 16.876 12.3642C16.876 9.87988 14.8622 7.86768 12.376 7.86768C9.88973 7.86768 7.87598 9.87988 7.87598 12.3642C7.87598 14.8486 9.88973 16.8608 12.376 16.8608L12.3749 16.8619ZM12.3749 15.7378C14.2424 15.7378 15.7499 14.2314 15.7499 12.3654C15.7499 10.4993 14.2424 8.99294 12.3749 8.99294C10.5074 8.99294 8.99985 10.4993 8.99985 12.3654C8.99985 14.2314 10.5074 15.7378 12.3749 15.7378Z" fill="white"></path>
  </g>
  <defs>
    <clipPath id="clip0_1355_2098">
      <rect width="18" height="17.9862" fill="white"></rect>
    </clipPath>
  </defs>
</svg>
