<svg class="plus-symbols" width="138" height="111" viewBox="0 0 138 111" fill="none" xmlns="http://www.w3.org/2000/svg"><path d="M24.509 15.416h3.9v5.79h5.832v3.837h-5.832v5.79h-3.9v-5.79h-5.832v-3.837h5.832zM3.11 51.389h2.08v3.088H8.3v2.046H5.19v3.088H3.11v-3.088H0v-2.046h3.11zM88.193 0h2.08v3.088h3.11v2.046h-3.11v3.088h-2.08V5.134h-3.11V3.088h3.11zm-30.09 100.722h2.08v3.088h3.11v2.046h-3.11v3.088h-2.08v-3.088h-3.11v-2.046h3.11zm66.921-33.916h5.2v7.72H138v5.116h-7.776v7.72h-5.2v-7.72h-7.776v-5.116h7.776zM16.077 74h5.2v7.72h7.775v5.116h-7.776v7.72h-5.2v-7.72H8.302v-5.115h7.776zm81.195 26.722h2.6v3.86h3.888v2.558h-3.888V111h-2.6v-3.86h-3.888v-2.558h3.888zm15.564-80.166h2.6v3.86h3.888v2.558h-3.888v3.86h-2.6v-3.86h-3.888v-2.558h3.888zM59.657 13.36h19.725v30.415h29.566v20.321H79.382v30.46H59.656v-30.46H30.092V43.775h29.566z" fill="#FCBA17" fill-opacity=".8"></path></svg>