<svg width="355" height="174" viewBox="0 0 355 174" fill="none" xmlns="http://www.w3.org/2000/svg"> <g style="mix-blend-mode:soft-light" opacity="0.4"> <path d="M35.1661 158.168V81.6004H24.5326V166.757H79.7987V158.168H35.1661Z" fill="white" stroke="white" stroke-width="13.5131"></path> <path d="M109.8 158.168V127.164H158.313V118.714H109.8V90.1893H162.152V81.6004H99.1901V166.757H162.536V158.168H109.8Z" fill="white" stroke="white" stroke-width="13.5131"></path> <path d="M204.031 136.416L221.916 89.2816L239.801 136.416H203.996H204.031ZM251.341 166.757H262.079L229.865 81.6004H214.141L181.927 166.757H192.526L200.823 145.005H243.009L251.306 166.757H251.341Z" fill="white" stroke="white" stroke-width="13.5131"></path> <path d="M319.569 120.635H292V90.1545H319.707C330.756 90.1545 335.708 95.0076 335.708 104.888C335.708 114.769 331.379 120.635 319.569 120.635ZM344.09 144.202C344.09 131.668 338.375 127.827 330.375 125.523C339.76 123.358 346.757 115.398 346.757 104.015C346.757 90.329 338.237 81.6004 320.85 81.6004H281.471V166.757H292V128.595H315.759C327.431 128.595 333.907 133.588 333.907 145.738V153.559C333.907 159.704 334.531 163.929 335.431 166.757H345.718C344.956 163.545 344.055 159.46 344.055 153.175V144.202H344.09Z" fill="white" stroke="white" stroke-width="13.5131"></path> <path d="M35.0493 6.75653H23.7463V23.4935H6.75659V34.6515H23.7463V51.4234H35.0493V34.6515H52.0037V23.4935H35.0493V6.75653Z" fill="white" stroke="white" stroke-width="13.5131"></path> </g> </svg>