<?xml version="1.0" encoding="UTF-8"?>
<svg xmlns="http://www.w3.org/2000/svg" width="54" height="59" viewBox="0 0 54 59" fill="none">
  <path d="M43.6369 38.3715H37.9215C35.3006 38.3715 32.8503 39.779 31.4959 42.0075C30.967 41.8924 30.4147 41.8262 29.8517 41.8262H24.132C23.569 41.8262 23.0188 41.8924 22.4878 42.0118C21.1337 39.7854 18.6834 38.3758 16.0622 38.3758H10.3469C6.20976 38.3758 2.84033 41.7452 2.84033 45.8823V51.5338C2.84033 52.5595 3.67626 53.3955 4.70207 53.3955H16.6317V54.9907C16.6317 56.0164 17.4677 56.8524 18.4935 56.8524H35.5047C36.5304 56.8524 37.3664 56.0165 37.3664 54.9907V53.3955H49.2961C50.3218 53.3955 51.1578 52.5596 51.1578 51.5338L51.1557 45.8785C51.1429 41.7393 47.7759 38.3715 43.6369 38.3715ZM4.70327 51.6955C4.60943 51.6955 4.5348 51.6187 4.5348 51.527L4.53266 45.8777C4.53266 42.6725 7.14287 40.0647 10.3457 40.0647H16.0611C17.9718 40.0647 19.7675 41.0307 20.8444 42.5875C18.3493 43.8094 16.6241 46.3706 16.6241 49.3346V51.6975L4.70327 51.6955ZM35.6679 54.9775C35.6679 55.0713 35.5911 55.1459 35.4994 55.1459H18.4882C18.3944 55.1459 18.3198 55.0692 18.3198 54.9775L18.3176 49.3325C18.3176 46.7458 20.0152 44.5493 22.3524 43.7963H22.3588C22.9218 43.6171 23.5168 43.5169 24.1331 43.5169H29.8484C30.4647 43.5169 31.0661 43.615 31.6227 43.7963C33.9642 44.549 35.6617 46.7434 35.6617 49.3325V54.9775H35.6679ZM49.4527 51.527C49.4527 51.6209 49.3759 51.6955 49.2842 51.6955H37.3589V49.3326C37.3589 46.3727 35.6336 43.8073 33.1386 42.5855C34.2198 41.0287 36.0111 40.0627 37.9219 40.0627H43.6372C46.8467 40.0627 49.4568 42.6729 49.4568 45.8758V51.5272L49.4527 51.527ZM35.2306 32.7033C35.2306 35.7614 37.7193 38.25 40.7773 38.25C43.8353 38.25 46.3239 35.7613 46.3239 32.7033C46.3239 29.6452 43.8353 27.1567 40.7773 27.1567C37.7193 27.1567 35.2306 29.6475 35.2306 32.7033ZM40.7773 28.8498C42.9055 28.8498 44.6372 30.5815 44.6372 32.7097C44.6372 34.8337 42.9055 36.5632 40.7773 36.5632C38.649 36.5632 36.9174 34.8316 36.9174 32.7097C36.9238 30.5793 38.6533 28.8498 40.7773 28.8498ZM13.2078 38.2502C16.2659 38.2502 18.7544 35.7615 18.7544 32.7035C18.7544 29.6455 16.2658 27.1569 13.2078 27.1569C10.1498 27.1569 7.66112 29.6456 7.66112 32.7035C7.65472 35.7659 10.1455 38.2502 13.2078 38.2502ZM13.2078 28.8498C15.3318 28.8498 17.0613 30.5815 17.0613 32.7097C17.0613 34.8337 15.3296 36.5632 13.2078 36.5632C11.0795 36.5632 9.34788 34.8316 9.34788 32.7097C9.34788 30.5793 11.0795 28.8498 13.2078 28.8498ZM21.4459 36.1604C21.4459 39.2185 23.9346 41.707 26.9925 41.707C30.0505 41.707 32.5392 39.2184 32.5392 36.1604C32.5392 33.1023 30.0505 30.6137 26.9925 30.6137C23.9346 30.6137 21.4459 33.0981 21.4459 36.1604ZM30.8463 36.1604C30.8463 38.2844 29.1146 40.0139 26.9864 40.0139C24.8624 40.0139 23.1329 38.2822 23.1329 36.1604C23.1329 34.0321 24.8645 32.3005 26.9864 32.3005C29.1167 32.3005 30.8463 34.03 30.8463 36.1604ZM26.9927 23.2327C32.6268 23.2327 37.212 18.6478 37.212 13.0135C37.212 7.37726 32.6271 2.79199 26.9927 2.79199C21.3584 2.79199 16.7735 7.37694 16.7735 13.0113C16.7735 18.6456 21.3584 23.2327 26.9927 23.2327ZM26.9927 4.48547C31.6929 4.48547 35.5207 8.31337 35.5207 13.0135C35.5207 17.7115 31.6928 21.5393 26.9927 21.5393C22.2927 21.5393 18.4648 17.7114 18.4648 13.0113C18.4648 8.31119 22.2863 4.48547 26.9927 4.48547ZM22.7682 15.3315H24.6725V17.2358C24.6725 17.946 25.2505 18.5197 25.9564 18.5197H28.0313C28.7351 18.5197 29.3151 17.9417 29.3151 17.2358V15.3315H31.2195C31.9297 15.3315 32.5033 14.7536 32.5033 14.0477V11.9791C32.5033 11.2689 31.9254 10.6953 31.2195 10.6953H29.3151V8.7909C29.3151 8.08714 28.7415 7.50709 28.0313 7.50709H25.9564C25.2462 7.50709 24.6725 8.08075 24.6725 8.7909V10.6953H22.7682C22.058 10.6953 21.4844 11.2732 21.4844 11.9791V14.0477C21.478 14.7536 22.058 15.3315 22.7682 15.3315ZM23.1712 12.3843H25.5128C25.9819 12.3843 26.3594 12.0069 26.3594 11.5377V9.19614H27.6197V11.5377C27.6197 12.0069 27.9972 12.3843 28.4664 12.3843H30.8143V13.6447H28.4664C27.9972 13.6447 27.6197 14.0221 27.6197 14.4913V16.8328H26.3594V14.4913C26.3594 14.0221 25.9819 13.6447 25.5128 13.6447H23.1712V12.3843Z" fill="#1B2550" fill-opacity="0.5"></path>
</svg>
