<svg width="23" height="23" viewBox="0 0 23 23" fill="none" xmlns="http://www.w3.org/2000/svg">
<path d="M18.2647 10.7751C18.1181 15.7921 15.5165 18.5155 11.7133 20.1449C9.65527 19.2636 7.9495 18.0615 6.79327 16.3496M18.2712 8.90113V4.80466L11.7157 2.34229L5.15356 4.80466V10.3202C5.15356 11.5322 5.2913 12.6158 5.55084 13.586" stroke="white" stroke-width="0.75" stroke-linejoin="round"/>
<path d="M4.34196 14.3506C3.69873 13.7617 2.94118 12.5342 2.66149 12.464C2.66149 12.464 1.81915 14.5412 1.87443 15.9284C1.92925 17.3152 3.23118 18.0999 4.60291 17.437C5.97465 16.7745 20.6135 9.36959 20.6135 9.36959L16.3971 8.43262L4.34196 14.3506Z" stroke="white" stroke-width="0.75" stroke-linecap="round" stroke-linejoin="round"/>
<path d="M13.1177 9.83808L8.90133 8.43262L7.96436 8.90111L9.36982 11.712" stroke="white" stroke-width="0.75" stroke-linecap="round" stroke-linejoin="round"/>
</svg>
