<svg width="401" height="215" viewBox="0 0 401 215" fill="none" xmlns="http://www.w3.org/2000/svg">
<g clip-path="url(#clip0_1269_6815)">
<path d="M231.927 27.231V39.1842H213.973V57.1406H202.022V39.1842H184.068V27.231H202.022V9.27454H213.973V27.231H231.927Z" fill="#FCBA17" fill-opacity="0.2"/>
<path d="M270.128 170.269V182.249H252.201V200.205H240.223V182.249H222.269V170.269H240.223V152.312H252.201V170.269H270.128Z" fill="#FCBA17" fill-opacity="0.2"/>
<path d="M190.977 153.246V160.744H179.692V172.03H172.196V160.744H160.911V153.246H172.196V141.96H179.692V153.246H190.977Z" fill="#FCBA17" fill-opacity="0.2"/>
<path d="M161.899 64.264V70.2939H152.855V79.3389H146.826V70.2939H137.783V64.264H146.826V55.2191H152.855V64.264H161.899Z" fill="#FCBA17" fill-opacity="0.2"/>
<path d="M57.6436 190.093V196.123H48.6V205.167H42.5709V196.123H33.554V190.093H42.5709V181.048H48.6V190.093H57.6436Z" fill="#FCBA17" fill-opacity="0.2"/>
<path d="M324.523 136.757V142.787H315.479V151.832H309.45V142.787H300.433V136.757H309.45V127.712H315.479V136.757H324.523Z" fill="#FCBA17" fill-opacity="0.2"/>
<path d="M352.401 181.155V187.185H343.358V196.229H337.355V187.185H328.312V181.155H337.355V172.11H343.358V181.155H352.401Z" fill="#FCBA17" fill-opacity="0.2"/>
<path d="M282.267 100.471V104.767H275.837V111.224H271.542V104.767H265.086V100.471H271.542V94.0143H275.837V100.471H282.267Z" fill="#FCBA17" fill-opacity="0.2"/>
<path d="M223.417 86.1161V89.0778H218.988V93.5068H216.027V89.0778H211.598V86.1161H216.027V81.6871H218.988V86.1161H223.417Z" fill="#FCBA17" fill-opacity="0.2"/>
<path d="M155.389 201.859V204.821H150.961V209.25H148V204.821H143.571V201.859H148V197.43H150.961V201.859H155.389Z" fill="#FCBA17" fill-opacity="0.2"/>
<path d="M144.611 112.744V115.706H140.183V120.135H137.248V115.706H132.82V112.744H137.248V108.315H140.183V112.744H144.611Z" fill="#FCBA17" fill-opacity="0.2"/>
<path d="M111.879 173.951V176.913H107.45V181.342H104.489V176.913H100.061V173.951H104.489V169.522H107.45V173.951H111.879Z" fill="#FCBA17" fill-opacity="0.2"/>
<path d="M88.3496 101.725V104.686H83.9212V109.115H80.96V104.686H76.5316V101.725H80.96V97.2955H83.9212V101.725H88.3496Z" fill="#FCBA17" fill-opacity="0.2"/>
<path d="M88.1357 28.9916V31.9533H83.7073V36.3823H80.7728V31.9533H76.3444V28.9916H80.7728V24.5625H83.7073V28.9916H88.1357Z" fill="#FCBA17" fill-opacity="0.2"/>
<path d="M34.4082 125.871V128.833H29.9798V133.262H27.0453V128.833H22.6169V125.871H27.0453V121.442H29.9798V125.871H34.4082Z" fill="#FCBA17" fill-opacity="0.2"/>
<path d="M400.5 194.362V196.523H397.299V199.725H395.138V196.523H391.937V194.362H395.138V191.16H397.299V194.362H400.5Z" fill="#FCBA17" fill-opacity="0.2"/>
<path d="M364.939 104.499V106.634H361.712V109.862H359.577V106.634H356.349V104.499H359.577V101.271H361.712V104.499H364.939Z" fill="#FCBA17" fill-opacity="0.2"/>
<path d="M335.834 11.6491V13.4367H333.193V16.0781H331.406V13.4367H328.765V11.6491H331.406V9.0076H333.193V11.6491H335.834Z" fill="#FCBA17" fill-opacity="0.2"/>
<path d="M304.756 49.7231V53.7252H298.753V59.7285H294.779V53.7252H288.776V49.7231H294.779V43.7465H298.753V49.7231H304.756Z" fill="#FCBA17" fill-opacity="0.2"/>
</g>
<defs>
<clipPath id="clip0_1269_6815">
<rect width="214.5" height="400.5" fill="white" transform="matrix(0 -1 -1 0 400.5 214.5)"/>
</clipPath>
</defs>
</svg>
