<svg width="23" height="23" viewBox="0 0 23 23" fill="none" xmlns="http://www.w3.org/2000/svg">
<g clip-path="url(#clip0_1355_2110)">
<path d="M1.87399 14.0547H3.74794V20.6135H1.87399V14.0547ZM7.49585 9.36981H9.36981V20.6135H7.49585V9.36981ZM13.1177 13.1177H14.9917V20.6135H13.1177V13.1177ZM18.7396 9.36981H20.6135V20.6135H18.7396V9.36981ZM16.8656 4.68492H17.8026V5.6219H16.8656V4.68492ZM15.9286 5.6219H16.8656V6.55888H15.9286V5.6219ZM13.1177 6.55888H14.9917V7.49585H13.1177V6.55888ZM13.1177 9.36981H14.9917V10.3068H13.1177V9.36981ZM12.1807 7.49585H13.1177V9.36981H12.1807V7.49585ZM14.9917 7.49585H15.9286V9.36981H14.9917V7.49585ZM11.2438 5.6219H12.1807V6.55888H11.2438V5.6219ZM10.3068 4.68492H11.2438V5.6219H10.3068V4.68492ZM7.49585 3.74794H9.36981V4.68492H7.49585V3.74794ZM7.49585 0.937012H9.36981V1.87399H7.49585V0.937012ZM9.36981 1.87399H10.3068V3.74794H9.36981V1.87399ZM6.55888 1.87399H7.49585V3.74794H6.55888V1.87399ZM18.7396 3.74794H20.6135V4.68492H18.7396V3.74794ZM17.8026 1.87399H18.7396V3.74794H17.8026V1.87399ZM18.7396 0.937012H20.6135V1.87399H18.7396V0.937012ZM20.6135 1.87399H21.5505V3.74794H20.6135V1.87399ZM5.6219 5.6219H6.55888V6.55888H5.6219V5.6219ZM4.68492 6.55888H5.6219V7.49585H4.68492V6.55888ZM3.74794 8.43283H4.68492V10.3068H3.74794V8.43283ZM0.937012 8.43283H1.87399V10.3068H0.937012V8.43283ZM1.87399 7.49585H3.74794V8.43283H1.87399V7.49585ZM1.87399 10.3068H3.74794V11.2438H1.87399V10.3068Z" fill="white"/>
</g>
<defs>
<clipPath id="clip0_1355_2110">
<rect width="22.4875" height="22.4875" fill="white"/>
</clipPath>
</defs>
</svg>
