<?xml version="1.0" encoding="UTF-8"?>
<svg xmlns="http://www.w3.org/2000/svg" width="45" height="45" viewBox="0 0 45 45" fill="none">
  <path d="M17.9916 0.0313537C18.4726 -0.0116049 19.197 0.00797534 19.6947 0.00751115L22.6585 0.00624395L25.0301 0.00611774C26.7598 0.00451418 27.224 -0.193229 27.3295 1.79565C27.378 2.71032 27.5059 3.69651 27.5468 4.62733C28.9807 5.02704 29.9686 5.49604 31.2831 6.15418C31.9676 5.63386 34.0113 3.62962 34.6527 3.53235C34.9358 3.48935 35.189 3.60945 35.4047 3.78453C35.7781 4.08765 36.1153 4.46794 36.4559 4.80879L38.3274 6.68293L40.2525 8.60113C40.5833 8.931 40.9851 9.29264 41.2653 9.65526C41.7257 10.2512 41.2357 10.844 40.8619 11.2865C40.1761 12.0968 39.4765 12.8892 38.8144 13.7102C39.4642 14.8905 39.982 16.1389 40.3584 17.4328C41.0745 17.4655 44.1238 17.6148 44.5863 17.9317C44.7978 18.0766 44.9117 18.3212 44.9433 18.5694C44.999 19.0072 44.9666 19.4753 44.9666 19.9171L44.9674 22.4435L44.9661 25.251C44.967 26.03 45.2151 27.553 44.2184 27.7087C42.9414 27.9087 41.6307 27.9328 40.3424 28.075C40.0238 29.338 39.4085 30.6398 38.8148 31.7931C39.3279 32.4194 41.3197 34.5373 41.4404 35.1463C41.4902 35.3978 41.3978 35.6463 41.2509 35.848C41.0121 36.1764 40.6732 36.462 40.385 36.7477L38.9802 38.1521L36.6677 40.4655C36.2588 40.8748 35.8613 41.2976 35.427 41.6795C34.7616 42.2657 34.2653 41.8411 33.715 41.3858C32.8909 40.7035 32.095 39.9789 31.2578 39.3181C30.8113 39.5801 30.2973 39.9051 29.7872 40.0122C29.5247 40.0675 29.2622 40.0287 29.0394 39.8738C28.8102 39.7147 28.6575 39.4523 28.625 39.1763C28.5955 38.9227 28.6642 38.6724 28.8288 38.4762C29.0398 38.2234 31.021 37.1908 31.3515 37.1668C31.5076 37.1554 31.6469 37.1866 31.7853 37.2583C32.3347 37.5428 34.1497 39.1674 34.7008 39.6713L39.1545 35.2033C38.7747 34.7965 36.7158 32.492 36.6571 32.0527C36.6318 31.8662 36.7048 31.6623 36.7736 31.4918C36.9449 31.0656 37.1969 30.6609 37.4053 30.2508C37.7391 29.595 38.0421 28.8911 38.2776 28.1936C38.4464 27.6922 38.5131 26.9626 38.8401 26.5432C39.1068 26.2014 39.5035 26.1857 39.9006 26.1444C40.9007 26.0878 42.0076 25.9743 43.0148 25.8929L43.022 19.6046C42.2616 19.5159 39.4803 19.4609 38.9962 19.1029C38.8789 19.0161 38.7928 18.9001 38.7354 18.7669C38.5494 18.3376 38.4405 17.8495 38.297 17.402C38.0649 16.6817 37.7792 15.9797 37.4429 15.3018C36.4774 13.3981 36.2255 13.7126 37.6927 11.9928L39.1541 10.2868C38.6852 9.76219 38.0311 9.14237 37.5235 8.63657L34.7097 5.82101C34.1628 6.28744 31.9954 8.304 31.4612 8.32481C31.2844 8.33169 31.0843 8.26105 30.9244 8.19277C30.5556 8.03566 30.2041 7.81365 29.8479 7.62814C29.2065 7.29376 28.5351 6.99212 27.8477 6.76581C27.3717 6.60908 26.3336 6.41357 25.988 6.1032C25.8698 5.99724 25.7888 5.86625 25.7424 5.71493C25.5284 5.0183 25.4533 2.81433 25.3968 1.95584L19.0984 1.95677C19.0109 2.68031 18.9301 5.5744 18.5937 5.9961C18.4221 6.21119 18.1443 6.30639 17.891 6.38699C16.8643 6.71361 15.8918 7.00157 14.9201 7.47872C14.3727 7.74753 13.6712 8.27442 13.0608 8.31793C12.8644 8.3319 12.6919 8.23834 12.5303 8.13597C12.1689 7.90716 11.8405 7.58915 11.5138 7.31245L9.759 5.82498C8.28301 7.30431 6.77857 8.79052 5.32085 10.285C6.12967 11.2293 7.10333 12.2615 7.77029 13.294C8.02897 13.6944 6.87959 15.6193 6.61695 16.0311C6.26446 16.5839 5.18763 16.4121 4.99727 15.7351C4.81117 15.0733 5.3525 14.2796 5.65823 13.7034C5.18286 13.1235 3.08666 10.8627 3.01788 10.3131C2.98053 10.0147 3.11755 9.76835 3.305 9.54989C3.65276 9.14456 4.05581 8.7741 4.43387 8.39638L6.46334 6.36893L8.11763 4.70569C9.72794 3.08863 9.66561 3.16771 11.4091 4.64881C12.0048 5.14781 12.5943 5.65429 13.1773 6.1681C14.5687 5.45245 15.4432 5.08059 16.9313 4.61999C16.9448 3.93126 17.1176 0.994166 17.3485 0.519934C17.4852 0.239226 17.7095 0.129382 17.9916 0.0313537Z" fill="#2E2A50"></path>
  <path d="M15.9388 19.1511C18.8136 19.0451 21.8034 19.2071 24.6882 19.1516C26.0816 19.1248 25.841 20.3801 25.8419 21.3963L25.8427 23.9637L25.8415 27.216C25.841 27.8549 25.8562 28.4925 25.8043 29.1293C25.7638 29.6234 25.4355 29.9661 24.9346 30.0024C24.6493 30.0209 24.3696 29.9184 24.1632 29.72C24.0286 29.5909 23.9121 29.3808 23.9016 29.1989C23.8623 28.5364 23.8801 27.7979 23.8805 27.1358C23.8889 25.5858 23.8851 24.0358 23.8703 22.4863C22.3508 24.0455 20.7507 25.6107 19.2078 27.1531L10.3023 36.0575L7.60816 38.7603C7.32311 39.0469 6.47022 39.9369 6.18049 40.139C6.03089 40.2449 5.85463 40.3069 5.67165 40.3175C5.39537 40.3339 5.12488 40.2335 4.92676 40.0402C4.58494 39.7026 4.55578 39.1047 4.87688 38.7511C5.43521 38.1362 6.04448 37.5501 6.63269 36.9631L10.0427 33.5572L18.0265 25.5757C19.5061 24.0966 21.0371 22.5973 22.4909 21.0988C20.7807 21.1355 19.0213 21.0882 17.3063 21.1093C16.85 21.1152 15.7345 21.1629 15.3855 20.9237C15.1741 20.776 15.0308 20.5498 14.9878 20.2957C14.8683 19.6274 15.3173 19.2335 15.9388 19.1511Z" fill="#2E2A50"></path>
  <path d="M21.8566 9.2779C24.2489 9.17283 26.7171 9.80556 28.8039 10.966C31.9262 12.7116 34.229 15.6238 35.2071 19.0643C36.1824 22.5338 35.7388 26.2486 33.9741 29.3912C33.1225 30.8833 31.9966 32.2008 30.6547 33.2739C30.1846 33.6579 29.493 34.2715 28.8334 33.8457C28.5047 33.6334 28.435 33.3321 28.3612 32.9722C28.5676 32.1679 29.4162 31.8142 30.004 31.2669C31.8865 29.5148 33.0453 27.458 33.5588 24.9248C33.8222 23.5369 33.8319 22.1123 33.588 20.7205C33.0499 17.6963 31.3257 15.0124 28.7988 13.2658C24.6169 10.3782 19.0389 10.5652 15.0601 13.7263C14.0128 14.5612 13.3209 15.4408 12.559 16.3697C12.0357 17.0077 10.2485 16.2578 11.344 14.7877C13.8953 11.364 17.5931 9.43594 21.8566 9.2779Z" fill="#2E2A50"></path>
  <path d="M2.71251 19.4405C3.45855 19.3481 5.06439 19.4235 5.88296 19.4071C7.06141 19.4116 8.23847 19.3935 9.41679 19.4207C9.9547 19.4331 10.4367 19.6969 10.4617 20.2886C10.4981 21.1528 10.4784 22.0322 10.4787 22.8965L10.4783 25.4436C10.478 25.9432 10.5664 27.0619 10.2594 27.4544C9.76708 28.0844 8.68185 27.8865 8.54922 27.0413C8.47263 26.5526 8.5069 26.001 8.5082 25.4955C8.51732 24.5747 8.51411 23.6535 8.49854 22.7323C7.29515 24.0101 5.84718 25.4001 4.59353 26.653L2.7204 28.5343C2.35821 28.8976 1.64783 29.7057 1.17815 29.8234C0.959478 29.8804 0.727003 29.8454 0.535167 29.726C0.191625 29.5137 0.0872253 29.2373 0 28.8765C0.0401734 28.709 0.131112 28.3996 0.248848 28.2756C2.47712 25.9285 4.87356 23.6987 7.11087 21.3625C5.69066 21.3313 4.17914 21.4149 2.7618 21.3064C2.33964 21.2743 1.92934 20.6143 2.04674 20.2097C2.16088 19.8159 2.35352 19.6275 2.71251 19.4405Z" fill="#2E2A50"></path>
  <path d="M18.3141 34.5128L22.4593 34.5145C23.1758 34.5137 23.8886 34.5052 24.6055 34.5335C25.1604 34.5263 25.5862 34.9374 25.5795 35.5222C25.5533 37.7284 25.6432 39.9692 25.5368 42.1724C25.5288 42.3395 25.4128 42.5218 25.298 42.6399C25.1047 42.8353 24.838 42.9412 24.5629 42.9311C23.3936 42.8923 23.6278 41.4436 23.6295 40.6406C23.6295 39.7063 23.6349 38.772 23.6455 37.8377C22.236 39.1914 20.7987 40.6722 19.4117 42.0597L17.7513 43.7253C17.1914 44.2895 16.31 45.4643 15.4656 44.7009C15.2599 44.514 15.1432 44.2481 15.1445 43.9696C15.1463 43.7675 15.2094 43.5616 15.3422 43.4109C16.0492 42.6087 16.879 41.8276 17.6388 41.0689L22.2483 36.459C21.1384 36.4776 20.0249 36.4645 18.9149 36.4755C18.4583 36.4801 17.8598 36.5278 17.4924 36.2211C17.2928 36.0531 17.1696 35.8117 17.1508 35.5518C17.098 34.8112 17.6866 34.5462 18.3141 34.5128Z" fill="#2E2A50"></path>
</svg>
