<svg class="q1" width="42" height="30" viewBox="0 0 42 30" fill="none" xmlns="http://www.w3.org/2000/svg">
                                                <path d="m9.75 29.172 4.914-3.744c-2.652-2.106-4.524-4.836-5.226-7.41 4.68 0 8.58-4.056 8.58-8.892C18.018 4.134 13.962 0 9.204 0 3.822 0 0 4.992 0 12.012c0 5.694 3.588 12.012 9.75 17.16m23.4 0 4.914-3.744c-2.652-2.106-4.524-4.836-5.226-7.41 4.68 0 8.58-4.056 8.58-8.892C41.418 4.134 37.362 0 32.604 0 27.222 0 23.4 4.992 23.4 12.012c0 5.694 3.588 12.012 9.75 17.16" fill="#FCBA17"></path>
                                            </svg>