<svg width="13" height="26" viewBox="0 0 13 26" fill="none" xmlns="http://www.w3.org/2000/svg">
<path d="M2.22175 12.9078L12.7301 1.64966C12.8166 1.55893 12.885 1.45122 12.9313 1.33275C12.9777 1.21428 13.001 1.08742 13 0.95949C12.9989 0.831563 12.9736 0.705117 12.9254 0.58747C12.8772 0.469822 12.8071 0.363309 12.7191 0.274093C12.6312 0.184877 12.5271 0.114731 12.413 0.0677132C12.2989 0.0206956 12.1769 -0.0022599 12.0543 0.000175318C11.9316 0.00261053 11.8105 0.0303881 11.6982 0.0819004C11.5859 0.133413 11.4845 0.207637 11.3999 0.300278L0.262882 12.2331C0.094315 12.4137 0 12.6558 0 12.9078C0 13.1598 0.094315 13.4019 0.262882 13.5825L11.3999 25.5153C11.4845 25.608 11.5859 25.6822 11.6982 25.7337C11.8105 25.7852 11.9316 25.813 12.0543 25.8154C12.1769 25.8179 12.2989 25.7949 12.413 25.7479C12.5271 25.7009 12.6312 25.6307 12.7191 25.5415C12.8071 25.4523 12.8772 25.3458 12.9254 25.2281C12.9736 25.1105 12.9989 24.984 13 24.8561C13.001 24.7282 12.9777 24.6013 12.9313 24.4829C12.885 24.3644 12.8166 24.2567 12.7301 24.1659L2.22175 12.9078Z" fill="#1B2550"></path>
</svg>