<?xml version="1.0" encoding="UTF-8"?>
<svg xmlns="http://www.w3.org/2000/svg" width="1292" height="151" viewBox="0 0 1292 151" fill="none">
  <rect width="145" height="145" rx="72.5" fill="#E32CD0"></rect>
  <g filter="url(#filter0_d_1916_1913)">
    <rect x="15.75" y="15" width="114.75" height="114.75" rx="57.375" fill="white"></rect>
    <rect x="16.125" y="15.375" width="114" height="114" rx="57" stroke="#5285B8" stroke-opacity="0.5" stroke-width="0.75"></rect>
  </g>
  <path d="M38.4876 54.75V43.758H43.2716C45.6236 43.758 47.3836 45.262 47.3836 47.406C47.3836 49.55 45.6236 51.054 43.2716 51.054H40.4876V54.75H38.4876ZM40.4876 49.214H43.0476C44.4076 49.214 45.3516 48.526 45.3516 47.406C45.3516 46.286 44.4076 45.598 43.0476 45.598H40.4876V49.214ZM52.4923 46.286C54.6843 46.286 56.0443 47.678 56.0443 49.774V54.75H54.1403V53.758C53.5323 54.526 52.4923 54.942 51.5323 54.942C49.7723 54.942 48.4443 53.902 48.4443 52.302C48.4443 50.67 49.9643 49.55 51.8203 49.55C52.5723 49.55 53.3883 49.71 54.1403 49.998V49.774C54.1403 48.814 53.6123 47.886 52.1083 47.886C51.3243 47.886 50.5723 48.158 49.8683 48.51L49.1963 47.15C50.3643 46.574 51.4523 46.286 52.4923 46.286ZM51.9643 53.518C52.9083 53.518 53.9163 53.038 54.1403 52.158V51.23C53.5323 51.022 52.8443 50.91 52.1083 50.91C51.1323 50.91 50.3483 51.454 50.3483 52.238C50.3483 53.022 51.0363 53.518 51.9643 53.518ZM62.2859 52.974L62.8459 54.286C62.3819 54.686 61.7099 54.942 61.0859 54.942C59.7099 54.942 58.7499 53.95 58.7499 52.558V48.094H57.5499V46.478H58.7499V44.206H60.6539V46.478H62.5259V48.094H60.6539V52.318C60.6539 52.878 61.0059 53.278 61.4699 53.278C61.8059 53.278 62.1099 53.15 62.2859 52.974ZM65.3531 45.23C64.7291 45.23 64.2331 44.702 64.2331 44.11C64.2331 43.518 64.7291 43.006 65.3531 43.006C65.9611 43.006 66.4571 43.518 66.4571 44.11C66.4571 44.702 65.9611 45.23 65.3531 45.23ZM64.3611 54.75V46.478H66.3131V54.75H64.3611ZM72.3264 53.214C73.0944 53.214 74.0064 52.862 74.4704 52.382L75.7024 53.662C74.9824 54.43 73.5424 54.942 72.3424 54.942C69.9744 54.942 68.0224 53.134 68.0224 50.59C68.0224 48.11 69.8784 46.286 72.2304 46.286C74.7904 46.286 76.2784 48.222 76.2784 51.278H70.0384C70.2784 52.414 71.1424 53.214 72.3264 53.214ZM72.3104 48.014C71.2224 48.014 70.3424 48.702 70.0544 49.79H74.4064C74.1824 48.75 73.4784 48.014 72.3104 48.014ZM82.4824 46.286C84.2904 46.286 85.5544 47.614 85.5544 49.486V54.75H83.6664V49.87C83.6664 48.75 82.9464 47.95 81.9224 47.95C80.8984 47.95 80.0504 48.638 79.9224 49.518V54.75H77.9704V46.478H79.9224V47.582C80.4344 46.814 81.3944 46.286 82.4824 46.286ZM91.8016 52.974L92.3616 54.286C91.8976 54.686 91.2256 54.942 90.6016 54.942C89.2256 54.942 88.2656 53.95 88.2656 52.558V48.094H87.0656V46.478H88.2656V44.206H90.1696V46.478H92.0416V48.094H90.1696V52.318C90.1696 52.878 90.5216 53.278 90.9856 53.278C91.3216 53.278 91.6256 53.15 91.8016 52.974ZM107.64 54.206L105.976 54.958L104.728 53.662C103.816 54.478 102.76 54.942 101.48 54.942C99.3999 54.942 97.8639 53.758 97.8639 51.774C97.8639 50.35 98.5999 49.406 100.28 48.638C99.6719 47.79 99.4479 47.166 99.4479 46.35C99.4479 44.846 100.744 43.63 102.456 43.63C104.152 43.63 105.384 44.814 105.384 46.334C105.384 47.614 104.504 48.302 102.84 49.054C103.4 49.71 104.008 50.382 104.792 51.214C105.224 50.574 105.608 49.838 105.912 49.054L107.4 49.758C106.92 50.734 106.424 51.614 105.88 52.366C106.392 52.91 106.984 53.518 107.64 54.206ZM102.488 45.086C101.752 45.086 101.192 45.582 101.192 46.35C101.192 46.894 101.432 47.374 101.944 47.998C103.16 47.502 103.656 47.134 103.656 46.35C103.656 45.63 103.16 45.086 102.488 45.086ZM101.672 53.39C102.376 53.39 103.032 53.07 103.656 52.542C102.568 51.406 101.8 50.542 101.176 49.806C100.264 50.302 99.7999 50.894 99.7999 51.678C99.7999 52.75 100.664 53.39 101.672 53.39ZM47.1472 75.75V64.758H51.0192C54.6512 64.758 57.2112 67.03 57.2112 70.246C57.2112 73.462 54.6512 75.75 51.0192 75.75H47.1472ZM49.1472 73.942H51.2272C53.5472 73.942 55.1792 72.406 55.1792 70.246C55.1792 68.086 53.5472 66.566 51.2272 66.566H49.1472V73.942ZM63.1111 75.942C60.7111 75.942 58.6791 73.958 58.6791 71.606C58.6791 69.254 60.7111 67.286 63.1111 67.286C65.5111 67.286 67.5431 69.254 67.5431 71.606C67.5431 73.958 65.5111 75.942 63.1111 75.942ZM63.1111 74.278C64.4711 74.278 65.6231 73.062 65.6231 71.606C65.6231 70.166 64.4711 68.95 63.1111 68.95C61.7351 68.95 60.5831 70.166 60.5831 71.606C60.5831 73.062 61.7351 74.278 63.1111 74.278ZM73.2201 75.942C70.8361 75.942 68.8041 73.958 68.8041 71.606C68.8041 69.254 70.8361 67.286 73.2521 67.286C74.5001 67.286 75.6041 67.814 76.3881 68.63L75.0761 69.782C74.6281 69.286 73.9401 68.95 73.2361 68.95C71.8761 68.95 70.7401 70.166 70.7401 71.606C70.7401 73.062 71.8761 74.278 73.2361 74.278C73.9561 74.278 74.6601 73.942 75.1241 73.414L76.4361 74.55C75.6361 75.398 74.5321 75.942 73.2201 75.942ZM82.0984 73.974L82.6584 75.286C82.1944 75.686 81.5224 75.942 80.8984 75.942C79.5224 75.942 78.5624 74.95 78.5624 73.558V69.094H77.3624V67.478H78.5624V65.206H80.4664V67.478H82.3384V69.094H80.4664V73.318C80.4664 73.878 80.8184 74.278 81.2824 74.278C81.6184 74.278 81.9224 74.15 82.0984 73.974ZM88.1736 75.942C85.7736 75.942 83.7416 73.958 83.7416 71.606C83.7416 69.254 85.7736 67.286 88.1736 67.286C90.5736 67.286 92.6056 69.254 92.6056 71.606C92.6056 73.958 90.5736 75.942 88.1736 75.942ZM88.1736 74.278C89.5336 74.278 90.6856 73.062 90.6856 71.606C90.6856 70.166 89.5336 68.95 88.1736 68.95C86.7976 68.95 85.6456 70.166 85.6456 71.606C85.6456 73.062 86.7976 74.278 88.1736 74.278ZM96.2986 69.078C96.8266 67.974 97.8986 67.286 99.2586 67.286V68.95C97.4826 68.95 96.2986 70.006 96.2986 71.574V75.75H94.3466V67.478H96.2986V69.078ZM31.7852 96.75V85.758H33.7692V96.75H31.7852ZM40.5137 88.286C42.3217 88.286 43.5857 89.614 43.5857 91.486V96.75H41.6977V91.87C41.6977 90.75 40.9777 89.95 39.9537 89.95C38.9297 89.95 38.0817 90.638 37.9537 91.518V96.75H36.0017V88.478H37.9537V89.582C38.4657 88.814 39.4257 88.286 40.5137 88.286ZM49.8328 94.974L50.3928 96.286C49.9288 96.686 49.2568 96.942 48.6328 96.942C47.2568 96.942 46.2968 95.95 46.2968 94.558V90.094H45.0968V88.478H46.2968V86.206H48.2008V88.478H50.0728V90.094H48.2008V94.318C48.2008 94.878 48.5528 95.278 49.0168 95.278C49.3528 95.278 49.6568 95.15 49.8328 94.974ZM55.7639 95.214C56.5319 95.214 57.4439 94.862 57.9079 94.382L59.1399 95.662C58.4199 96.43 56.9799 96.942 55.7799 96.942C53.4119 96.942 51.4599 95.134 51.4599 92.59C51.4599 90.11 53.3159 88.286 55.6679 88.286C58.2279 88.286 59.7159 90.222 59.7159 93.278H53.4759C53.7159 94.414 54.5799 95.214 55.7639 95.214ZM55.7479 90.014C54.6599 90.014 53.7799 90.702 53.4919 91.79H57.8439C57.6199 90.75 56.9159 90.014 55.7479 90.014ZM63.4079 90.078C63.9359 88.974 65.0079 88.286 66.3679 88.286V89.95C64.5919 89.95 63.4079 91.006 63.4079 92.574V96.75H61.4559V88.478H63.4079V90.078ZM71.4142 88.286C73.6062 88.286 74.9662 89.678 74.9662 91.774V96.75H73.0622V95.758C72.4542 96.526 71.4142 96.942 70.4542 96.942C68.6942 96.942 67.3662 95.902 67.3662 94.302C67.3662 92.67 68.8862 91.55 70.7422 91.55C71.4942 91.55 72.3102 91.71 73.0622 91.998V91.774C73.0622 90.814 72.5342 89.886 71.0302 89.886C70.2462 89.886 69.4942 90.158 68.7902 90.51L68.1182 89.15C69.2862 88.574 70.3742 88.286 71.4142 88.286ZM70.8862 95.518C71.8302 95.518 72.8382 95.038 73.0622 94.158V93.23C72.4542 93.022 71.7662 92.91 71.0302 92.91C70.0542 92.91 69.2702 93.454 69.2702 94.238C69.2702 95.022 69.9582 95.518 70.8862 95.518ZM81.0638 96.942C78.6798 96.942 76.6478 94.958 76.6478 92.606C76.6478 90.254 78.6798 88.286 81.0958 88.286C82.3438 88.286 83.4478 88.814 84.2318 89.63L82.9198 90.782C82.4718 90.286 81.7838 89.95 81.0798 89.95C79.7198 89.95 78.5838 91.166 78.5838 92.606C78.5838 94.062 79.7198 95.278 81.0798 95.278C81.7998 95.278 82.5038 94.942 82.9678 94.414L84.2798 95.55C83.4798 96.398 82.3758 96.942 81.0638 96.942ZM89.9422 94.974L90.5022 96.286C90.0382 96.686 89.3662 96.942 88.7422 96.942C87.3662 96.942 86.4062 95.95 86.4062 94.558V90.094H85.2062V88.478H86.4062V86.206H88.3102V88.478H90.1822V90.094H88.3102V94.318C88.3102 94.878 88.6622 95.278 89.1262 95.278C89.4622 95.278 89.7662 95.15 89.9422 94.974ZM93.0093 87.23C92.3853 87.23 91.8893 86.702 91.8893 86.11C91.8893 85.518 92.3853 85.006 93.0093 85.006C93.6173 85.006 94.1133 85.518 94.1133 86.11C94.1133 86.702 93.6173 87.23 93.0093 87.23ZM92.0173 96.75V88.478H93.9693V96.75H92.0173ZM100.127 96.942C97.7267 96.942 95.6947 94.958 95.6947 92.606C95.6947 90.254 97.7267 88.286 100.127 88.286C102.527 88.286 104.559 90.254 104.559 92.606C104.559 94.958 102.527 96.942 100.127 96.942ZM100.127 95.278C101.487 95.278 102.639 94.062 102.639 92.606C102.639 91.166 101.487 89.95 100.127 89.95C98.7507 89.95 97.5987 91.166 97.5987 92.606C97.5987 94.062 98.7507 95.278 100.127 95.278ZM110.764 88.286C112.572 88.286 113.836 89.614 113.836 91.486V96.75H111.948V91.87C111.948 90.75 111.228 89.95 110.204 89.95C109.18 89.95 108.332 90.638 108.204 91.518V96.75H106.252V88.478H108.204V89.582C108.716 88.814 109.676 88.286 110.764 88.286Z" fill="#1B2550"></path>
  <rect x="191" width="145" height="145" rx="72.5" fill="#FF763B"></rect>
  <g filter="url(#filter1_d_1916_1913)">
    <path d="M206.25 72.375C206.25 40.6877 231.938 15 263.625 15C295.312 15 321 40.6877 321 72.375C321 104.062 295.312 129.75 263.625 129.75C231.938 129.75 206.25 104.062 206.25 72.375Z" fill="white"></path>
    <path d="M263.625 15.375C295.105 15.375 320.625 40.8948 320.625 72.375C320.625 103.855 295.105 129.375 263.625 129.375C232.145 129.375 206.625 103.855 206.625 72.375C206.625 40.8948 232.145 15.375 263.625 15.375Z" stroke="#5285B8" stroke-opacity="0.5" stroke-width="0.75"></path>
  </g>
  <path d="M242.972 76.5H240.7L238.108 72.804H235.98V76.5H233.98V65.508H238.764C241.116 65.508 242.876 67.012 242.876 69.156C242.876 70.82 241.804 72.1 240.22 72.596L242.972 76.5ZM235.98 67.348V70.964H238.54C239.9 70.964 240.844 70.276 240.844 69.156C240.844 68.036 239.9 67.348 238.54 67.348H235.98ZM248.475 74.964C249.243 74.964 250.155 74.612 250.619 74.132L251.851 75.412C251.131 76.18 249.691 76.692 248.491 76.692C246.123 76.692 244.171 74.884 244.171 72.34C244.171 69.86 246.027 68.036 248.379 68.036C250.939 68.036 252.427 69.972 252.427 73.028H246.187C246.427 74.164 247.291 74.964 248.475 74.964ZM248.459 69.764C247.371 69.764 246.491 70.452 246.203 71.54H250.555C250.331 70.5 249.627 69.764 248.459 69.764ZM256.615 67.54V68.228H258.487V69.844H256.615V76.5H254.711V69.844H253.511V68.228H254.711V67.364C254.711 65.972 255.671 64.98 257.047 64.98C257.671 64.98 258.343 65.236 258.807 65.636L258.247 66.884C258.071 66.708 257.767 66.58 257.431 66.58C256.967 66.58 256.615 66.98 256.615 67.54ZM263.897 74.964C264.665 74.964 265.577 74.612 266.041 74.132L267.273 75.412C266.553 76.18 265.113 76.692 263.913 76.692C261.545 76.692 259.593 74.884 259.593 72.34C259.593 69.86 261.449 68.036 263.801 68.036C266.361 68.036 267.849 69.972 267.849 73.028H261.609C261.849 74.164 262.713 74.964 263.897 74.964ZM263.881 69.764C262.793 69.764 261.913 70.452 261.625 71.54H265.977C265.753 70.5 265.049 69.764 263.881 69.764ZM271.541 69.828C272.069 68.724 273.141 68.036 274.501 68.036V69.7C272.725 69.7 271.541 70.756 271.541 72.324V76.5H269.589V68.228H271.541V69.828ZM277.947 69.828C278.475 68.724 279.547 68.036 280.907 68.036V69.7C279.131 69.7 277.947 70.756 277.947 72.324V76.5H275.995V68.228H277.947V69.828ZM285.953 68.036C288.145 68.036 289.505 69.428 289.505 71.524V76.5H287.601V75.508C286.993 76.276 285.953 76.692 284.993 76.692C283.233 76.692 281.905 75.652 281.905 74.052C281.905 72.42 283.425 71.3 285.281 71.3C286.033 71.3 286.849 71.46 287.601 71.748V71.524C287.601 70.564 287.073 69.636 285.569 69.636C284.785 69.636 284.033 69.908 283.329 70.26L282.657 68.9C283.825 68.324 284.913 68.036 285.953 68.036ZM285.425 75.268C286.369 75.268 287.377 74.788 287.601 73.908V72.98C286.993 72.772 286.305 72.66 285.569 72.66C284.593 72.66 283.809 73.204 283.809 73.988C283.809 74.772 284.497 75.268 285.425 75.268ZM291.619 76.5V65.316H293.571V76.5H291.619Z" fill="#1B2550"></path>
  <rect x="381" width="145" height="145" rx="72.5" fill="#7ED37A"></rect>
  <g filter="url(#filter2_d_1916_1913)">
    <rect x="396.75" y="15" width="114.75" height="114.75" rx="57.375" fill="white"></rect>
    <rect x="397.125" y="15.375" width="114" height="114" rx="57" stroke="#5285B8" stroke-opacity="0.5" stroke-width="0.75"></rect>
  </g>
  <path d="M426.981 66.176C425.093 66.176 423.493 65.536 422.277 64.4L423.429 62.976C424.437 63.888 425.605 64.464 427.045 64.464C428.405 64.464 429.109 63.792 429.109 63.008C429.109 62.096 428.325 61.792 426.565 61.376C424.293 60.848 422.709 60.192 422.709 58.128C422.709 56.208 424.341 54.8 426.661 54.8C428.405 54.8 429.717 55.392 430.821 56.336L429.733 57.808C428.773 56.976 427.669 56.512 426.581 56.512C425.477 56.512 424.725 57.184 424.725 57.952C424.725 58.848 425.541 59.168 427.285 59.568C429.573 60.08 431.109 60.816 431.109 62.816C431.109 64.784 429.605 66.176 426.981 66.176ZM436.853 66.192C434.469 66.192 432.437 64.208 432.437 61.856C432.437 59.504 434.469 57.536 436.885 57.536C438.133 57.536 439.237 58.064 440.021 58.88L438.709 60.032C438.261 59.536 437.573 59.2 436.869 59.2C435.509 59.2 434.373 60.416 434.373 61.856C434.373 63.312 435.509 64.528 436.869 64.528C437.589 64.528 438.293 64.192 438.757 63.664L440.069 64.8C439.269 65.648 438.165 66.192 436.853 66.192ZM445.203 57.536C447.395 57.536 448.755 58.928 448.755 61.024V66H446.851V65.008C446.243 65.776 445.203 66.192 444.243 66.192C442.483 66.192 441.155 65.152 441.155 63.552C441.155 61.92 442.675 60.8 444.531 60.8C445.283 60.8 446.099 60.96 446.851 61.248V61.024C446.851 60.064 446.323 59.136 444.819 59.136C444.035 59.136 443.283 59.408 442.579 59.76L441.907 58.4C443.075 57.824 444.163 57.536 445.203 57.536ZM444.675 64.768C445.619 64.768 446.627 64.288 446.851 63.408V62.48C446.243 62.272 445.555 62.16 444.819 62.16C443.843 62.16 443.059 62.704 443.059 63.488C443.059 64.272 443.747 64.768 444.675 64.768ZM455.381 57.536C457.189 57.536 458.453 58.864 458.453 60.736V66H456.565V61.12C456.565 60 455.845 59.2 454.821 59.2C453.797 59.2 452.949 59.888 452.821 60.768V66H450.869V57.728H452.821V58.832C453.333 58.064 454.293 57.536 455.381 57.536ZM465.311 66V55.008H470.703C472.607 55.008 473.951 56.16 473.951 57.76C473.951 58.88 473.375 59.664 472.399 60.192C473.663 60.8 474.415 61.808 474.415 63.008C474.415 64.768 472.959 66 470.911 66H465.311ZM467.295 59.504H470.223C471.199 59.504 471.903 58.928 471.903 58.128C471.903 57.312 471.199 56.736 470.223 56.736H467.295V59.504ZM467.295 64.272H470.511C471.599 64.272 472.367 63.616 472.367 62.704C472.367 61.792 471.599 61.136 470.511 61.136H467.295V64.272ZM477.893 68.88C477.269 68.88 476.581 68.72 476.085 68.448L476.501 67.04C476.853 67.232 477.253 67.344 477.557 67.344C478.021 67.344 478.373 67.2 478.613 66.8L478.965 66.064L475.461 57.728H477.525L479.941 63.904L482.213 57.728H484.229L480.725 66.576C480.101 68.144 479.141 68.864 477.893 68.88ZM415.479 87V77.832H411.959V76.008H420.983V77.832H417.463V87H415.479ZM426.483 85.464C427.251 85.464 428.163 85.112 428.627 84.632L429.859 85.912C429.139 86.68 427.699 87.192 426.499 87.192C424.131 87.192 422.179 85.384 422.179 82.84C422.179 80.36 424.035 78.536 426.387 78.536C428.947 78.536 430.435 80.472 430.435 83.528H424.195C424.435 84.664 425.299 85.464 426.483 85.464ZM426.467 80.264C425.379 80.264 424.499 80.952 424.211 82.04H428.563C428.339 81 427.635 80.264 426.467 80.264ZM436.111 87.192C433.727 87.192 431.695 85.208 431.695 82.856C431.695 80.504 433.727 78.536 436.143 78.536C437.391 78.536 438.495 79.064 439.279 79.88L437.967 81.032C437.519 80.536 436.831 80.2 436.127 80.2C434.767 80.2 433.631 81.416 433.631 82.856C433.631 84.312 434.767 85.528 436.127 85.528C436.847 85.528 437.551 85.192 438.015 84.664L439.327 85.8C438.527 86.648 437.423 87.192 436.111 87.192ZM445.373 78.536C447.181 78.536 448.445 79.864 448.445 81.736V87H446.557V82.12C446.557 81 445.837 80.2 444.813 80.2C443.709 80.2 442.797 81 442.797 81.992V87H440.845V75.816H442.797V79.864C443.293 79.064 444.269 78.536 445.373 78.536ZM455.076 78.536C456.884 78.536 458.148 79.864 458.148 81.736V87H456.26V82.12C456.26 81 455.54 80.2 454.516 80.2C453.492 80.2 452.644 80.888 452.516 81.768V87H450.564V78.728H452.516V79.832C453.028 79.064 453.988 78.536 455.076 78.536ZM461.259 77.48C460.635 77.48 460.139 76.952 460.139 76.36C460.139 75.768 460.635 75.256 461.259 75.256C461.867 75.256 462.363 75.768 462.363 76.36C462.363 76.952 461.867 77.48 461.259 77.48ZM460.267 87V78.728H462.219V87H460.267ZM468.361 87.192C465.977 87.192 463.945 85.208 463.945 82.856C463.945 80.504 465.977 78.536 468.393 78.536C469.641 78.536 470.745 79.064 471.529 79.88L470.217 81.032C469.769 80.536 469.081 80.2 468.377 80.2C467.017 80.2 465.881 81.416 465.881 82.856C465.881 84.312 467.017 85.528 468.377 85.528C469.097 85.528 469.801 85.192 470.265 84.664L471.577 85.8C470.777 86.648 469.673 87.192 468.361 87.192ZM474.103 77.48C473.479 77.48 472.983 76.952 472.983 76.36C472.983 75.768 473.479 75.256 474.103 75.256C474.711 75.256 475.207 75.768 475.207 76.36C475.207 76.952 474.711 77.48 474.103 77.48ZM473.111 87V78.728H475.063V87H473.111ZM480.82 78.536C483.012 78.536 484.372 79.928 484.372 82.024V87H482.468V86.008C481.86 86.776 480.82 87.192 479.86 87.192C478.1 87.192 476.772 86.152 476.772 84.552C476.772 82.92 478.292 81.8 480.148 81.8C480.9 81.8 481.716 81.96 482.468 82.248V82.024C482.468 81.064 481.94 80.136 480.436 80.136C479.652 80.136 478.9 80.408 478.196 80.76L477.524 79.4C478.692 78.824 479.78 78.536 480.82 78.536ZM480.292 85.768C481.236 85.768 482.244 85.288 482.468 84.408V83.48C481.86 83.272 481.172 83.16 480.436 83.16C479.46 83.16 478.676 83.704 478.676 84.488C478.676 85.272 479.364 85.768 480.292 85.768ZM490.998 78.536C492.806 78.536 494.07 79.864 494.07 81.736V87H492.182V82.12C492.182 81 491.462 80.2 490.438 80.2C489.414 80.2 488.566 80.888 488.438 81.768V87H486.486V78.728H488.438V79.832C488.95 79.064 489.91 78.536 490.998 78.536Z" fill="#1B2550"></path>
  <rect x="572" width="145" height="145" rx="72.5" fill="#41FEBC"></rect>
  <g filter="url(#filter3_d_1916_1913)">
    <rect x="587.25" y="15" width="114.75" height="114.75" rx="57.375" fill="white"></rect>
    <rect x="587.625" y="15.375" width="114" height="114" rx="57" stroke="#5285B8" stroke-opacity="0.5" stroke-width="0.75"></rect>
  </g>
  <path d="M617.637 76.5V65.508H619.621V76.5H617.637ZM631.405 68.036C633.133 68.036 634.429 69.364 634.429 71.236V76.5H632.525V71.556C632.525 70.468 631.869 69.7 630.925 69.7C629.853 69.7 629.117 70.42 629.117 71.428V76.5H627.213V71.556C627.213 70.468 626.557 69.7 625.597 69.7C624.541 69.7 623.789 70.42 623.789 71.428V76.5H621.837V68.228H623.789V69.348C624.205 68.548 625.053 68.036 626.093 68.036C627.261 68.036 628.221 68.628 628.733 69.604C629.133 68.644 630.173 68.036 631.405 68.036ZM640.141 68.036C642.333 68.036 643.693 69.428 643.693 71.524V76.5H641.789V75.508C641.181 76.276 640.141 76.692 639.181 76.692C637.421 76.692 636.093 75.652 636.093 74.052C636.093 72.42 637.613 71.3 639.469 71.3C640.221 71.3 641.037 71.46 641.789 71.748V71.524C641.789 70.564 641.261 69.636 639.757 69.636C638.973 69.636 638.221 69.908 637.517 70.26L636.845 68.9C638.013 68.324 639.101 68.036 640.141 68.036ZM639.613 75.268C640.557 75.268 641.565 74.788 641.789 73.908V72.98C641.181 72.772 640.493 72.66 639.757 72.66C638.781 72.66 637.997 73.204 637.997 73.988C637.997 74.772 638.685 75.268 639.613 75.268ZM651.966 68.228H653.918V75.62C653.918 77.748 652.126 79.252 649.598 79.252C648.174 79.252 646.862 78.788 646.046 78.148L646.766 76.724C647.342 77.252 648.334 77.588 649.31 77.588C650.942 77.588 651.966 76.804 651.966 75.556V74.484C651.31 75.364 650.318 75.892 649.134 75.892C646.99 75.892 645.406 74.26 645.406 71.956C645.406 69.652 646.99 68.036 649.134 68.036C650.302 68.036 651.374 68.58 651.966 69.46V68.228ZM649.694 74.228C651.022 74.228 651.966 73.284 651.966 71.956C651.966 70.644 651.022 69.7 649.694 69.7C648.382 69.7 647.438 70.644 647.438 71.956C647.438 73.284 648.382 74.228 649.694 74.228ZM659.959 74.964C660.727 74.964 661.639 74.612 662.103 74.132L663.335 75.412C662.615 76.18 661.175 76.692 659.975 76.692C657.607 76.692 655.655 74.884 655.655 72.34C655.655 69.86 657.511 68.036 659.863 68.036C662.423 68.036 663.911 69.972 663.911 73.028H657.671C657.911 74.164 658.775 74.964 659.959 74.964ZM659.943 69.764C658.855 69.764 657.975 70.452 657.687 71.54H662.039C661.815 70.5 661.111 69.764 659.943 69.764ZM668.659 76.692C667.395 76.692 666.035 76.244 665.043 75.444L665.923 74.084C666.723 74.66 667.651 75.044 668.691 75.044C669.475 75.044 670.019 74.708 670.019 74.196C670.019 73.556 669.299 73.348 668.355 73.092C666.563 72.628 665.427 72.116 665.411 70.644C665.411 69.092 666.691 68.036 668.531 68.036C669.667 68.036 670.803 68.436 671.699 69.028L670.883 70.452C670.099 69.956 669.251 69.7 668.531 69.7C667.843 69.7 667.315 69.972 667.315 70.436C667.315 70.964 667.747 71.124 669.011 71.492C670.403 71.876 671.907 72.356 671.907 74.084C671.907 75.668 670.595 76.692 668.659 76.692Z" fill="#1B2550"></path>
  <rect x="762" width="145" height="145" rx="72.5" fill="#64DEFF"></rect>
  <g filter="url(#filter4_d_1916_1913)">
    <rect x="777.75" y="15" width="114.75" height="114.75" rx="57.375" fill="white"></rect>
    <rect x="778.125" y="15.375" width="114" height="114" rx="57" stroke="#5285B8" stroke-opacity="0.5" stroke-width="0.75"></rect>
  </g>
  <path d="M801.136 66H798.864L796.272 62.304H794.144V66H792.144V55.008H796.928C799.28 55.008 801.04 56.512 801.04 58.656C801.04 60.32 799.968 61.6 798.384 62.096L801.136 66ZM794.144 56.848V60.464H796.704C798.064 60.464 799.008 59.776 799.008 58.656C799.008 57.536 798.064 56.848 796.704 56.848H794.144ZM806.383 57.536C808.575 57.536 809.935 58.928 809.935 61.024V66H808.031V65.008C807.423 65.776 806.383 66.192 805.423 66.192C803.663 66.192 802.335 65.152 802.335 63.552C802.335 61.92 803.855 60.8 805.711 60.8C806.463 60.8 807.279 60.96 808.031 61.248V61.024C808.031 60.064 807.503 59.136 805.999 59.136C805.215 59.136 804.463 59.408 803.759 59.76L803.087 58.4C804.255 57.824 805.343 57.536 806.383 57.536ZM805.855 64.768C806.799 64.768 807.807 64.288 808.031 63.408V62.48C807.423 62.272 806.735 62.16 805.999 62.16C805.023 62.16 804.239 62.704 804.239 63.488C804.239 64.272 804.927 64.768 805.855 64.768ZM818.337 54.816H820.289V66H818.337V64.72C817.681 65.648 816.689 66.192 815.473 66.192C813.281 66.192 811.681 64.4 811.681 61.856C811.681 59.328 813.281 57.536 815.473 57.536C816.689 57.536 817.681 58.08 818.337 59.008V54.816ZM816.001 64.528C817.377 64.528 818.337 63.408 818.337 61.856C818.337 60.304 817.377 59.2 816.001 59.2C814.609 59.2 813.617 60.304 813.617 61.856C813.617 63.408 814.609 64.528 816.001 64.528ZM823.478 56.48C822.854 56.48 822.358 55.952 822.358 55.36C822.358 54.768 822.854 54.256 823.478 54.256C824.086 54.256 824.582 54.768 824.582 55.36C824.582 55.952 824.086 56.48 823.478 56.48ZM822.486 66V57.728H824.438V66H822.486ZM830.595 66.192C828.195 66.192 826.163 64.208 826.163 61.856C826.163 59.504 828.195 57.536 830.595 57.536C832.995 57.536 835.027 59.504 835.027 61.856C835.027 64.208 832.995 66.192 830.595 66.192ZM830.595 64.528C831.955 64.528 833.107 63.312 833.107 61.856C833.107 60.416 831.955 59.2 830.595 59.2C829.219 59.2 828.067 60.416 828.067 61.856C828.067 63.312 829.219 64.528 830.595 64.528ZM836.72 66V54.816H838.672V66H836.72ZM844.83 66.192C842.43 66.192 840.398 64.208 840.398 61.856C840.398 59.504 842.43 57.536 844.83 57.536C847.23 57.536 849.262 59.504 849.262 61.856C849.262 64.208 847.23 66.192 844.83 66.192ZM844.83 64.528C846.19 64.528 847.342 63.312 847.342 61.856C847.342 60.416 846.19 59.2 844.83 59.2C843.454 59.2 842.302 60.416 842.302 61.856C842.302 63.312 843.454 64.528 844.83 64.528ZM857.115 57.728H859.067V65.12C859.067 67.248 857.275 68.752 854.747 68.752C853.323 68.752 852.011 68.288 851.195 67.648L851.915 66.224C852.491 66.752 853.483 67.088 854.459 67.088C856.091 67.088 857.115 66.304 857.115 65.056V63.984C856.459 64.864 855.467 65.392 854.283 65.392C852.139 65.392 850.555 63.76 850.555 61.456C850.555 59.152 852.139 57.536 854.283 57.536C855.451 57.536 856.523 58.08 857.115 58.96V57.728ZM854.843 63.728C856.171 63.728 857.115 62.784 857.115 61.456C857.115 60.144 856.171 59.2 854.843 59.2C853.531 59.2 852.587 60.144 852.587 61.456C852.587 62.784 853.531 63.728 854.843 63.728ZM862.244 56.48C861.62 56.48 861.124 55.952 861.124 55.36C861.124 54.768 861.62 54.256 862.244 54.256C862.852 54.256 863.348 54.768 863.348 55.36C863.348 55.952 862.852 56.48 862.244 56.48ZM861.252 66V57.728H863.204V66H861.252ZM868.417 66.192C867.153 66.192 865.793 65.744 864.801 64.944L865.681 63.584C866.481 64.16 867.409 64.544 868.449 64.544C869.233 64.544 869.777 64.208 869.777 63.696C869.777 63.056 869.057 62.848 868.113 62.592C866.321 62.128 865.185 61.616 865.169 60.144C865.169 58.592 866.449 57.536 868.289 57.536C869.425 57.536 870.561 57.936 871.457 58.528L870.641 59.952C869.857 59.456 869.009 59.2 868.289 59.2C867.601 59.2 867.073 59.472 867.073 59.936C867.073 60.464 867.505 60.624 868.769 60.992C870.161 61.376 871.665 61.856 871.665 63.584C871.665 65.168 870.353 66.192 868.417 66.192ZM877.489 64.224L878.049 65.536C877.585 65.936 876.913 66.192 876.289 66.192C874.913 66.192 873.953 65.2 873.953 63.808V59.344H872.753V57.728H873.953V55.456H875.857V57.728H877.729V59.344H875.857V63.568C875.857 64.128 876.209 64.528 876.673 64.528C877.009 64.528 877.313 64.4 877.489 64.224ZM816.73 87H814.458L811.866 83.304H809.738V87H807.738V76.008H812.522C814.874 76.008 816.634 77.512 816.634 79.656C816.634 81.32 815.562 82.6 813.978 83.096L816.73 87ZM809.738 77.848V81.464H812.298C813.658 81.464 814.602 80.776 814.602 79.656C814.602 78.536 813.658 77.848 812.298 77.848H809.738ZM822.233 85.464C823.001 85.464 823.913 85.112 824.377 84.632L825.609 85.912C824.889 86.68 823.449 87.192 822.249 87.192C819.881 87.192 817.929 85.384 817.929 82.84C817.929 80.36 819.785 78.536 822.137 78.536C824.697 78.536 826.185 80.472 826.185 83.528H819.945C820.185 84.664 821.049 85.464 822.233 85.464ZM822.217 80.264C821.129 80.264 820.249 80.952 819.961 82.04H824.313C824.089 81 823.385 80.264 822.217 80.264ZM830.645 87L827.093 78.728H829.157L831.557 84.744L833.909 78.728H835.989L832.485 87H830.645ZM838.337 77.48C837.713 77.48 837.217 76.952 837.217 76.36C837.217 75.768 837.713 75.256 838.337 75.256C838.945 75.256 839.441 75.768 839.441 76.36C839.441 76.952 838.945 77.48 838.337 77.48ZM837.345 87V78.728H839.297V87H837.345ZM845.311 85.464C846.079 85.464 846.991 85.112 847.455 84.632L848.687 85.912C847.967 86.68 846.527 87.192 845.327 87.192C842.959 87.192 841.007 85.384 841.007 82.84C841.007 80.36 842.863 78.536 845.215 78.536C847.775 78.536 849.263 80.472 849.263 83.528H843.023C843.263 84.664 844.127 85.464 845.311 85.464ZM845.295 80.264C844.207 80.264 843.327 80.952 843.039 82.04H847.391C847.167 81 846.463 80.264 845.295 80.264ZM852.661 87L849.861 78.728H851.813L853.541 84.376L855.381 78.728H857.013L858.869 84.376L860.581 78.728H862.533L859.749 87H857.973L856.197 81.336L854.437 87H852.661Z" fill="#1B2550"></path>
  <rect x="953" width="145" height="145" rx="72.5" fill="#FFE5A3"></rect>
  <g filter="url(#filter5_d_1916_1913)">
    <rect x="968.25" y="15" width="114.75" height="114.75" rx="57.375" fill="white"></rect>
    <rect x="968.625" y="15.375" width="114" height="114" rx="57" stroke="#5285B8" stroke-opacity="0.5" stroke-width="0.75"></rect>
  </g>
  <path d="M1008.94 76.5H1006.67L1004.08 72.804H1001.95V76.5H999.949V65.508H1004.73C1007.08 65.508 1008.84 67.012 1008.84 69.156C1008.84 70.82 1007.77 72.1 1006.19 72.596L1008.94 76.5ZM1001.95 67.348V70.964H1004.51C1005.87 70.964 1006.81 70.276 1006.81 69.156C1006.81 68.036 1005.87 67.348 1004.51 67.348H1001.95ZM1014.44 74.964C1015.21 74.964 1016.12 74.612 1016.59 74.132L1017.82 75.412C1017.1 76.18 1015.66 76.692 1014.46 76.692C1012.09 76.692 1010.14 74.884 1010.14 72.34C1010.14 69.86 1012 68.036 1014.35 68.036C1016.91 68.036 1018.4 69.972 1018.4 73.028H1012.16C1012.4 74.164 1013.26 74.964 1014.44 74.964ZM1014.43 69.764C1013.34 69.764 1012.46 70.452 1012.17 71.54H1016.52C1016.3 70.5 1015.6 69.764 1014.43 69.764ZM1024.97 68.036C1027.16 68.036 1028.76 69.828 1028.76 72.356C1028.76 74.9 1027.16 76.692 1024.97 76.692C1023.74 76.692 1022.74 76.132 1022.09 75.188V79.252H1020.14V68.228H1022.09V69.54C1022.74 68.596 1023.74 68.036 1024.97 68.036ZM1024.44 75.028C1025.83 75.028 1026.82 73.908 1026.82 72.356C1026.82 70.804 1025.83 69.7 1024.44 69.7C1023.06 69.7 1022.1 70.804 1022.1 72.356C1022.1 73.908 1023.06 75.028 1024.44 75.028ZM1034.53 76.692C1032.13 76.692 1030.09 74.708 1030.09 72.356C1030.09 70.004 1032.13 68.036 1034.53 68.036C1036.93 68.036 1038.96 70.004 1038.96 72.356C1038.96 74.708 1036.93 76.692 1034.53 76.692ZM1034.53 75.028C1035.89 75.028 1037.04 73.812 1037.04 72.356C1037.04 70.916 1035.89 69.7 1034.53 69.7C1033.15 69.7 1032 70.916 1032 72.356C1032 73.812 1033.15 75.028 1034.53 75.028ZM1042.65 69.828C1043.18 68.724 1044.25 68.036 1045.61 68.036V69.7C1043.83 69.7 1042.65 70.756 1042.65 72.324V76.5H1040.7V68.228H1042.65V69.828ZM1051.18 74.724L1051.74 76.036C1051.28 76.436 1050.61 76.692 1049.98 76.692C1048.61 76.692 1047.65 75.7 1047.65 74.308V69.844H1046.45V68.228H1047.65V65.956H1049.55V68.228H1051.42V69.844H1049.55V74.068C1049.55 74.628 1049.9 75.028 1050.37 75.028C1050.7 75.028 1051.01 74.9 1051.18 74.724Z" fill="#1B2550"></path>
  <rect x="1143" width="145" height="145" rx="72.5" fill="#D8D8D8"></rect>
  <g filter="url(#filter6_d_1916_1913)">
    <rect x="1158.75" y="15" width="114.75" height="114.75" rx="57.375" fill="white"></rect>
    <rect x="1159.12" y="15.375" width="114" height="114" rx="57" stroke="#5285B8" stroke-opacity="0.5" stroke-width="0.75"></rect>
  </g>
  <path d="M1187.8 66V55.008H1189.8L1193.41 61.712L1197.04 55.008H1199.03V66H1197.04V58.656L1193.41 65.36L1189.8 58.656V66H1187.8ZM1205.26 64.464C1206.02 64.464 1206.94 64.112 1207.4 63.632L1208.63 64.912C1207.91 65.68 1206.47 66.192 1205.27 66.192C1202.9 66.192 1200.95 64.384 1200.95 61.84C1200.95 59.36 1202.81 57.536 1205.16 57.536C1207.72 57.536 1209.21 59.472 1209.21 62.528H1202.97C1203.21 63.664 1204.07 64.464 1205.26 64.464ZM1205.24 59.264C1204.15 59.264 1203.27 59.952 1202.98 61.04H1207.34C1207.11 60 1206.41 59.264 1205.24 59.264ZM1217.19 54.816H1219.14V66H1217.19V64.72C1216.53 65.648 1215.54 66.192 1214.32 66.192C1212.13 66.192 1210.53 64.4 1210.53 61.856C1210.53 59.328 1212.13 57.536 1214.32 57.536C1215.54 57.536 1216.53 58.08 1217.19 59.008V54.816ZM1214.85 64.528C1216.23 64.528 1217.19 63.408 1217.19 61.856C1217.19 60.304 1216.23 59.2 1214.85 59.2C1213.46 59.2 1212.47 60.304 1212.47 61.856C1212.47 63.408 1213.46 64.528 1214.85 64.528ZM1222.33 56.48C1221.71 56.48 1221.21 55.952 1221.21 55.36C1221.21 54.768 1221.71 54.256 1222.33 54.256C1222.94 54.256 1223.43 54.768 1223.43 55.36C1223.43 55.952 1222.94 56.48 1222.33 56.48ZM1221.34 66V57.728H1223.29V66H1221.34ZM1229.43 66.192C1227.05 66.192 1225.02 64.208 1225.02 61.856C1225.02 59.504 1227.05 57.536 1229.46 57.536C1230.71 57.536 1231.82 58.064 1232.6 58.88L1231.29 60.032C1230.84 59.536 1230.15 59.2 1229.45 59.2C1228.09 59.2 1226.95 60.416 1226.95 61.856C1226.95 63.312 1228.09 64.528 1229.45 64.528C1230.17 64.528 1230.87 64.192 1231.34 63.664L1232.65 64.8C1231.85 65.648 1230.74 66.192 1229.43 66.192ZM1237.78 57.536C1239.97 57.536 1241.33 58.928 1241.33 61.024V66H1239.43V65.008C1238.82 65.776 1237.78 66.192 1236.82 66.192C1235.06 66.192 1233.73 65.152 1233.73 63.552C1233.73 61.92 1235.25 60.8 1237.11 60.8C1237.86 60.8 1238.68 60.96 1239.43 61.248V61.024C1239.43 60.064 1238.9 59.136 1237.4 59.136C1236.61 59.136 1235.86 59.408 1235.16 59.76L1234.49 58.4C1235.65 57.824 1236.74 57.536 1237.78 57.536ZM1237.25 64.768C1238.2 64.768 1239.21 64.288 1239.43 63.408V62.48C1238.82 62.272 1238.13 62.16 1237.4 62.16C1236.42 62.16 1235.64 62.704 1235.64 63.488C1235.64 64.272 1236.33 64.768 1237.25 64.768ZM1243.45 66V54.816H1245.4V66H1243.45ZM1176.45 87V76.008H1180.32C1183.96 76.008 1186.52 78.28 1186.52 81.496C1186.52 84.712 1183.96 87 1180.32 87H1176.45ZM1178.45 85.192H1180.53C1182.85 85.192 1184.48 83.656 1184.48 81.496C1184.48 79.336 1182.85 77.816 1180.53 77.816H1178.45V85.192ZM1189.41 77.48C1188.78 77.48 1188.29 76.952 1188.29 76.36C1188.29 75.768 1188.78 75.256 1189.41 75.256C1190.02 75.256 1190.51 75.768 1190.51 76.36C1190.51 76.952 1190.02 77.48 1189.41 77.48ZM1188.42 87V78.728H1190.37V87H1188.42ZM1195.58 87.192C1194.32 87.192 1192.96 86.744 1191.97 85.944L1192.85 84.584C1193.65 85.16 1194.57 85.544 1195.61 85.544C1196.4 85.544 1196.94 85.208 1196.94 84.696C1196.94 84.056 1196.22 83.848 1195.28 83.592C1193.49 83.128 1192.35 82.616 1192.33 81.144C1192.33 79.592 1193.61 78.536 1195.45 78.536C1196.59 78.536 1197.73 78.936 1198.62 79.528L1197.81 80.952C1197.02 80.456 1196.17 80.2 1195.45 80.2C1194.77 80.2 1194.24 80.472 1194.24 80.936C1194.24 81.464 1194.67 81.624 1195.93 81.992C1197.33 82.376 1198.83 82.856 1198.83 84.584C1198.83 86.168 1197.52 87.192 1195.58 87.192ZM1204.51 87.192C1202.13 87.192 1200.09 85.208 1200.09 82.856C1200.09 80.504 1202.13 78.536 1204.54 78.536C1205.79 78.536 1206.89 79.064 1207.68 79.88L1206.37 81.032C1205.92 80.536 1205.23 80.2 1204.53 80.2C1203.17 80.2 1202.03 81.416 1202.03 82.856C1202.03 84.312 1203.17 85.528 1204.53 85.528C1205.25 85.528 1205.95 85.192 1206.41 84.664L1207.73 85.8C1206.93 86.648 1205.82 87.192 1204.51 87.192ZM1214.86 78.728H1216.81V87H1214.86V85.896C1214.35 86.664 1213.39 87.192 1212.3 87.192C1210.49 87.192 1209.23 85.864 1209.23 83.992V78.728H1211.12V83.608C1211.12 84.728 1211.84 85.528 1212.86 85.528C1213.88 85.528 1214.73 84.84 1214.86 83.96V78.728ZM1222.02 87.192C1220.75 87.192 1219.39 86.744 1218.4 85.944L1219.28 84.584C1220.08 85.16 1221.01 85.544 1222.05 85.544C1222.83 85.544 1223.38 85.208 1223.38 84.696C1223.38 84.056 1222.66 83.848 1221.71 83.592C1219.92 83.128 1218.79 82.616 1218.77 81.144C1218.77 79.592 1220.05 78.536 1221.89 78.536C1223.03 78.536 1224.16 78.936 1225.06 79.528L1224.24 80.952C1223.46 80.456 1222.61 80.2 1221.89 80.2C1221.2 80.2 1220.67 80.472 1220.67 80.936C1220.67 81.464 1221.11 81.624 1222.37 81.992C1223.76 82.376 1225.27 82.856 1225.27 84.584C1225.27 86.168 1223.95 87.192 1222.02 87.192ZM1230.02 87.192C1228.75 87.192 1227.39 86.744 1226.4 85.944L1227.28 84.584C1228.08 85.16 1229.01 85.544 1230.05 85.544C1230.83 85.544 1231.38 85.208 1231.38 84.696C1231.38 84.056 1230.66 83.848 1229.71 83.592C1227.92 83.128 1226.79 82.616 1226.77 81.144C1226.77 79.592 1228.05 78.536 1229.89 78.536C1231.03 78.536 1232.16 78.936 1233.06 79.528L1232.24 80.952C1231.46 80.456 1230.61 80.2 1229.89 80.2C1229.2 80.2 1228.67 80.472 1228.67 80.936C1228.67 81.464 1229.11 81.624 1230.37 81.992C1231.76 82.376 1233.27 82.856 1233.27 84.584C1233.27 86.168 1231.95 87.192 1230.02 87.192ZM1235.95 77.48C1235.33 77.48 1234.83 76.952 1234.83 76.36C1234.83 75.768 1235.33 75.256 1235.95 75.256C1236.56 75.256 1237.06 75.768 1237.06 76.36C1237.06 76.952 1236.56 77.48 1235.95 77.48ZM1234.96 87V78.728H1236.91V87H1234.96ZM1243.07 87.192C1240.67 87.192 1238.64 85.208 1238.64 82.856C1238.64 80.504 1240.67 78.536 1243.07 78.536C1245.47 78.536 1247.5 80.504 1247.5 82.856C1247.5 85.208 1245.47 87.192 1243.07 87.192ZM1243.07 85.528C1244.43 85.528 1245.58 84.312 1245.58 82.856C1245.58 81.416 1244.43 80.2 1243.07 80.2C1241.7 80.2 1240.54 81.416 1240.54 82.856C1240.54 84.312 1241.7 85.528 1243.07 85.528ZM1253.71 78.536C1255.52 78.536 1256.78 79.864 1256.78 81.736V87H1254.89V82.12C1254.89 81 1254.17 80.2 1253.15 80.2C1252.12 80.2 1251.28 80.888 1251.15 81.768V87H1249.2V78.728H1251.15V79.832C1251.66 79.064 1252.62 78.536 1253.71 78.536Z" fill="#1B2550"></path>
  <path opacity="0.3" d="M156.75 80.25L162 72.75L156.75 65.25" stroke="#1B2550" stroke-width="2.25" stroke-linecap="round" stroke-linejoin="round"></path>
  <path opacity="0.3" d="M164.25 80.25L170.25 72.75L164.25 65.25" stroke="#1B2550" stroke-width="2.25" stroke-linecap="round" stroke-linejoin="round"></path>
  <path opacity="0.3" d="M172.5 80.25L178.5 72.75L172.5 65.25" stroke="#1B2550" stroke-width="2.25" stroke-linecap="round" stroke-linejoin="round"></path>
  <path opacity="0.3" d="M347.25 80.25L352.5 72.75L347.25 65.25" stroke="#1B2550" stroke-width="2.25" stroke-linecap="round" stroke-linejoin="round"></path>
  <path opacity="0.3" d="M354.75 80.25L360.75 72.75L354.75 65.25" stroke="#1B2550" stroke-width="2.25" stroke-linecap="round" stroke-linejoin="round"></path>
  <path opacity="0.3" d="M363 80.25L369 72.75L363 65.25" stroke="#1B2550" stroke-width="2.25" stroke-linecap="round" stroke-linejoin="round"></path>
  <path opacity="0.3" d="M537.75 80.25L543 72.75L537.75 65.25" stroke="#1B2550" stroke-width="2.25" stroke-linecap="round" stroke-linejoin="round"></path>
  <path opacity="0.3" d="M545.25 80.25L551.25 72.75L545.25 65.25" stroke="#1B2550" stroke-width="2.25" stroke-linecap="round" stroke-linejoin="round"></path>
  <path opacity="0.3" d="M553.5 80.25L559.5 72.75L553.5 65.25" stroke="#1B2550" stroke-width="2.25" stroke-linecap="round" stroke-linejoin="round"></path>
  <path opacity="0.3" d="M728.25 80.25L733.5 72.75L728.25 65.25" stroke="#1B2550" stroke-width="2.25" stroke-linecap="round" stroke-linejoin="round"></path>
  <path opacity="0.3" d="M735.75 80.25L741.75 72.75L735.75 65.25" stroke="#1B2550" stroke-width="2.25" stroke-linecap="round" stroke-linejoin="round"></path>
  <path opacity="0.3" d="M744 80.25L750 72.75L744 65.25" stroke="#1B2550" stroke-width="2.25" stroke-linecap="round" stroke-linejoin="round"></path>
  <path opacity="0.3" d="M918.75 80.25L924 72.75L918.75 65.25" stroke="#1B2550" stroke-width="2.25" stroke-linecap="round" stroke-linejoin="round"></path>
  <path opacity="0.3" d="M926.25 80.25L932.25 72.75L926.25 65.25" stroke="#1B2550" stroke-width="2.25" stroke-linecap="round" stroke-linejoin="round"></path>
  <path opacity="0.3" d="M934.5 80.25L940.5 72.75L934.5 65.25" stroke="#1B2550" stroke-width="2.25" stroke-linecap="round" stroke-linejoin="round"></path>
  <path opacity="0.3" d="M1109.25 80.25L1114.5 72.75L1109.25 65.25" stroke="#1B2550" stroke-width="2.25" stroke-linecap="round" stroke-linejoin="round"></path>
  <path opacity="0.3" d="M1116.75 80.25L1122.75 72.75L1116.75 65.25" stroke="#1B2550" stroke-width="2.25" stroke-linecap="round" stroke-linejoin="round"></path>
  <path opacity="0.3" d="M1125 80.25L1131 72.75L1125 65.25" stroke="#1B2550" stroke-width="2.25" stroke-linecap="round" stroke-linejoin="round"></path>
  <defs>
    <filter id="filter0_d_1916_1913" x="3.75" y="6" width="144.75" height="144.75" filterUnits="userSpaceOnUse" color-interpolation-filters="sRGB">
      <feFlood flood-opacity="0" result="BackgroundImageFix"></feFlood>
      <feColorMatrix in="SourceAlpha" type="matrix" values="0 0 0 0 0 0 0 0 0 0 0 0 0 0 0 0 0 0 127 0" result="hardAlpha"></feColorMatrix>
      <feOffset dx="3" dy="6"></feOffset>
      <feGaussianBlur stdDeviation="7.5"></feGaussianBlur>
      <feComposite in2="hardAlpha" operator="out"></feComposite>
      <feColorMatrix type="matrix" values="0 0 0 0 0 0 0 0 0 0 0 0 0 0 0 0 0 0 0.25 0"></feColorMatrix>
      <feBlend mode="normal" in2="BackgroundImageFix" result="effect1_dropShadow_1916_1913"></feBlend>
      <feBlend mode="normal" in="SourceGraphic" in2="effect1_dropShadow_1916_1913" result="shape"></feBlend>
    </filter>
    <filter id="filter1_d_1916_1913" x="194.25" y="6" width="144.75" height="144.75" filterUnits="userSpaceOnUse" color-interpolation-filters="sRGB">
      <feFlood flood-opacity="0" result="BackgroundImageFix"></feFlood>
      <feColorMatrix in="SourceAlpha" type="matrix" values="0 0 0 0 0 0 0 0 0 0 0 0 0 0 0 0 0 0 127 0" result="hardAlpha"></feColorMatrix>
      <feOffset dx="3" dy="6"></feOffset>
      <feGaussianBlur stdDeviation="7.5"></feGaussianBlur>
      <feComposite in2="hardAlpha" operator="out"></feComposite>
      <feColorMatrix type="matrix" values="0 0 0 0 0 0 0 0 0 0 0 0 0 0 0 0 0 0 0.25 0"></feColorMatrix>
      <feBlend mode="normal" in2="BackgroundImageFix" result="effect1_dropShadow_1916_1913"></feBlend>
      <feBlend mode="normal" in="SourceGraphic" in2="effect1_dropShadow_1916_1913" result="shape"></feBlend>
    </filter>
    <filter id="filter2_d_1916_1913" x="384.75" y="6" width="144.75" height="144.75" filterUnits="userSpaceOnUse" color-interpolation-filters="sRGB">
      <feFlood flood-opacity="0" result="BackgroundImageFix"></feFlood>
      <feColorMatrix in="SourceAlpha" type="matrix" values="0 0 0 0 0 0 0 0 0 0 0 0 0 0 0 0 0 0 127 0" result="hardAlpha"></feColorMatrix>
      <feOffset dx="3" dy="6"></feOffset>
      <feGaussianBlur stdDeviation="7.5"></feGaussianBlur>
      <feComposite in2="hardAlpha" operator="out"></feComposite>
      <feColorMatrix type="matrix" values="0 0 0 0 0 0 0 0 0 0 0 0 0 0 0 0 0 0 0.25 0"></feColorMatrix>
      <feBlend mode="normal" in2="BackgroundImageFix" result="effect1_dropShadow_1916_1913"></feBlend>
      <feBlend mode="normal" in="SourceGraphic" in2="effect1_dropShadow_1916_1913" result="shape"></feBlend>
    </filter>
    <filter id="filter3_d_1916_1913" x="575.25" y="6" width="144.75" height="144.75" filterUnits="userSpaceOnUse" color-interpolation-filters="sRGB">
      <feFlood flood-opacity="0" result="BackgroundImageFix"></feFlood>
      <feColorMatrix in="SourceAlpha" type="matrix" values="0 0 0 0 0 0 0 0 0 0 0 0 0 0 0 0 0 0 127 0" result="hardAlpha"></feColorMatrix>
      <feOffset dx="3" dy="6"></feOffset>
      <feGaussianBlur stdDeviation="7.5"></feGaussianBlur>
      <feComposite in2="hardAlpha" operator="out"></feComposite>
      <feColorMatrix type="matrix" values="0 0 0 0 0 0 0 0 0 0 0 0 0 0 0 0 0 0 0.25 0"></feColorMatrix>
      <feBlend mode="normal" in2="BackgroundImageFix" result="effect1_dropShadow_1916_1913"></feBlend>
      <feBlend mode="normal" in="SourceGraphic" in2="effect1_dropShadow_1916_1913" result="shape"></feBlend>
    </filter>
    <filter id="filter4_d_1916_1913" x="765.75" y="6" width="144.75" height="144.75" filterUnits="userSpaceOnUse" color-interpolation-filters="sRGB">
      <feFlood flood-opacity="0" result="BackgroundImageFix"></feFlood>
      <feColorMatrix in="SourceAlpha" type="matrix" values="0 0 0 0 0 0 0 0 0 0 0 0 0 0 0 0 0 0 127 0" result="hardAlpha"></feColorMatrix>
      <feOffset dx="3" dy="6"></feOffset>
      <feGaussianBlur stdDeviation="7.5"></feGaussianBlur>
      <feComposite in2="hardAlpha" operator="out"></feComposite>
      <feColorMatrix type="matrix" values="0 0 0 0 0 0 0 0 0 0 0 0 0 0 0 0 0 0 0.25 0"></feColorMatrix>
      <feBlend mode="normal" in2="BackgroundImageFix" result="effect1_dropShadow_1916_1913"></feBlend>
      <feBlend mode="normal" in="SourceGraphic" in2="effect1_dropShadow_1916_1913" result="shape"></feBlend>
    </filter>
    <filter id="filter5_d_1916_1913" x="956.25" y="6" width="144.75" height="144.75" filterUnits="userSpaceOnUse" color-interpolation-filters="sRGB">
      <feFlood flood-opacity="0" result="BackgroundImageFix"></feFlood>
      <feColorMatrix in="SourceAlpha" type="matrix" values="0 0 0 0 0 0 0 0 0 0 0 0 0 0 0 0 0 0 127 0" result="hardAlpha"></feColorMatrix>
      <feOffset dx="3" dy="6"></feOffset>
      <feGaussianBlur stdDeviation="7.5"></feGaussianBlur>
      <feComposite in2="hardAlpha" operator="out"></feComposite>
      <feColorMatrix type="matrix" values="0 0 0 0 0 0 0 0 0 0 0 0 0 0 0 0 0 0 0.25 0"></feColorMatrix>
      <feBlend mode="normal" in2="BackgroundImageFix" result="effect1_dropShadow_1916_1913"></feBlend>
      <feBlend mode="normal" in="SourceGraphic" in2="effect1_dropShadow_1916_1913" result="shape"></feBlend>
    </filter>
    <filter id="filter6_d_1916_1913" x="1146.75" y="6" width="144.75" height="144.75" filterUnits="userSpaceOnUse" color-interpolation-filters="sRGB">
      <feFlood flood-opacity="0" result="BackgroundImageFix"></feFlood>
      <feColorMatrix in="SourceAlpha" type="matrix" values="0 0 0 0 0 0 0 0 0 0 0 0 0 0 0 0 0 0 127 0" result="hardAlpha"></feColorMatrix>
      <feOffset dx="3" dy="6"></feOffset>
      <feGaussianBlur stdDeviation="7.5"></feGaussianBlur>
      <feComposite in2="hardAlpha" operator="out"></feComposite>
      <feColorMatrix type="matrix" values="0 0 0 0 0 0 0 0 0 0 0 0 0 0 0 0 0 0 0.25 0"></feColorMatrix>
      <feBlend mode="normal" in2="BackgroundImageFix" result="effect1_dropShadow_1916_1913"></feBlend>
      <feBlend mode="normal" in="SourceGraphic" in2="effect1_dropShadow_1916_1913" result="shape"></feBlend>
    </filter>
  </defs>
</svg>
