<svg width="1136" height="783" viewBox="0 0 1136 783" fill="none" xmlns="http://www.w3.org/2000/svg">
<g opacity="0.13" clip-path="url(#clip0_994_5021)">
<path d="M377.485 349.296H352.696V386.497H315.456V411.262H352.696V448.463H377.485V411.262H414.725V386.497H377.485V349.296Z" fill="url(#paint0_linear_994_5021)"/>
<path d="M80.8423 270.139H55.9975V307.285H18.7581V332.105H55.9975V369.306H80.8423V332.105H118.082V307.285H80.8423V270.139Z" fill="url(#paint1_linear_994_5021)"/>
<path d="M605.349 356.648H586.757V384.507H558.869V403.08H586.757V430.94H605.349V403.08H633.237V384.507H605.349V356.648Z" fill="url(#paint2_linear_994_5021)"/>
<path d="M116.145 434.146H100.597V457.528H77.1907V473.061H100.597V496.444H116.145V473.061H139.552V457.528H116.145V434.146Z" fill="url(#paint3_linear_994_5021)"/>
<path d="M470.058 544.645H455.838V565.982H434.479V580.188H455.838V601.525H470.058V580.188H491.417V565.982H470.058V544.645Z" fill="url(#paint4_linear_994_5021)"/>
<path d="M300.683 494.398H288.177V513.137H269.419V525.63H288.177V544.369H300.683V525.63H319.441V513.137H300.683V494.398Z" fill="url(#paint5_linear_994_5021)"/>
<path d="M39.7295 710.421H27.2241V729.16H8.46606V741.653H27.2241V760.336H39.7295V741.653H58.4876V729.16H39.7295V710.421Z" fill="url(#paint6_linear_994_5021)"/>
<path d="M150.341 157.429H137.836V176.168H119.078V188.661H137.836V207.344H150.341V188.661H169.099V176.168H150.341V157.429Z" fill="url(#paint7_linear_994_5021)"/>
<path d="M58.2661 99.6646H45.7608V118.403H27.0027V130.841H45.7608V149.58H58.2661V130.841H77.0242V118.403H58.2661V99.6646Z" fill="url(#paint8_linear_994_5021)"/>
<path d="M225.595 244.988H216.686V258.31H203.295V267.209H216.686V280.586H225.595V267.209H238.986V258.31H225.595V244.988Z" fill="url(#paint9_linear_994_5021)"/>
<path d="M502.042 187.058H493.133V200.379H479.742V209.279H493.133V222.656H502.042V209.279H515.432V200.379H502.042V187.058Z" fill="url(#paint10_linear_994_5021)"/>
<path d="M255.364 366.929H249.222V376.105H240.037V382.241H249.222V391.417H255.364V382.241H264.549V376.105H255.364V366.929Z" fill="url(#paint11_linear_994_5021)"/>
<path d="M15.3274 507.886H9.18537V517.062H0V523.198H9.18537V532.374H15.3274V523.198H24.5128V517.062H15.3274V507.886Z" fill="url(#paint12_linear_994_5021)"/>
<path d="M200.141 530.218H193.999V539.394H184.814V545.474H193.999V554.65H200.141V545.474H209.327V539.394H200.141V530.218Z" fill="url(#paint13_linear_994_5021)"/>
<path d="M73.2063 598.043H67.0643V607.219H57.8789V613.355H67.0643V622.531H73.2063V613.355H82.3917V607.219H73.2063V598.043Z" fill="url(#paint14_linear_994_5021)"/>
<path d="M1040.1 539.891H1033.96V549.067H1024.78V555.203H1033.96V564.379H1040.1V555.203H1049.29V549.067H1040.1V539.891Z" fill="url(#paint15_linear_994_5021)"/>
<path d="M222.994 646.797H216.852V655.973H207.667V662.109H216.852V671.285H222.994V662.109H232.179V655.973H222.994V646.797Z" fill="url(#paint16_linear_994_5021)"/>
<path d="M373.833 647.24H367.691V656.416H358.506V662.496H367.691V671.672H373.833V662.496H383.019V656.416H373.833V647.24Z" fill="url(#paint17_linear_994_5021)"/>
<path d="M172.917 758.567H166.775V767.743H157.59V773.824H166.775V783H172.917V773.824H182.103V767.743H172.917V758.567Z" fill="url(#paint18_linear_994_5021)"/>
<path d="M523.345 728.773H517.203V737.949H508.017V744.03H517.203V753.206H523.345V744.03H532.53V737.949H523.345V728.773Z" fill="url(#paint19_linear_994_5021)"/>
<path d="M725.423 237.692H719.281V246.868H710.095V253.003H719.281V262.179H725.423V253.003H734.608V246.868H725.423V237.692Z" fill="url(#paint20_linear_994_5021)"/>
<path d="M892.973 475.217H886.886V484.393H877.701V490.529H886.886V499.705H892.973V490.529H902.158V484.393H892.973V475.217Z" fill="url(#paint21_linear_994_5021)"/>
<path d="M612.21 290.371H606.068V299.547H596.883V305.682H606.068V314.858H612.21V305.682H621.396V299.547H612.21V290.371Z" fill="url(#paint22_linear_994_5021)"/>
<path d="M461.15 321.657H456.668V328.291H450.028V332.768H456.668V339.401H461.15V332.768H467.79V328.291H461.15V321.657Z" fill="url(#paint23_linear_994_5021)"/>
<path d="M616.693 141.675H612.211V148.364H605.571V152.786H612.211V159.474H616.693V152.786H623.333V148.364H616.693V141.675Z" fill="url(#paint24_linear_994_5021)"/>
<path d="M30.8762 0H26.3942V6.63325H19.7542V11.1107H26.3942V17.7439H30.8762V11.1107H37.5162V6.63325H30.8762V0Z" fill="url(#paint25_linear_994_5021)"/>
<path d="M217.239 73.6843H212.813V80.3729H206.117V84.795H212.813V91.4835H217.239V84.795H223.935V80.3729H217.239V73.6843Z" fill="url(#paint26_linear_994_5021)"/>
<path d="M711.59 452.941H705.503V462.061H696.318V468.197H705.503V477.373H711.59V468.197H720.775V462.061H711.59V452.941Z" fill="url(#paint27_linear_994_5021)"/>
<path d="M984.771 342.165H978.685V351.341H969.499V357.422H978.685V366.598H984.771V357.422H993.957V351.341H984.771V342.165Z" fill="url(#paint28_linear_994_5021)"/>
<path d="M888.27 274.782H882.183V283.958H872.998V290.094H882.183V299.215H888.27V290.094H897.455V283.958H888.27V274.782Z" fill="url(#paint29_linear_994_5021)"/>
<path d="M804.937 652.933H798.795V662.109H789.665V668.245H798.795V677.366H804.937V668.245H814.123V662.109H804.937V652.933Z" fill="url(#paint30_linear_994_5021)"/>
<path d="M810.526 557.856H806.819V563.384H801.341V567.032H806.819V572.56H810.526V567.032H816.004V563.384H810.526V557.856Z" fill="url(#paint31_linear_994_5021)"/>
<path d="M935.248 589.641H931.596V595.168H926.062V598.817H931.596V604.344H935.248V598.817H940.781V595.168H935.248V589.641Z" fill="url(#paint32_linear_994_5021)"/>
<path d="M1047.3 425.744H1043.59V431.272H1038.11V434.92H1043.59V440.448H1047.3V434.92H1052.78V431.272H1047.3V425.744Z" fill="url(#paint33_linear_994_5021)"/>
<path d="M1088.47 631.099H1084.81V636.626H1079.28V640.275H1084.81V645.802H1088.47V640.275H1094V636.626H1088.47V631.099Z" fill="url(#paint34_linear_994_5021)"/>
<path d="M1130.02 525.685H1126.31V531.213H1120.84V534.861H1126.31V540.389H1130.02V534.861H1135.5V531.213H1130.02V525.685Z" fill="url(#paint35_linear_994_5021)"/>
<path d="M972.266 444.373H968.559V449.9H963.081V453.549H968.559V459.076H972.266V453.549H977.744V449.9H972.266V444.373Z" fill="url(#paint36_linear_994_5021)"/>
<path d="M856.73 393.075H851.196V401.367H842.841V406.95H851.196V415.242H856.73V406.95H865.085V401.367H856.73V393.075Z" fill="url(#paint37_linear_994_5021)"/>
<path d="M627.316 671.506H623.664V677.034H618.131V680.682H623.664V686.21H627.316V680.682H632.85V677.034H627.316V671.506Z" fill="url(#paint38_linear_994_5021)"/>
<path d="M409.8 133.992H406.093V139.464H400.615V143.168H406.093V148.64H409.8V143.168H415.278V139.464H409.8V133.992Z" fill="url(#paint39_linear_994_5021)"/>
<path d="M956.441 689.913H952.789V695.386H947.255V699.089H952.789V704.562H956.441V699.089H961.974V695.386H956.441V689.913Z" fill="url(#paint40_linear_994_5021)"/>
<path d="M728.356 366.653H724.648V372.125H719.17V375.829H724.648V381.302H728.356V375.829H733.834V372.125H728.356V366.653Z" fill="url(#paint41_linear_994_5021)"/>
<path d="M595.168 521.871H590.077V529.499H582.441V534.64H590.077V542.268H595.168V534.64H602.804V529.499H595.168V521.871Z" fill="url(#paint42_linear_994_5021)"/>
<path d="M330.839 198.39H322.539V210.827H310.089V219.063H322.539V231.501H330.839V219.063H343.234V210.827H330.839V198.39Z" fill="url(#paint43_linear_994_5021)"/>
</g>
<defs>
<linearGradient id="paint0_linear_994_5021" x1="365.09" y1="349.296" x2="365.09" y2="448.463" gradientUnits="userSpaceOnUse">
<stop stop-color="white" stop-opacity="0.23"/>
<stop offset="1" stop-color="#FFE8D5" stop-opacity="0.44"/>
</linearGradient>
<linearGradient id="paint1_linear_994_5021" x1="68.4199" y1="270.139" x2="68.4199" y2="369.306" gradientUnits="userSpaceOnUse">
<stop stop-color="white" stop-opacity="0.23"/>
<stop offset="1" stop-color="#FFE8D5" stop-opacity="0.44"/>
</linearGradient>
<linearGradient id="paint2_linear_994_5021" x1="596.053" y1="356.648" x2="596.053" y2="430.94" gradientUnits="userSpaceOnUse">
<stop stop-color="white" stop-opacity="0.23"/>
<stop offset="1" stop-color="#FFE8D5" stop-opacity="0.44"/>
</linearGradient>
<linearGradient id="paint3_linear_994_5021" x1="108.371" y1="434.146" x2="108.371" y2="496.444" gradientUnits="userSpaceOnUse">
<stop stop-color="white" stop-opacity="0.23"/>
<stop offset="1" stop-color="#FFE8D5" stop-opacity="0.44"/>
</linearGradient>
<linearGradient id="paint4_linear_994_5021" x1="462.948" y1="544.645" x2="462.948" y2="601.525" gradientUnits="userSpaceOnUse">
<stop stop-color="white" stop-opacity="0.23"/>
<stop offset="1" stop-color="#FFE8D5" stop-opacity="0.44"/>
</linearGradient>
<linearGradient id="paint5_linear_994_5021" x1="294.43" y1="494.398" x2="294.43" y2="544.369" gradientUnits="userSpaceOnUse">
<stop stop-color="white" stop-opacity="0.23"/>
<stop offset="1" stop-color="#FFE8D5" stop-opacity="0.44"/>
</linearGradient>
<linearGradient id="paint6_linear_994_5021" x1="33.4768" y1="710.421" x2="33.4768" y2="760.336" gradientUnits="userSpaceOnUse">
<stop stop-color="white" stop-opacity="0.23"/>
<stop offset="1" stop-color="#FFE8D5" stop-opacity="0.44"/>
</linearGradient>
<linearGradient id="paint7_linear_994_5021" x1="144.089" y1="157.429" x2="144.089" y2="207.344" gradientUnits="userSpaceOnUse">
<stop stop-color="white" stop-opacity="0.23"/>
<stop offset="1" stop-color="#FFE8D5" stop-opacity="0.44"/>
</linearGradient>
<linearGradient id="paint8_linear_994_5021" x1="52.0135" y1="99.6646" x2="52.0135" y2="149.58" gradientUnits="userSpaceOnUse">
<stop stop-color="white" stop-opacity="0.23"/>
<stop offset="1" stop-color="#FFE8D5" stop-opacity="0.44"/>
</linearGradient>
<linearGradient id="paint9_linear_994_5021" x1="221.14" y1="244.988" x2="221.14" y2="280.586" gradientUnits="userSpaceOnUse">
<stop stop-color="white" stop-opacity="0.23"/>
<stop offset="1" stop-color="#FFE8D5" stop-opacity="0.44"/>
</linearGradient>
<linearGradient id="paint10_linear_994_5021" x1="497.587" y1="187.058" x2="497.587" y2="222.656" gradientUnits="userSpaceOnUse">
<stop stop-color="white" stop-opacity="0.23"/>
<stop offset="1" stop-color="#FFE8D5" stop-opacity="0.44"/>
</linearGradient>
<linearGradient id="paint11_linear_994_5021" x1="252.293" y1="366.929" x2="252.293" y2="391.417" gradientUnits="userSpaceOnUse">
<stop stop-color="white" stop-opacity="0.23"/>
<stop offset="1" stop-color="#FFE8D5" stop-opacity="0.44"/>
</linearGradient>
<linearGradient id="paint12_linear_994_5021" x1="12.2564" y1="507.886" x2="12.2564" y2="532.374" gradientUnits="userSpaceOnUse">
<stop stop-color="white" stop-opacity="0.23"/>
<stop offset="1" stop-color="#FFE8D5" stop-opacity="0.44"/>
</linearGradient>
<linearGradient id="paint13_linear_994_5021" x1="197.07" y1="530.218" x2="197.07" y2="554.65" gradientUnits="userSpaceOnUse">
<stop stop-color="white" stop-opacity="0.23"/>
<stop offset="1" stop-color="#FFE8D5" stop-opacity="0.44"/>
</linearGradient>
<linearGradient id="paint14_linear_994_5021" x1="70.1353" y1="598.043" x2="70.1353" y2="622.531" gradientUnits="userSpaceOnUse">
<stop stop-color="white" stop-opacity="0.23"/>
<stop offset="1" stop-color="#FFE8D5" stop-opacity="0.44"/>
</linearGradient>
<linearGradient id="paint15_linear_994_5021" x1="1037.03" y1="539.891" x2="1037.03" y2="564.379" gradientUnits="userSpaceOnUse">
<stop stop-color="white" stop-opacity="0.23"/>
<stop offset="1" stop-color="#FFE8D5" stop-opacity="0.44"/>
</linearGradient>
<linearGradient id="paint16_linear_994_5021" x1="219.923" y1="646.797" x2="219.923" y2="671.285" gradientUnits="userSpaceOnUse">
<stop stop-color="white" stop-opacity="0.23"/>
<stop offset="1" stop-color="#FFE8D5" stop-opacity="0.44"/>
</linearGradient>
<linearGradient id="paint17_linear_994_5021" x1="370.762" y1="647.24" x2="370.762" y2="671.672" gradientUnits="userSpaceOnUse">
<stop stop-color="white" stop-opacity="0.23"/>
<stop offset="1" stop-color="#FFE8D5" stop-opacity="0.44"/>
</linearGradient>
<linearGradient id="paint18_linear_994_5021" x1="169.846" y1="758.567" x2="169.846" y2="783" gradientUnits="userSpaceOnUse">
<stop stop-color="white" stop-opacity="0.23"/>
<stop offset="1" stop-color="#FFE8D5" stop-opacity="0.44"/>
</linearGradient>
<linearGradient id="paint19_linear_994_5021" x1="520.274" y1="728.773" x2="520.274" y2="753.206" gradientUnits="userSpaceOnUse">
<stop stop-color="white" stop-opacity="0.23"/>
<stop offset="1" stop-color="#FFE8D5" stop-opacity="0.44"/>
</linearGradient>
<linearGradient id="paint20_linear_994_5021" x1="722.352" y1="237.692" x2="722.352" y2="262.179" gradientUnits="userSpaceOnUse">
<stop stop-color="white" stop-opacity="0.23"/>
<stop offset="1" stop-color="#FFE8D5" stop-opacity="0.44"/>
</linearGradient>
<linearGradient id="paint21_linear_994_5021" x1="889.93" y1="475.217" x2="889.93" y2="499.705" gradientUnits="userSpaceOnUse">
<stop stop-color="white" stop-opacity="0.23"/>
<stop offset="1" stop-color="#FFE8D5" stop-opacity="0.44"/>
</linearGradient>
<linearGradient id="paint22_linear_994_5021" x1="609.139" y1="290.371" x2="609.139" y2="314.858" gradientUnits="userSpaceOnUse">
<stop stop-color="white" stop-opacity="0.23"/>
<stop offset="1" stop-color="#FFE8D5" stop-opacity="0.44"/>
</linearGradient>
<linearGradient id="paint23_linear_994_5021" x1="458.909" y1="321.657" x2="458.909" y2="339.401" gradientUnits="userSpaceOnUse">
<stop stop-color="white" stop-opacity="0.23"/>
<stop offset="1" stop-color="#FFE8D5" stop-opacity="0.44"/>
</linearGradient>
<linearGradient id="paint24_linear_994_5021" x1="614.452" y1="141.675" x2="614.452" y2="159.474" gradientUnits="userSpaceOnUse">
<stop stop-color="white" stop-opacity="0.23"/>
<stop offset="1" stop-color="#FFE8D5" stop-opacity="0.44"/>
</linearGradient>
<linearGradient id="paint25_linear_994_5021" x1="28.6352" y1="0" x2="28.6352" y2="17.7439" gradientUnits="userSpaceOnUse">
<stop stop-color="white" stop-opacity="0.23"/>
<stop offset="1" stop-color="#FFE8D5" stop-opacity="0.44"/>
</linearGradient>
<linearGradient id="paint26_linear_994_5021" x1="215.026" y1="73.6843" x2="215.026" y2="91.4835" gradientUnits="userSpaceOnUse">
<stop stop-color="white" stop-opacity="0.23"/>
<stop offset="1" stop-color="#FFE8D5" stop-opacity="0.44"/>
</linearGradient>
<linearGradient id="paint27_linear_994_5021" x1="708.547" y1="452.941" x2="708.547" y2="477.373" gradientUnits="userSpaceOnUse">
<stop stop-color="white" stop-opacity="0.23"/>
<stop offset="1" stop-color="#FFE8D5" stop-opacity="0.44"/>
</linearGradient>
<linearGradient id="paint28_linear_994_5021" x1="981.728" y1="342.165" x2="981.728" y2="366.598" gradientUnits="userSpaceOnUse">
<stop stop-color="white" stop-opacity="0.23"/>
<stop offset="1" stop-color="#FFE8D5" stop-opacity="0.44"/>
</linearGradient>
<linearGradient id="paint29_linear_994_5021" x1="885.226" y1="274.782" x2="885.226" y2="299.215" gradientUnits="userSpaceOnUse">
<stop stop-color="white" stop-opacity="0.23"/>
<stop offset="1" stop-color="#FFE8D5" stop-opacity="0.44"/>
</linearGradient>
<linearGradient id="paint30_linear_994_5021" x1="801.894" y1="652.933" x2="801.894" y2="677.366" gradientUnits="userSpaceOnUse">
<stop stop-color="white" stop-opacity="0.23"/>
<stop offset="1" stop-color="#FFE8D5" stop-opacity="0.44"/>
</linearGradient>
<linearGradient id="paint31_linear_994_5021" x1="808.672" y1="557.856" x2="808.672" y2="572.56" gradientUnits="userSpaceOnUse">
<stop stop-color="white" stop-opacity="0.23"/>
<stop offset="1" stop-color="#FFE8D5" stop-opacity="0.44"/>
</linearGradient>
<linearGradient id="paint32_linear_994_5021" x1="933.422" y1="589.641" x2="933.422" y2="604.344" gradientUnits="userSpaceOnUse">
<stop stop-color="white" stop-opacity="0.23"/>
<stop offset="1" stop-color="#FFE8D5" stop-opacity="0.44"/>
</linearGradient>
<linearGradient id="paint33_linear_994_5021" x1="1045.44" y1="425.744" x2="1045.44" y2="440.448" gradientUnits="userSpaceOnUse">
<stop stop-color="white" stop-opacity="0.23"/>
<stop offset="1" stop-color="#FFE8D5" stop-opacity="0.44"/>
</linearGradient>
<linearGradient id="paint34_linear_994_5021" x1="1086.64" y1="631.099" x2="1086.64" y2="645.802" gradientUnits="userSpaceOnUse">
<stop stop-color="white" stop-opacity="0.23"/>
<stop offset="1" stop-color="#FFE8D5" stop-opacity="0.44"/>
</linearGradient>
<linearGradient id="paint35_linear_994_5021" x1="1128.17" y1="525.685" x2="1128.17" y2="540.389" gradientUnits="userSpaceOnUse">
<stop stop-color="white" stop-opacity="0.23"/>
<stop offset="1" stop-color="#FFE8D5" stop-opacity="0.44"/>
</linearGradient>
<linearGradient id="paint36_linear_994_5021" x1="970.412" y1="444.373" x2="970.412" y2="459.076" gradientUnits="userSpaceOnUse">
<stop stop-color="white" stop-opacity="0.23"/>
<stop offset="1" stop-color="#FFE8D5" stop-opacity="0.44"/>
</linearGradient>
<linearGradient id="paint37_linear_994_5021" x1="853.963" y1="393.075" x2="853.963" y2="415.242" gradientUnits="userSpaceOnUse">
<stop stop-color="white" stop-opacity="0.23"/>
<stop offset="1" stop-color="#FFE8D5" stop-opacity="0.44"/>
</linearGradient>
<linearGradient id="paint38_linear_994_5021" x1="625.49" y1="671.506" x2="625.49" y2="686.21" gradientUnits="userSpaceOnUse">
<stop stop-color="white" stop-opacity="0.23"/>
<stop offset="1" stop-color="#FFE8D5" stop-opacity="0.44"/>
</linearGradient>
<linearGradient id="paint39_linear_994_5021" x1="407.947" y1="133.992" x2="407.947" y2="148.64" gradientUnits="userSpaceOnUse">
<stop stop-color="white" stop-opacity="0.23"/>
<stop offset="1" stop-color="#FFE8D5" stop-opacity="0.44"/>
</linearGradient>
<linearGradient id="paint40_linear_994_5021" x1="954.615" y1="689.913" x2="954.615" y2="704.562" gradientUnits="userSpaceOnUse">
<stop stop-color="white" stop-opacity="0.23"/>
<stop offset="1" stop-color="#FFE8D5" stop-opacity="0.44"/>
</linearGradient>
<linearGradient id="paint41_linear_994_5021" x1="726.502" y1="366.653" x2="726.502" y2="381.302" gradientUnits="userSpaceOnUse">
<stop stop-color="white" stop-opacity="0.23"/>
<stop offset="1" stop-color="#FFE8D5" stop-opacity="0.44"/>
</linearGradient>
<linearGradient id="paint42_linear_994_5021" x1="592.623" y1="521.871" x2="592.623" y2="542.268" gradientUnits="userSpaceOnUse">
<stop stop-color="white" stop-opacity="0.23"/>
<stop offset="1" stop-color="#FFE8D5" stop-opacity="0.44"/>
</linearGradient>
<linearGradient id="paint43_linear_994_5021" x1="326.662" y1="198.39" x2="326.662" y2="231.501" gradientUnits="userSpaceOnUse">
<stop stop-color="white" stop-opacity="0.23"/>
<stop offset="1" stop-color="#FFE8D5" stop-opacity="0.44"/>
</linearGradient>
<clipPath id="clip0_994_5021">
<rect width="1135.5" height="783" fill="white"/>
</clipPath>
</defs>
</svg>
