<svg width="55" height="65" viewBox="0 0 55 65" fill="none" xmlns="http://www.w3.org/2000/svg">
<g clip-path="url(#clip0_1259_6448)">
<path d="M12.793 27.1033C12.7957 27.1354 12.7743 27.1622 12.7823 27.1916C12.801 27.2557 12.8545 27.2958 12.8919 27.3466C12.9186 27.384 12.932 27.4241 12.9668 27.4536C13.0684 27.5418 13.1887 27.6006 13.3277 27.6059C13.333 27.6059 13.3384 27.614 13.3437 27.614C13.4747 27.614 13.603 27.6166 13.734 27.6166C25.3629 27.6166 35.5326 24.0344 44.0038 17.0089L44.779 18.3268C44.886 18.5059 45.0811 18.6155 45.287 18.6155C45.3057 18.6155 45.3244 18.6155 45.3431 18.6129C45.5704 18.5888 45.7628 18.4391 45.8404 18.2226L48.3854 10.9833C48.4415 10.8202 48.4255 10.6384 48.3373 10.4887C48.2491 10.339 48.0994 10.2374 47.9283 10.208L40.368 8.90613C40.1408 8.85266 39.9162 8.96227 39.7879 9.1494C39.6569 9.33654 39.6489 9.58516 39.7638 9.78298L41.0444 11.9671C37.1199 18.3536 27.4582 22.2648 13.1829 26.4621C13.1321 26.4781 13.1134 26.5262 13.0706 26.553C13.0011 26.5931 12.9476 26.6278 12.8995 26.692C12.8541 26.7535 12.8354 26.815 12.8166 26.8898C12.8033 26.9379 12.7605 26.9727 12.7605 27.0235C12.7605 27.0556 12.7877 27.0739 12.793 27.1033ZM42.2504 12.2689C42.2691 12.2368 42.2531 12.1994 42.2638 12.1646C42.2825 12.1165 42.2798 12.0737 42.2825 12.0203C42.2905 11.916 42.2879 11.8305 42.2451 11.7369C42.2371 11.7155 42.2478 11.6915 42.2371 11.6727L41.4217 10.2826L47.0491 11.2531L45.1537 16.6398L44.6805 15.8298C44.6752 15.8191 44.6618 15.8191 44.6538 15.8111C44.6404 15.7897 44.6485 15.763 44.6324 15.7443C44.579 15.6801 44.4961 15.6721 44.4239 15.64C44.3731 15.6133 44.3357 15.5785 44.2795 15.5678C44.1993 15.5545 44.1325 15.5812 44.0523 15.5999C43.9908 15.6133 43.9293 15.5919 43.8732 15.624C43.8572 15.6347 43.8572 15.6561 43.8411 15.6668C43.8304 15.6748 43.8144 15.6694 43.801 15.6801C36.3208 22.0694 27.7826 25.5556 17.8106 26.2879C30.2176 22.3955 38.652 18.4734 42.2504 12.2689ZM8.90577 44.702C7.10128 44.702 5.63091 46.1723 5.63091 47.9768C5.63091 49.7786 7.10122 51.2409 8.90577 51.2409C10.7076 51.2409 12.1699 49.7786 12.1699 47.9768C12.1699 46.1723 10.7049 44.702 8.90577 44.702ZM8.90577 50.0673C7.74822 50.0673 6.80721 49.129 6.80721 47.9794C6.80721 46.8219 7.74822 45.8809 8.90577 45.8809C10.058 45.8809 10.9937 46.8219 10.9937 47.9794C10.9937 49.129 10.0553 50.0673 8.90577 50.0673ZM54.2858 45.8248H49.2706V24.0823C49.2706 23.7588 49.006 23.4941 48.6825 23.4941H42.1061C41.7826 23.4941 41.518 23.7588 41.518 24.0823V45.8248H39.4034V27.8039C39.4034 27.4804 39.1387 27.2157 38.8153 27.2157H32.2362C31.9127 27.2157 31.6481 27.4804 31.6481 27.8039V45.8248H29.5335V31.5248C29.5335 31.2013 29.2688 30.9367 28.9453 30.9367H22.3689C22.0455 30.9367 21.7808 31.2013 21.7808 31.5248V45.8248H19.6582L19.6555 35.2382C19.6555 34.9147 19.3908 34.6501 19.0674 34.6501H12.5044C12.1809 34.6501 11.9162 34.9147 11.9162 35.2382V42.1031L11.2078 42.6218C11.157 42.6004 11.1062 42.579 11.0527 42.5576L10.7266 40.4243C10.6089 39.7025 10.0983 39.1972 9.48615 39.1972H8.30718C7.69499 39.1972 7.17639 39.7158 7.07476 40.4296L6.74862 42.5576C6.69782 42.579 6.64436 42.6004 6.59356 42.6218L4.85588 41.3439C4.25973 40.9135 3.54325 40.9188 3.11285 41.3493L2.27607 42.186C1.84299 42.6191 1.84031 43.3382 2.27607 43.9344L3.54592 45.664C3.52453 45.7175 3.50047 45.7709 3.48176 45.8244L1.36178 46.1479C0.64531 46.2522 0.124023 46.7708 0.124023 47.3856V48.5619C0.124023 49.1795 0.631958 49.6901 1.35644 49.8024L3.48176 50.1285C3.50315 50.1793 3.52453 50.2301 3.54592 50.2809L2.27607 52.0132C1.84299 52.6013 1.84031 53.3177 2.27607 53.7669L3.10477 54.5902C3.32398 54.8148 3.61538 54.9271 3.92547 54.9271C4.2329 54.9271 4.56173 54.8175 4.85848 54.5983L6.5935 53.3311C6.64429 53.3525 6.69508 53.3739 6.74855 53.3952L7.07469 55.5098C7.17895 56.2316 7.69758 56.7529 8.30711 56.7529H9.48608C10.0983 56.7529 10.6089 56.245 10.7265 55.5178L11.05 53.3952C11.1008 53.3738 11.1516 53.3524 11.2024 53.331L12.932 54.5929C13.2234 54.8148 13.5549 54.9244 13.8676 54.9244C14.1778 54.9244 14.4691 54.8174 14.6883 54.5982L15.5171 53.7668C15.9555 53.3284 15.9582 52.6093 15.5251 52.0211L14.2525 50.2861C14.2739 50.2353 14.2953 50.1845 14.3167 50.1311L16.4474 49.8049C16.9205 49.7301 17.2815 49.4761 17.4873 49.1446H54.2832C54.6094 49.1419 54.874 48.8773 54.874 48.5538V46.4125C54.874 46.089 54.6093 45.8248 54.2858 45.8248ZM42.6939 24.6708H48.094V45.822H42.6939V24.6708ZM32.8239 28.3921H38.2267V45.8224H32.8239V28.3921ZM22.9566 32.1134H28.3567V45.822H22.9566V32.1134ZM18.4788 35.8266V45.8246H14.3191L14.2549 45.6642L15.5301 43.9292C15.9632 43.333 15.9578 42.6139 15.5221 42.1888L14.6826 41.344C14.2816 40.9564 13.6481 40.9404 13.0894 41.2719V35.829L18.4788 35.8266ZM16.2679 48.6401L13.8165 49.0171C13.7817 49.0224 13.763 49.0572 13.7309 49.0679C13.6588 49.0919 13.6106 49.1267 13.5518 49.1775C13.4903 49.2283 13.4449 49.2737 13.4075 49.3459C13.3914 49.3753 13.3567 49.386 13.346 49.4181C13.2711 49.6506 13.1829 49.8725 13.0679 50.0891C13.0519 50.1212 13.0679 50.1559 13.0573 50.1907C13.0332 50.2628 13.0305 50.327 13.0359 50.4045C13.0412 50.4847 13.0519 50.5462 13.0867 50.6157C13.1027 50.6478 13.0893 50.6825 13.1107 50.712L14.5784 52.7143C14.6639 52.8319 14.6773 52.9308 14.6853 52.9335L13.8833 53.7462C13.8592 53.7622 13.7683 53.7515 13.632 53.6473L11.635 52.1877C11.6056 52.1689 11.5708 52.1796 11.5414 52.1663C11.4719 52.1315 11.4104 52.1235 11.3329 52.1155C11.2554 52.1075 11.1912 52.1075 11.1163 52.1315C11.0843 52.1422 11.0522 52.1235 11.0228 52.1395C10.8062 52.2491 10.579 52.3427 10.3438 52.4202C10.3063 52.4309 10.2956 52.471 10.2636 52.4897C10.2021 52.5218 10.1646 52.5619 10.1165 52.6154C10.0604 52.6769 10.0203 52.733 9.99355 52.8105C9.98285 52.8426 9.9481 52.8587 9.94275 52.8907L9.56849 55.3341C9.54443 55.4839 9.48026 55.5694 9.49096 55.5747L8.3521 55.5828C8.32804 55.5694 8.2612 55.4892 8.24249 55.3368L7.86555 52.8907C7.8602 52.856 7.82545 52.8399 7.81475 52.8079C7.79069 52.7303 7.75059 52.6795 7.6998 52.6181C7.64901 52.5592 7.60623 52.5165 7.5394 52.4817C7.51 52.4657 7.4993 52.4283 7.46455 52.4176C7.22662 52.3427 6.99939 52.2465 6.78285 52.1342C6.75344 52.1181 6.71869 52.1369 6.68928 52.1262C6.61443 52.1021 6.55027 52.1048 6.47007 52.1101C6.39522 52.1155 6.33373 52.1262 6.26423 52.1609C6.23482 52.177 6.19739 52.1636 6.17066 52.185L4.16832 53.6473C4.03466 53.7462 3.93842 53.7489 3.94911 53.7596L3.13375 52.9602C3.12841 52.9415 3.13108 52.8426 3.22999 52.7089L4.69496 50.7066C4.71634 50.6772 4.70297 50.6397 4.71902 50.6077C4.75377 50.5382 4.76446 50.4794 4.76981 50.4018C4.77516 50.3243 4.77516 50.2601 4.74842 50.1853C4.73773 50.1532 4.75644 50.1184 4.73773 50.0864C4.62277 49.8698 4.53455 49.6453 4.45703 49.41C4.44633 49.3779 4.41158 49.3672 4.39554 49.3378C4.36079 49.2683 4.31802 49.2256 4.2592 49.1774C4.19771 49.124 4.14425 49.0865 4.0694 49.0625C4.03732 49.0518 4.02128 49.0197 3.98919 49.0144L1.54044 48.6374C1.40143 48.616 1.32123 48.5599 1.30519 48.5599L1.29984 48.5626L1.29182 47.421C1.30519 47.397 1.38539 47.3328 1.5351 47.3141L3.98385 46.9398C4.01593 46.9345 4.03197 46.9024 4.06137 46.8917C4.15494 46.8623 4.23247 46.8169 4.30197 46.7447C4.33673 46.7073 4.36079 46.6752 4.38752 46.6297C4.40623 46.595 4.44099 46.5763 4.45435 46.5388C4.53188 46.3009 4.62812 46.0683 4.7404 45.8465C4.75644 45.8144 4.73773 45.7823 4.74842 45.7502C4.77248 45.678 4.76981 45.6166 4.76446 45.5417C4.75911 45.4615 4.74842 45.3973 4.71099 45.3252C4.69763 45.2958 4.70832 45.2637 4.68961 45.2369L3.22731 43.2399C3.13909 43.1196 3.12305 43.0207 3.10968 43.0207L3.91169 42.208C3.94912 42.192 4.04803 42.2161 4.16566 42.2989L6.16799 43.7666C6.17334 43.7719 6.18136 43.7666 6.18938 43.7719C6.28562 43.8387 6.3979 43.8815 6.51552 43.8815C6.53424 43.8815 6.55028 43.8708 6.56899 43.8682C6.5984 43.8655 6.61978 43.8548 6.64919 43.8494C6.69464 43.8387 6.74276 43.8387 6.78553 43.8174C7.00208 43.7051 7.22663 43.6115 7.46456 43.534C7.49931 43.5233 7.51268 43.4832 7.54476 43.4672C7.62229 43.4271 7.67576 43.3789 7.72922 43.3121C7.76932 43.2613 7.79338 43.2185 7.81477 43.1571C7.82813 43.1223 7.86021 43.1009 7.86556 43.0662L8.2425 40.6094C8.26389 40.4677 8.32805 40.3875 8.31468 40.3795L9.45621 40.3715C9.48295 40.3848 9.5471 40.4677 9.57117 40.6121L9.94543 43.0635C9.95078 43.0982 9.98553 43.1143 9.99622 43.1464C10.0203 43.2239 10.0604 43.2774 10.1139 43.3388C10.162 43.3923 10.2021 43.4351 10.2662 43.4672C10.2983 43.4859 10.3117 43.5233 10.3464 43.5367C10.5817 43.6115 10.8089 43.7078 11.0228 43.8174C11.0682 43.8414 11.1164 43.8414 11.1618 43.8521C11.1885 43.8575 11.2072 43.8682 11.234 43.8708C11.2527 43.8735 11.2714 43.8842 11.2928 43.8842C11.4104 43.8842 11.5227 43.8414 11.6189 43.7746C11.6243 43.7692 11.6323 43.7746 11.6403 43.7692L13.6427 42.3016C13.7737 42.2054 13.8779 42.2054 13.8619 42.184L14.6772 42.994C14.6853 43.0207 14.6692 43.1223 14.5863 43.24L13.1134 45.2316C13.092 45.261 13.1053 45.2958 13.0893 45.3252C13.0546 45.3947 13.0439 45.4562 13.0358 45.5364C13.0305 45.6139 13.0278 45.6781 13.0519 45.7502C13.0626 45.7823 13.0439 45.8171 13.0599 45.8492C13.1722 46.0657 13.2657 46.2956 13.3433 46.5308C13.3566 46.5709 13.3914 46.5897 13.4128 46.6271C13.4368 46.6725 13.4609 46.7046 13.4956 46.742C13.5652 46.8142 13.6427 46.8597 13.7362 46.8891C13.7656 46.8998 13.7817 46.9318 13.8138 46.9372L16.2705 47.3115C16.4042 47.3328 16.4817 47.3863 16.4978 47.3863H16.5004L16.5085 48.5279C16.4951 48.5519 16.4123 48.6161 16.2679 48.6401ZM53.6969 47.9664H17.6791V47.3863C17.6791 47.2527 17.6443 47.1243 17.5989 47.0014H53.6995L53.6969 47.9664Z" fill="white" fill-opacity="0.5"/>
</g>
<defs>
<clipPath id="clip0_1259_6448">
<rect width="55" height="65" fill="white"/>
</clipPath>
</defs>
</svg>
