<svg width="100" height="81" viewBox="0 0 100 81" fill="none" xmlns="http://www.w3.org/2000/svg">
<path d="M17.7156 11.2275H20.5344V15.4445H24.75V18.2389H20.5344V22.4558H17.7156V18.2389H13.5V15.4445H17.7156V11.2275Z" fill="#FCBA17" fill-opacity="0.2"/>
<path d="M2.24831 37.4268H3.75169V39.6758H6V41.1661H3.75169V43.4152H2.24831V41.1661H0V39.6758H2.24831V37.4268Z" fill="#FCBA17" fill-opacity="0.2"/>
<path d="M63.7483 0H65.2517V2.24905H67.5V3.73938H65.2517V5.98842H63.7483V3.73938H61.5V2.24905H63.7483V0Z" fill="#FCBA17" fill-opacity="0.2"/>
<path d="M41.9983 73.3574H43.5017V75.6065H45.75V77.0968H43.5017V79.3458H41.9983V77.0968H39.75V75.6065H41.9983V73.3574Z" fill="#FCBA17" fill-opacity="0.2"/>
<path d="M90.3708 48.6562H94.1292V54.2789H99.75V58.0047H94.1292V63.6273H90.3708V58.0047H84.75V54.2789H90.3708V48.6562Z" fill="#FCBA17" fill-opacity="0.2"/>
<path d="M11.6208 53.8955H15.3792V59.5181H21V63.244H15.3792V68.8666H11.6208V63.244H6V59.5181H11.6208V53.8955Z" fill="#FCBA17" fill-opacity="0.2"/>
<path d="M70.3104 73.3574H72.1896V76.1687H75V78.0316H72.1896V80.8429H70.3104V78.0316H67.5V76.1687H70.3104V73.3574Z" fill="#FCBA17" fill-opacity="0.2"/>
<path d="M81.5604 14.9717H83.4396V17.783H86.25V19.6459H83.4396V22.4572H81.5604V19.6459H78.75V17.783H81.5604V14.9717Z" fill="#FCBA17" fill-opacity="0.2"/>
<path d="M43.121 9.73047H57.379V31.8816H78.75V46.682H57.379V68.8661H43.121V46.682H21.75V31.8816H43.121V9.73047Z" fill="#FCBA17" fill-opacity="0.2"/>
</svg>
