<?xml version="1.0" encoding="UTF-8"?>
<svg xmlns="http://www.w3.org/2000/svg" width="91" height="54" viewBox="0 0 91 54" fill="none">
  <path d="M42.9718 13.3692H49.9543L57.6118 5.68847C57.8281 5.47032 58.0856 5.29716 58.3692 5.179C58.6528 5.06084 58.957 5 59.2643 5C59.5715 5 59.8758 5.06084 60.1594 5.179C60.443 5.29716 60.7004 5.47032 60.9168 5.68847L66.9218 11.7167C67.3553 12.1528 67.5986 12.7427 67.5986 13.3576C67.5986 13.9725 67.3553 14.5624 66.9218 14.9985L61.5918 20.3517H42.9718V25.0067C42.9718 25.624 42.7266 26.216 42.2901 26.6525C41.8536 27.089 41.2616 27.3342 40.6443 27.3342C40.027 27.3342 39.435 27.089 38.9985 26.6525C38.562 26.216 38.3168 25.624 38.3168 25.0067V18.0242C38.3168 16.7896 38.8072 15.6056 39.6802 14.7326C40.5532 13.8597 41.7372 13.3692 42.9718 13.3692ZM29.0068 25.0067V34.3167L23.6768 39.6467C23.2433 40.0828 23 40.6727 23 41.2876C23 41.9025 23.2433 42.4924 23.6768 42.9285L29.6818 48.9567C29.8981 49.1749 30.1556 49.348 30.4392 49.4662C30.7228 49.5843 31.027 49.6452 31.3343 49.6452C31.6416 49.6452 31.9458 49.5843 32.2294 49.4662C32.513 49.348 32.7704 49.1749 32.9868 48.9567L42.9718 38.9717H52.2818C52.8991 38.9717 53.4911 38.7265 53.9276 38.29C54.3641 37.8535 54.6093 37.2615 54.6093 36.6442V34.3167H56.9368C57.5541 34.3167 58.1461 34.0715 58.5826 33.635C59.0191 33.1985 59.2643 32.6065 59.2643 31.9892V29.6617H61.5918C62.2091 29.6617 62.8011 29.4165 63.2376 28.98C63.6741 28.5435 63.9193 27.9515 63.9193 27.3342V25.0067H47.6268V27.3342C47.6268 28.5688 47.1364 29.7528 46.2634 30.6258C45.3904 31.4988 44.2064 31.9892 42.9718 31.9892H38.3168C37.0822 31.9892 35.8982 31.4988 35.0252 30.6258C34.1522 29.7528 33.6618 28.5688 33.6618 27.3342V20.3517L29.0068 25.0067Z" fill="#1B2550"></path>
</svg>
