<svg class="q2" width="42" height="30" viewBox="0 0 42 30" fill="none" xmlns="http://www.w3.org/2000/svg">
                                                <path d="m31.668 0-4.914 3.744c2.652 2.106 4.524 4.836 5.226 7.41-4.68 0-8.58 4.056-8.58 8.892 0 4.992 4.056 9.126 8.814 9.126 5.382 0 9.204-4.992 9.204-12.012 0-5.694-3.588-12.012-9.75-17.16m-23.4 0L3.354 3.744C6.006 5.85 7.878 8.58 8.58 11.154 3.9 11.154 0 15.21 0 20.046c0 4.992 4.056 9.126 8.814 9.126 5.382 0 9.204-4.992 9.204-12.012 0-5.694-3.588-12.012-9.75-17.16" fill="#FCBA17"></path>
                                            </svg>