<?xml version="1.0" encoding="UTF-8"?>
<svg xmlns="http://www.w3.org/2000/svg" width="53" height="51" viewBox="0 0 53 51" fill="none">
  <path d="M25.8412 0.0136421C26.7873 -0.075824 27.5731 0.289797 28.1454 0.67047C28.7078 1.04459 29.2271 1.5451 29.6551 1.96294C30.1196 2.41648 30.5112 2.80828 30.9261 3.14054C31.3347 3.46768 31.675 3.65971 31.9757 3.74704C32.2433 3.82471 32.6182 3.84356 33.1461 3.77619C33.6751 3.70867 34.2365 3.57316 34.8788 3.41735C35.4756 3.27256 36.1854 3.09853 36.8473 3.03349C37.4938 2.96996 38.3637 2.97781 39.1442 3.44379H39.1443C39.9028 3.89664 40.2919 4.68471 40.5133 5.21296C40.7567 5.79377 40.9601 6.49024 41.1389 7.06971C41.3315 7.69393 41.5107 8.23804 41.7256 8.68989C41.9455 9.15193 42.1377 9.37339 42.2709 9.46841H42.2707C42.9401 9.94592 43.5824 10.172 44.3819 10.4006C45.1606 10.6233 46.2062 10.8722 47.2978 11.4261L47.2982 11.4264C47.6909 11.6258 48.0606 11.9208 48.3522 12.2501C48.6214 12.5542 48.9361 13.0146 49.0399 13.5881L49.0492 13.644V13.6444C49.2458 14.9156 48.893 16.2055 48.6517 17.1368C48.3839 18.1704 48.2173 18.8757 48.2821 19.4823L48.2891 19.5408C48.3654 20.1149 48.7883 20.6833 49.6475 21.5549C50.0249 21.9377 50.5163 22.412 50.9262 22.8858C51.3328 23.3556 51.7539 23.9272 52.0163 24.6079L52.0411 24.6741L52.0413 24.6743C52.3332 25.4713 52.1446 26.22 51.8989 26.7562C51.6546 27.2896 51.2859 27.7677 50.9494 28.1525C50.6059 28.5454 50.2279 28.9162 49.9226 29.2151C49.5875 29.5431 49.3751 29.7519 49.2501 29.903L49.2503 29.9032C48.8649 30.3694 48.7736 30.4612 48.671 30.613C48.613 30.6989 48.5451 30.8173 48.3995 31.1663L48.3322 31.3308C48.2895 31.4366 48.2457 31.7066 48.3158 32.2542C48.3832 32.7806 48.5254 33.3674 48.6885 34.0516C48.8408 34.6903 49.0176 35.4376 49.0796 36.1278C49.1383 36.78 49.1302 37.6911 48.6079 38.4695L48.6077 38.4694C48.1106 39.2103 47.345 39.6287 46.7144 39.8931C46.072 40.1624 45.3358 40.3631 44.7226 40.535C44.0637 40.7197 43.507 40.881 43.0366 41.0833C42.565 41.2861 42.3189 41.4742 42.1955 41.6301C41.7305 42.2175 41.5026 42.8293 41.2666 43.6289C41.0418 44.3906 40.7854 45.4428 40.2098 46.4817L40.2095 46.4822C40.0377 46.7921 39.7865 47.085 39.5251 47.3132C39.2985 47.511 38.8543 47.8468 38.2614 47.9324L38.2616 47.9325C36.9472 48.1225 35.6655 47.7656 34.749 47.5263C33.7104 47.2552 33.0043 47.09 32.3432 47.1716C31.6875 47.2527 31.101 47.7012 30.1845 48.5929C29.7797 48.9868 29.2803 49.492 28.7545 49.9091C28.2154 50.3367 27.5406 50.7635 26.7086 50.9591L26.5342 51L26.3548 50.9997C25.4728 50.9982 24.7324 50.6046 24.2001 50.2432C23.6556 49.8736 23.1278 49.3945 22.6786 48.9853C22.1976 48.5471 21.7802 48.1636 21.358 47.8485C20.9353 47.5331 20.6073 47.3646 20.3491 47.2977C20.0892 47.2305 19.7113 47.2155 19.1729 47.278C18.6375 47.3401 18.065 47.4621 17.4137 47.5998C16.8001 47.7296 16.0925 47.879 15.4276 47.9379C14.7796 47.9953 13.9619 47.9904 13.206 47.6449V47.6451C12.539 47.3403 12.1051 46.8087 11.8262 46.3647C11.5377 45.9054 11.3229 45.3904 11.1569 44.9255C10.9889 44.455 10.8493 43.9729 10.7336 43.5717C10.6097 43.1421 10.5221 42.8391 10.4414 42.6264C10.0796 41.6721 9.69683 41.2734 9.28959 41.0132C8.78568 40.6913 8.12482 40.493 6.91296 40.1498V40.15C6.41672 40.0098 5.72999 39.83 5.08713 39.5375V39.5376C4.65243 39.3403 3.79219 38.8995 3.35759 38.0146L3.31683 37.9276C3.07569 37.3851 3.05528 36.8091 3.07897 36.3718C3.10403 35.9094 3.18998 35.4352 3.28498 35.0109C3.38083 34.5828 3.49702 34.1581 3.59486 33.8011C3.6987 33.422 3.77413 33.1452 3.8162 32.9394C3.92214 32.4211 3.96633 31.9933 3.92504 31.6244C3.88702 31.2847 3.68849 30.8758 3.25517 30.3528C2.8057 29.8104 2.30252 29.3645 1.72257 28.7839V28.784C1.3349 28.3959 0.564279 27.658 0.221089 26.7086C-0.535543 24.6153 0.820615 23.0377 1.72096 22.1095C1.96597 21.8569 2.226 21.6055 2.45614 21.3803C2.69439 21.1472 2.90933 20.934 3.1041 20.7233C3.50559 20.2891 3.73082 19.9591 3.83227 19.6839C3.92079 19.4439 3.95481 19.1037 3.89933 18.6127C3.84359 18.1194 3.71283 17.5854 3.55409 16.9712C3.40671 16.4009 3.22168 15.7152 3.13858 15.0807C3.05745 14.4613 3.03252 13.6349 3.43195 12.8696C3.74583 12.2681 4.27153 11.8825 4.68988 11.6399C5.12919 11.3852 5.61857 11.1929 6.05944 11.0441C6.50674 10.8931 6.9607 10.7685 7.34103 10.6666C7.74906 10.5573 8.03199 10.484 8.23503 10.4175C9.32634 10.0602 9.74876 9.69465 10.0126 9.32141C10.3462 8.84954 10.5503 8.21191 10.9217 6.95725L10.9884 6.73262C11.1497 6.1945 11.3526 5.56347 11.6658 4.95492C11.9404 4.42127 12.4357 3.6494 13.3819 3.24461C14.0792 2.9463 14.8373 2.9478 15.4252 2.99866C16.0407 3.05189 16.6943 3.18347 17.2758 3.30717C17.8911 3.43808 18.4317 3.56139 18.9496 3.64496C19.4724 3.72931 19.8426 3.74949 20.0914 3.72046C20.8467 3.63231 21.4039 3.21908 22.2128 2.43751C22.9225 1.75175 23.9858 0.575109 25.5144 0.0810309L25.6739 0.029423L25.8412 0.0136421ZM31.5481 5.14216C29.2757 4.48242 27.8007 1.29102 25.9859 1.46264L25.8824 1.49776C23.73 2.26578 22.8278 4.86733 20.2697 5.1659L20.1823 5.17486C18.3306 5.33794 15.3512 3.99234 13.984 4.57732L13.9409 4.59651C13.5001 4.80145 13.2183 5.18955 13.0035 5.60692C12.7165 6.16455 12.5361 6.76304 12.3593 7.36017L12.2316 7.79009C11.6067 9.87464 11.1414 11.0019 8.71205 11.7973L8.6127 11.8287C7.54516 12.157 5.26291 12.5768 4.766 13.5288C3.99059 15.0147 6.02056 18.0601 5.24039 20.1757L5.2008 20.2769C4.32607 22.3922 0.773126 23.8481 1.63243 26.2255C1.84634 26.8173 2.35318 27.3265 2.79539 27.7692C3.80449 28.7794 5.24584 29.9792 5.41235 31.4668C5.47788 32.0522 5.40093 32.649 5.28349 33.2234C5.06903 34.2725 4.26429 36.392 4.68988 37.3495C4.87435 37.7644 5.31577 38.0349 5.71975 38.2183C6.233 38.4519 6.78776 38.5986 7.33008 38.7519C9.61895 39.4001 10.9512 39.7651 11.845 42.1224C12.2702 43.2438 12.6879 45.7999 13.8419 46.3273C15.4248 47.0507 18.6392 45.3493 20.7334 45.8908C22.8419 46.4365 24.6193 49.4927 26.3172 49.5433L26.3574 49.5439C28.4712 49.0471 29.696 46.0314 32.1546 45.7275C34.161 45.4796 36.1378 46.7676 38.0417 46.4925C38.3334 46.4505 38.6903 46.1159 38.8613 45.8442L38.893 45.7907C39.8359 44.0889 39.7282 42.4189 40.9512 40.8177L41.0103 40.7417C42.3717 39.022 46.3292 39.2024 47.3552 37.6735C48.2993 36.2667 46.244 32.659 46.9232 30.8411L46.9397 30.7986C47.3429 29.7998 47.4386 29.772 48.0845 28.9907C48.83 28.0894 51.0912 26.4172 50.632 25.1631C49.9359 23.2634 47.0994 21.9404 46.8054 19.7274C46.5577 17.8633 47.8168 15.7851 47.5822 13.9484L47.5698 13.8611C47.5003 13.412 47.0242 12.9293 46.606 12.717C44.7788 11.7898 43.1965 11.8946 41.4686 10.7003L41.3862 10.6425C39.6703 9.41803 39.6299 5.44171 38.3619 4.68466C36.9384 3.83456 33.8541 5.72243 31.6523 5.17031L31.5481 5.14216Z" fill="#1B2550"></path>
  <path fill-rule="evenodd" clip-rule="evenodd" d="M25.6094 10.6869C34.1495 10.399 41.3095 16.9358 41.5957 25.2816C41.8816 33.6273 35.1852 40.6169 26.6446 40.8881C18.1162 41.1586 10.9753 34.627 10.6895 26.2933C10.4039 17.9595 17.0815 10.9745 25.6094 10.6869ZM25.6329 12.1459C17.9175 12.4202 11.8929 18.759 12.1827 26.2982C12.4725 33.8374 18.9669 39.7173 26.6817 39.4252C34.3834 39.1337 40.3877 32.8003 40.0987 25.2738C39.8091 17.7471 33.3354 11.8721 25.6329 12.1459Z" fill="#1B2550"></path>
  <path fill-rule="evenodd" clip-rule="evenodd" d="M33.9175 17.6289C34.6719 17.6436 35.2538 17.8148 35.8159 18.3369C36.338 18.8235 36.6417 19.4924 36.6606 20.1973C36.6794 21.0791 36.3374 21.5971 35.7358 22.1963C34.844 23.0846 33.9403 23.9652 33.0415 24.8467L27.8638 29.9189L25.3071 32.4268C24.8484 32.8792 24.3893 33.3575 23.9018 33.7773C23.5543 34.0767 23.1598 33.9395 22.853 33.6689C22.371 33.2439 21.9147 32.7935 21.4526 32.3486L18.7251 29.6982C18.1167 29.1071 16.3059 27.4425 15.9477 26.8135C15.7391 26.4405 15.6259 26.0237 15.6186 25.5986C15.6057 24.9165 15.8574 24.2331 16.3491 23.7432C16.8582 23.2455 17.547 22.9634 18.2671 22.957C19.6993 22.9451 20.4511 23.9623 21.3784 24.8701L23.478 26.9248C23.498 26.8984 23.5313 26.8549 23.5532 26.832C24.2065 26.1508 24.8986 25.4822 25.5708 24.8203L29.1782 21.2617L31.1401 19.3223C32.0656 18.4068 32.517 17.7325 33.9175 17.6289ZM33.8003 19.1191C33.1673 19.3064 32.6614 19.9169 32.1997 20.3711L30.644 21.9023L25.6235 26.8301C25.1448 27.2997 24.2212 28.3627 23.6733 28.6182C23.4905 28.7034 23.2721 28.6544 23.102 28.5635C22.7411 28.3705 22.438 28.0018 22.1509 27.7168C21.5699 27.1401 19.3962 24.8543 18.8755 24.5654C18.6076 24.4169 18.3205 24.3627 18.021 24.4434C17.711 24.5269 17.4166 24.7185 17.2622 25C17.1191 25.2589 17.092 25.5646 17.187 25.8438C17.3651 26.3781 18.3415 27.1808 18.7905 27.6221L21.8364 30.5781C22.3139 31.0411 23.0294 31.6938 23.4663 32.1729C23.8054 31.7887 24.2636 31.3605 24.6362 30.9971L26.4897 29.1895L32.2075 23.6074L33.9175 21.9404C34.4112 21.4592 35.2191 20.8654 35.1675 20.1348C35.1466 19.844 35.0067 19.573 34.7798 19.3838C34.4932 19.1442 34.166 19.0852 33.8003 19.1191Z" fill="#1B2550"></path>
</svg>
