<?xml version="1.0" encoding="UTF-8"?>
<svg xmlns="http://www.w3.org/2000/svg" width="21" height="27" viewBox="0 0 21 27" fill="none">
  <g clip-path="url(#clip0_1355_2103)">
    <path d="M10.5 16.125C9.98083 16.125 9.47331 15.971 9.04163 15.6826C8.60995 15.3942 8.2735 14.9842 8.07482 14.5045C7.87614 14.0249 7.82415 13.4971 7.92544 12.9879C8.02673 12.4787 8.27673 12.011 8.64385 11.6438C9.01096 11.2767 9.47869 11.0267 9.98789 10.9254C10.4971 10.8242 11.0249 10.8761 11.5045 11.0748C11.9842 11.2735 12.3942 11.61 12.6826 12.0416C12.971 12.4733 13.125 12.9808 13.125 13.5C13.1241 14.1959 12.8473 14.8631 12.3552 15.3552C11.8631 15.8473 11.1959 16.1241 10.5 16.125ZM10.5 12.1875C10.2404 12.1875 9.98666 12.2645 9.77082 12.4087C9.55498 12.5529 9.38675 12.7579 9.28741 12.9977C9.18807 13.2376 9.16208 13.5015 9.21272 13.7561C9.26336 14.0107 9.38837 14.2445 9.57192 14.4281C9.75548 14.6116 9.98935 14.7366 10.2439 14.7873C10.4985 14.8379 10.7624 14.8119 11.0023 14.7126C11.2421 14.6133 11.4471 14.445 11.5913 14.2292C11.7355 14.0133 11.8125 13.7596 11.8125 13.5C11.8122 13.152 11.6738 12.8184 11.4277 12.5723C11.1816 12.3262 10.848 12.1878 10.5 12.1875ZM3.28125 16.125C2.76208 16.125 2.25456 15.971 1.82288 15.6826C1.3912 15.3942 1.05475 14.9842 0.856067 14.5045C0.657387 14.0249 0.605404 13.4971 0.70669 12.9879C0.807976 12.4787 1.05798 12.011 1.4251 11.6438C1.79221 11.2767 2.25994 11.0267 2.76914 10.9254C3.27834 10.8242 3.80614 10.8761 4.2858 11.0748C4.76545 11.2735 5.17542 11.61 5.46386 12.0416C5.7523 12.4733 5.90625 12.9808 5.90625 13.5C5.90538 14.1959 5.62854 14.8631 5.13645 15.3552C4.64435 15.8473 3.97718 16.1241 3.28125 16.125ZM3.28125 12.1875C3.02166 12.1875 2.7679 12.2645 2.55207 12.4087C2.33623 12.5529 2.168 12.7579 2.06866 12.9977C1.96932 13.2376 1.94333 13.5015 1.99397 13.7561C2.04461 14.0107 2.16962 14.2445 2.35317 14.4281C2.53673 14.6116 2.7706 14.7366 3.0252 14.7873C3.2798 14.8379 3.5437 14.8119 3.78352 14.7126C4.02335 14.6133 4.22834 14.445 4.37256 14.2292C4.51677 14.0133 4.59375 13.7596 4.59375 13.5C4.5934 13.152 4.45501 12.8184 4.20895 12.5723C3.96288 12.3262 3.62924 12.1878 3.28125 12.1875ZM6.5625 23.3438C6.04333 23.3438 5.53581 23.1898 5.10413 22.9014C4.67245 22.6129 4.336 22.203 4.13732 21.7233C3.93864 21.2436 3.88665 20.7158 3.98794 20.2066C4.08923 19.6974 4.33923 19.2297 4.70635 18.8626C5.07346 18.4955 5.54119 18.2455 6.05039 18.1442C6.55959 18.0429 7.08739 18.0949 7.56705 18.2936C8.0467 18.4922 8.45667 18.8287 8.74511 19.2604C9.03355 19.6921 9.1875 20.1996 9.1875 20.7188C9.18663 21.4147 8.90979 22.0819 8.4177 22.5739C7.9256 23.066 7.25843 23.3429 6.5625 23.3438ZM6.5625 19.4063C6.30291 19.4063 6.04915 19.4832 5.83332 19.6274C5.61748 19.7717 5.44925 19.9767 5.34991 20.2165C5.25057 20.4563 5.22458 20.7202 5.27522 20.9748C5.32586 21.2294 5.45087 21.4633 5.63442 21.6468C5.81798 21.8304 6.05185 21.9554 6.30645 22.006C6.56105 22.0567 6.82494 22.0307 7.06477 21.9313C7.3046 21.832 7.50959 21.6638 7.6538 21.4479C7.79802 21.2321 7.875 20.9783 7.875 20.7188C7.87465 20.3708 7.73626 20.0371 7.49019 19.7911C7.24413 19.545 6.91049 19.4066 6.5625 19.4063ZM14.4375 23.3438C13.9183 23.3438 13.4108 23.1898 12.9791 22.9014C12.5475 22.6129 12.211 22.203 12.0123 21.7233C11.8136 21.2436 11.7617 20.7158 11.8629 20.2066C11.9642 19.6974 12.2142 19.2297 12.5813 18.8626C12.9485 18.4955 13.4162 18.2455 13.9254 18.1442C14.4346 18.0429 14.9624 18.0949 15.442 18.2936C15.9217 18.4922 16.3317 18.8287 16.6201 19.2604C16.9085 19.6921 17.0625 20.1996 17.0625 20.7188C17.0616 21.4147 16.7848 22.0819 16.2927 22.5739C15.8006 23.066 15.1334 23.3429 14.4375 23.3438ZM14.4375 19.4063C14.1779 19.4063 13.9242 19.4832 13.7083 19.6274C13.4925 19.7717 13.3242 19.9767 13.2249 20.2165C13.1256 20.4563 13.0996 20.7202 13.1502 20.9748C13.2009 21.2294 13.3259 21.4633 13.5094 21.6468C13.693 21.8304 13.9268 21.9554 14.1814 22.006C14.436 22.0567 14.6999 22.0307 14.9398 21.9313C15.1796 21.832 15.3846 21.6638 15.5288 21.4479C15.673 21.2321 15.75 20.9783 15.75 20.7188C15.7497 20.3708 15.6113 20.0371 15.3652 19.7911C15.1191 19.545 14.7855 19.4066 14.4375 19.4063ZM17.7188 16.125C17.1996 16.125 16.6921 15.971 16.2604 15.6826C15.8287 15.3942 15.4922 14.9842 15.2936 14.5045C15.0949 14.0249 15.0429 13.4971 15.1442 12.9879C15.2455 12.4787 15.4955 12.011 15.8626 11.6438C16.2297 11.2767 16.6974 11.0267 17.2066 10.9254C17.7158 10.8242 18.2436 10.8761 18.7233 11.0748C19.203 11.2735 19.6129 11.61 19.9014 12.0416C20.1898 12.4733 20.3438 12.9808 20.3438 13.5C20.3429 14.1959 20.066 14.8631 19.5739 15.3552C19.0819 15.8473 18.4147 16.1241 17.7188 16.125ZM17.7188 12.1875C17.4592 12.1875 17.2054 12.2645 16.9896 12.4087C16.7737 12.5529 16.6055 12.7579 16.5062 12.9977C16.4068 13.2376 16.3808 13.5015 16.4315 13.7561C16.4821 14.0107 16.6071 14.2445 16.7907 14.4281C16.9742 14.6116 17.2081 14.7366 17.4627 14.7873C17.7173 14.8379 17.9812 14.8119 18.221 14.7126C18.4609 14.6133 18.6658 14.445 18.8101 14.2292C18.9543 14.0133 19.0313 13.7596 19.0313 13.5C19.0309 13.152 18.8925 12.8184 18.6464 12.5723C18.4004 12.3262 18.0667 12.1878 17.7188 12.1875ZM14.4375 8.90625C13.9183 8.90625 13.4108 8.7523 12.9791 8.46386C12.5475 8.17542 12.211 7.76545 12.0123 7.2858C11.8136 6.80614 11.7617 6.27834 11.8629 5.76914C11.9642 5.25994 12.2142 4.79221 12.5813 4.4251C12.9485 4.05798 13.4162 3.80798 13.9254 3.70669C14.4346 3.6054 14.9624 3.65739 15.442 3.85607C15.9217 4.05475 16.3317 4.3912 16.6201 4.82288C16.9085 5.25456 17.0625 5.76208 17.0625 6.28125C17.0616 6.97718 16.7848 7.64435 16.2927 8.13645C15.8006 8.62854 15.1334 8.90538 14.4375 8.90625ZM14.4375 4.96875C14.1779 4.96875 13.9242 5.04573 13.7083 5.18995C13.4925 5.33417 13.3242 5.53915 13.2249 5.77898C13.1256 6.01881 13.0996 6.28271 13.1502 6.53731C13.2009 6.79191 13.3259 7.02577 13.5094 7.20933C13.693 7.39289 13.9268 7.51789 14.1814 7.56853C14.436 7.61918 14.6999 7.59318 14.9398 7.49384C15.1796 7.3945 15.3846 7.22628 15.5288 7.01044C15.673 6.7946 15.75 6.54084 15.75 6.28125C15.7497 5.93326 15.6113 5.59962 15.3652 5.35356C15.1191 5.10749 14.7855 4.9691 14.4375 4.96875ZM6.5625 8.90625C6.04333 8.90625 5.53581 8.7523 5.10413 8.46386C4.67245 8.17542 4.336 7.76545 4.13732 7.2858C3.93864 6.80614 3.88665 6.27834 3.98794 5.76914C4.08923 5.25994 4.33923 4.79221 4.70635 4.4251C5.07346 4.05798 5.54119 3.80798 6.05039 3.70669C6.55959 3.6054 7.08739 3.65739 7.56705 3.85607C8.0467 4.05475 8.45667 4.3912 8.74511 4.82288C9.03355 5.25456 9.1875 5.76208 9.1875 6.28125C9.18663 6.97718 8.90979 7.64435 8.4177 8.13645C7.9256 8.62854 7.25843 8.90538 6.5625 8.90625ZM6.5625 4.96875C6.30291 4.96875 6.04915 5.04573 5.83332 5.18995C5.61748 5.33417 5.44925 5.53915 5.34991 5.77898C5.25057 6.01881 5.22458 6.28271 5.27522 6.53731C5.32586 6.79191 5.45087 7.02577 5.63442 7.20933C5.81798 7.39289 6.05185 7.51789 6.30645 7.56853C6.56105 7.61918 6.82494 7.59318 7.06477 7.49384C7.3046 7.3945 7.50959 7.22628 7.6538 7.01044C7.79802 6.7946 7.875 6.54084 7.875 6.28125C7.87465 5.93326 7.73626 5.59962 7.49019 5.35356C7.24413 5.10749 6.91049 4.9691 6.5625 4.96875Z" fill="white"></path>
  </g>
  <defs>
    <clipPath id="clip0_1355_2103">
      <rect width="21" height="26.2207" fill="white"></rect>
    </clipPath>
  </defs>
</svg>
