<?xml version="1.0" encoding="UTF-8"?>
<svg xmlns="http://www.w3.org/2000/svg" width="80" height="80" viewBox="0 0 80 80" fill="none">
  <g clip-path="url(#clip0_994_5861)">
    <path d="M80 0H0V80H80V0Z" fill="#FCBA17"></path>
    <path d="M77.7598 2.29211H2.35815V77.6938H77.7598V2.29211Z" fill="#1B2550"></path>
    <path d="M16.8999 65.8601C15.7893 65.8601 15.1466 66.4461 14.8253 67.4244C14.6693 66.3941 14.0833 65.8601 13.0058 65.8601C11.9283 65.8601 11.3092 66.4461 10.9878 67.4007V66.035H10.0994V71.5784H10.9878V69.4612C10.9878 67.5567 11.5408 66.6021 12.727 66.6021C13.5351 66.6021 14.003 66.9896 14.003 68.1096V71.5784H14.8678V69.4612C14.8678 67.5567 15.4113 66.6021 16.6211 66.6021C17.4292 66.6021 17.8829 66.9896 17.8829 68.1096V71.5784H18.7714V68.0104C18.7714 66.5926 18.1617 65.8601 16.8999 65.8601Z" fill="#FFE8D5"></path>
    <path d="M26.2055 66.5359C27.2357 66.5359 27.8926 67.0699 27.9352 68.3412H24.3435C24.4663 67.0321 25.1516 66.5359 26.2055 66.5359ZM26.2244 71.0822C25.1138 71.0822 24.386 70.5293 24.3198 69.0076H28.7764C28.8 68.8752 28.8 68.7618 28.8 68.62C28.8 67.0038 27.8595 65.8601 26.196 65.8601C24.3577 65.8601 23.4456 67.1456 23.4456 68.7996C23.4456 70.4537 24.2868 71.758 26.196 71.758C28.1053 71.758 28.6771 70.7136 28.7905 69.8724H27.9824C27.817 70.5718 27.3161 71.0822 26.2291 71.0822H26.2244Z" fill="#FFE8D5"></path>
    <path d="M35.9925 71.0397C34.7306 71.0397 34.173 70.2977 34.173 68.8091C34.173 67.3204 34.7259 66.5784 35.9925 66.5784C37.1692 66.5784 37.9112 67.2448 37.9112 68.8091C37.9112 70.3733 37.1692 71.0397 35.9925 71.0397ZM37.9112 63.8232V67.0936C37.5331 66.3043 36.8337 65.8648 35.8176 65.8648C34.0785 65.8648 33.2798 67.1077 33.2798 68.8138C33.2798 70.5198 34.0785 71.7628 35.8176 71.7628C36.8384 71.7628 37.5378 71.3091 37.9112 70.5198V71.5832H38.7996V63.8232H37.9112Z" fill="#FFE8D5"></path>
    <path d="M43.8281 71.5832H44.7166V66.0397H43.8281V71.5832ZM43.71 65.1276H44.8536V64.2061H43.71V65.1276Z" fill="#FFE8D5"></path>
    <path d="M49.5037 68.8091C49.5037 70.5057 50.4583 71.7581 52.273 71.7581C53.9602 71.7581 54.8581 70.7373 54.9243 69.4613H54.0831C53.9744 70.4017 53.3978 71.035 52.2778 71.035C51.1577 71.035 50.4063 70.4159 50.4063 68.8044C50.4063 67.1929 51.1388 66.5738 52.3108 66.5738C53.3411 66.5738 53.894 67.1503 54.0311 68.0577H54.8628C54.773 66.7723 53.9413 65.8507 52.2778 65.8507C50.4819 65.8507 49.5084 67.1031 49.5084 68.7997L49.5037 68.8091Z" fill="#FFE8D5"></path>
    <path d="M61.4794 71.0255C60.8272 71.0255 60.3688 70.7136 60.3688 70.0851C60.3688 69.4849 60.7232 69.1966 61.4794 69.0407L62.4009 68.8516C62.8215 68.7618 63.1193 68.672 63.3981 68.4735V68.9509C63.3981 70.0047 62.7885 71.0255 61.4794 71.0255ZM61.2998 71.725C62.5852 71.725 63.1713 70.9499 63.3839 70.2836C63.3839 70.6947 63.417 71.1059 63.4595 71.5785H64.2677C64.211 71.035 64.2015 70.6049 64.2015 70.2032V67.5425C64.2015 66.5454 63.5162 65.8459 61.9945 65.8459C60.4728 65.8459 59.6316 66.6021 59.5985 67.7741H60.4728C60.5295 67.0558 60.9406 66.5454 62.0229 66.5454C63.1051 66.5454 63.3886 66.9754 63.3886 67.5425C63.3886 67.9631 63.1429 68.1191 62.5569 68.2183L61.1486 68.4499C59.9529 68.6484 59.4614 69.2155 59.4614 70.1134C59.4614 71.1673 60.227 71.7202 61.2903 71.7202L61.2998 71.725Z" fill="#FFE8D5"></path>
    <path d="M70.0284 63.8232H69.1399V71.5832H70.0284V63.8232Z" fill="#FFE8D5"></path>
    <path d="M11.5265 57.5V47.1361H10.0898V58.6626H17.5568V57.5H11.5265Z" fill="#FFE8D5"></path>
    <path d="M21.8385 57.5V53.3034H28.4075V52.1597H21.8385V48.2987H28.9274V47.1361H20.4019V58.6626H28.9794V57.5H21.8385Z" fill="#FFE8D5"></path>
    <path d="M34.9955 54.5558L37.4199 48.1758L39.8443 54.5558H34.9908H34.9955ZM41.4085 58.6626H42.8641L38.4974 47.1361H36.366L31.9993 58.6626H33.4359L34.5607 55.7183H40.279L41.4038 58.6626H41.4085Z" fill="#FFE8D5"></path>
    <path d="M51.1294 52.4197H47.3676V48.294H51.1483C52.6559 48.294 53.3317 48.9509 53.3317 50.2883C53.3317 51.6257 52.7409 52.4197 51.1294 52.4197ZM54.4753 55.6096C54.4753 53.913 53.6956 53.3932 52.6039 53.0813C53.8846 52.7883 54.8392 51.7108 54.8392 50.1701C54.8392 48.3176 53.6767 47.1361 51.3043 47.1361H45.9309V58.6626H47.3676V53.4972H50.6095C52.2022 53.4972 53.0859 54.173 53.0859 55.8176V56.8762C53.0859 57.7079 53.171 58.2798 53.2939 58.6626H54.6974C54.5935 58.2278 54.4706 57.6749 54.4706 56.8242V55.6096H54.4753Z" fill="#FFE8D5"></path>
    <path d="M11.5411 33.6862H10.0288V35.9546H7.75562V37.4669H10.0288V39.74H11.5411V37.4669H13.8095V35.9546H11.5411V33.6862Z" fill="#FFE8D5"></path>
  </g>
  <defs>
    <clipPath id="clip0_994_5861">
      <rect width="80" height="80" fill="white"></rect>
    </clipPath>
  </defs>
</svg>
